<svg xmlns="http://www.w3.org/2000/svg" width="125.204" height="125.203" viewBox="0 0 125.204 125.203"><g id="Group_310" data-name="Group 310" transform="translate(-181.957 -1500.87)"><path id="Path_2762" data-name="Path 2762" d="M-511.414 206.1h-20.032a2.158 2.158 0 0 0-1.931 1.193 2.161 2.161 0 0 0 .2 2.261 12.2 12.2 0 0 1 2.332 7.339c0 5.951-3.873 10.793-8.635 10.793s-8.635-4.842-8.635-10.793a12.194 12.194 0 0 1 2.328-7.339 2.161 2.161 0 0 0 .2-2.261 2.159 2.159 0 0 0-1.931-1.193h-24.345v20.674a17.238 17.238 0 0 0-6.476-1.246c-8.332 0-15.111 5.809-15.111 12.952s6.779 12.952 15.111 12.952a17.231 17.231 0 0 0 6.476-1.246v16.357l-.121 4.317h58.406a6.476 6.476 0 0 0 6.476-6.476v-58.152z" transform="translate(814.258 1355.21)" fill="#ed2939"/><path id="Path_2779" data-name="Path 2779" d="M-598.854 13h-112.252a6.476 6.476 0 0 0-6.476 6.476v112.251a6.476 6.476 0 0 0 6.476 6.476h112.252a6.476 6.476 0 0 0 6.476-6.476V19.476A6.476 6.476 0 0 0-598.854 13zm2.159 6.476v53.967h-20.032a2.158 2.158 0 0 0-1.931 1.193 2.161 2.161 0 0 0 .2 2.261 12.2 12.2 0 0 1 2.332 7.339c0 5.951-3.873 10.793-8.635 10.793s-8.635-4.842-8.635-10.793a12.194 12.194 0 0 1 2.328-7.339 2.161 2.161 0 0 0 .2-2.261 2.158 2.158 0 0 0-1.931-1.193h-20.028V57.086a17.241 17.241 0 0 0 6.476 1.246c8.332 0 15.111-5.809 15.111-12.952s-6.779-12.952-15.111-12.952a17.234 17.234 0 0 0-6.476 1.246V17.317h53.967a2.159 2.159 0 0 1 2.16 2.159zm-116.57 0a2.159 2.159 0 0 1 2.159-2.159h53.967v20.032a2.158 2.158 0 0 0 1.193 1.931 2.161 2.161 0 0 0 2.261-.2 12.217 12.217 0 0 1 7.339-2.332c5.951 0 10.794 3.873 10.794 8.635s-4.842 8.635-10.794 8.635a12.215 12.215 0 0 1-7.339-2.327 2.161 2.161 0 0 0-2.261-.2 2.158 2.158 0 0 0-1.193 1.931v20.021H-673.5a17.231 17.231 0 0 0 1.246-6.476c0-8.33-5.809-15.111-12.952-15.111s-12.952 6.781-12.952 15.111a17.23 17.23 0 0 0 1.246 6.476h-16.357zm0 112.251V77.76h20.032a2.159 2.159 0 0 0 1.931-1.193 2.161 2.161 0 0 0-.2-2.261 12.194 12.194 0 0 1-2.332-7.339c0-5.951 3.873-10.793 8.635-10.793s8.635 4.842 8.635 10.793a12.193 12.193 0 0 1-2.327 7.339 2.161 2.161 0 0 0-.2 2.261 2.159 2.159 0 0 0 1.931 1.193h20.028v16.357a17.238 17.238 0 0 0-6.476-1.246c-8.332 0-15.111 5.809-15.111 12.952s6.779 12.952 15.111 12.952a17.231 17.231 0 0 0 6.476-1.246v16.357h-53.967a2.159 2.159 0 0 1-2.166-2.159zm116.57 0a2.159 2.159 0 0 1-2.159 2.159h-53.967v-20.033a2.158 2.158 0 0 0-1.193-1.931 2.161 2.161 0 0 0-2.261.2 12.218 12.218 0 0 1-7.339 2.332c-5.951 0-10.794-3.873-10.794-8.635s4.842-8.635 10.794-8.635a12.215 12.215 0 0 1 7.339 2.327 2.161 2.161 0 0 0 2.261.2 2.158 2.158 0 0 0 1.193-1.931V77.76h16.357a17.232 17.232 0 0 0-1.246 6.476c0 8.33 5.809 15.111 12.952 15.111s12.952-6.781 12.952-15.111a17.237 17.237 0 0 0-1.246-6.476h16.352z" transform="translate(899.539 1487.87)"/><path id="Line_22" data-name="Line 22" transform="translate(276.076 1608.706)" d="M0 0v10.859"/></g></svg>