<svg xmlns="http://www.w3.org/2000/svg" width="80.83" height="96.85" viewBox="0 0 80.83 96.85"><g id="Group_887" data-name="Group 887" transform="translate(-783.82 -1149.89)"><path id="Rectangle_268" data-name="Rectangle 268" transform="translate(797.92 1158.26)" fill="#eee" d="M0 0h65.707v87.233H0z"/><path id="Path_2791" data-name="Path 2791" d="M2805.114 1238.366h53.349l14.508-14.1v-73.135h-67.856z" transform="translate(-2020)" fill="#fff" fill-rule="evenodd"/><path id="Rectangle_269" data-name="Rectangle 269" transform="translate(793.894 1159.284)" fill="#5829b2" d="M0 0h50.283v11.582H0z"/><path id="Rectangle_270" data-name="Rectangle 270" transform="translate(793.895 1203.761)" fill="#ed2939" d="M0 0h7.763v5.91H0z"/><path id="Rectangle_271" data-name="Rectangle 271" transform="translate(808.104 1195.433)" fill="#ed2939" d="M0 0h7.763v14.239H0z"/><path id="Rectangle_272" data-name="Rectangle 272" transform="translate(822.259 1186.478)" fill="#ed2939" d="M0 0h7.763v23.194H0z"/><path id="Rectangle_273" data-name="Rectangle 273" transform="translate(836.414 1177.97)" fill="#ed2939" d="M0 0h7.763v31.701H0z"/><g id="Group_328" data-name="Group 328" transform="translate(-2020)"><g id="Group_320" data-name="Group 320" fill-rule="evenodd"><path id="Path_2798" data-name="Path 2798" d="M2857.95 1239.6h-.01c-.03 0-.07.01-.11.01h.12l.05-.02c-.02 0-.03.01-.05.01zm-41.21-1.17v1.18h2.36v-1.18z"/><path id="Path_2799" data-name="Path 2799" d="M2873.91 1224.43l.35-.83a1.148 1.148 0 0 1-.35.83z"/><path id="Path_2800" data-name="Path 2800" d="M2873.08 1149.89h-67.64a1.176 1.176 0 0 0-1.18 1.18l-.44 87.36a1.17 1.17 0 0 0 1.18 1.18h11.74v-1.18h2.36v1.18h38.73c.04 0 .08-.01.11-.01h.01c.02 0 .03-.01.05-.01a1.193 1.193 0 0 0 .77-.31l.87-.85.09-.09 14.17-13.9.36-.84v-72.53a1.182 1.182 0 0 0-1.18-1.18zm-13.35 85.14v-9.66h9.86zm12.17-12.02h-13.35a1.182 1.182 0 0 0-1.18 1.18v13.06h-51.18l.42-85h65.29z"/></g><g id="Group_321" data-name="Group 321"><path id="Path_2801" data-name="Path 2801" d="M2884.65 1157.53v88.03a1.182 1.182 0 0 1-1.18 1.18h-65.55a1.182 1.182 0 0 1-1.18-1.18v-7.13h2.36v5.95h63.19v-85.67h-9.21v-2.36h10.39a1.182 1.182 0 0 1 1.18 1.18z" fill-rule="evenodd"/></g><g id="Group_322" data-name="Group 322"><path id="Path_2802" data-name="Path 2802" d="M2864.23 1158.26h-50.39a1.182 1.182 0 0 0-1.18 1.18v11.59a1.184 1.184 0 0 0 1.18 1.19h50.39a1.184 1.184 0 0 0 1.18-1.19v-11.59a1.182 1.182 0 0 0-1.18-1.18zm-1.17 11.59h-48.05v-9.23h48.05z" fill-rule="evenodd"/></g><path id="Rectangle_286" data-name="Rectangle 286" transform="translate(2813.894 1216.854)" d="M0 0h50.284v2.365H0z"/><path id="Rectangle_287" data-name="Rectangle 287" transform="translate(2813.894 1222.868)" d="M0 0h26.379v2.365H0z"/><g id="Group_323" data-name="Group 323"><path id="Rectangle_288" data-name="Rectangle 288" transform="translate(2844.395 1222.871)" d="M0 0h8.036v2.36H0z"/></g><g id="Group_324" data-name="Group 324"><path id="Rectangle_289" data-name="Rectangle 289" transform="translate(2813.894 1228.877)" d="M0 0h38.537v2.373H0z"/></g><path id="Path_2803" data-name="Path 2803" d="M2821.77 1210.968h-7.877a1.181 1.181 0 0 1-1.18-1.182v-6.008a1.181 1.181 0 0 1 1.18-1.182h7.877a1.181 1.181 0 0 1 1.181 1.182v6.008a1.181 1.181 0 0 1-1.181 1.182zm-6.7-2.364h5.516v-3.643h-5.516z"/><g id="Group_325" data-name="Group 325"><path id="Path_2804" data-name="Path 2804" d="M2835.93 1194.37h-7.88a1.18 1.18 0 0 0-1.18 1.17v14.24a1.182 1.182 0 0 0 1.18 1.18h7.88a1.182 1.182 0 0 0 1.18-1.18v-14.24a1.18 1.18 0 0 0-1.18-1.17zm-1.19 14.24h-5.51v-11.89h5.51z" fill-rule="evenodd"/></g><g id="Group_326" data-name="Group 326"><path id="Path_2805" data-name="Path 2805" d="M2850.08 1185.39h-7.88a1.184 1.184 0 0 0-1.18 1.19v23.2a1.184 1.184 0 0 0 1.18 1.19h7.88a1.184 1.184 0 0 0 1.18-1.19v-23.2a1.184 1.184 0 0 0-1.18-1.19zm-1.18 23.21h-5.52v-20.84h5.52z" fill-rule="evenodd"/></g><g id="Group_327" data-name="Group 327"><path id="Path_2806" data-name="Path 2806" d="M2864.23 1176.73h-7.87a1.174 1.174 0 0 0-1.17 1.18v31.87a1.167 1.167 0 0 0 1.17 1.18h7.87a1.167 1.167 0 0 0 1.17-1.18v-31.87a1.174 1.174 0 0 0-1.17-1.18zm-1.17 31.88h-5.53v-29.52h5.53z" fill-rule="evenodd"/></g></g></g></svg>