<svg xmlns="http://www.w3.org/2000/svg" width="96.849" height="96.876" viewBox="0 0 96.849 96.876"><g id="Group_881" data-name="Group 881" transform="translate(-1561.79 -1493.11)"><path id="Rectangle_258" data-name="Rectangle 258" transform="translate(1576.857 1494.3)" fill="#ed2939" d="M0 0h7.763v18.715H0z"/><path id="Rectangle_259" data-name="Rectangle 259" transform="translate(1576.857 1545.256)" fill="#2baf6a" d="M0 0h7.763v18.715H0z"/><path id="Rectangle_260" data-name="Rectangle 260" transform="translate(1628.354 1545.256)" fill="#5829b2" d="M0 0h7.763v18.715H0z"/><path id="Rectangle_261" data-name="Rectangle 261" transform="translate(1584.111 1494.3)" fill="#eee" d="M0 0h7.763v18.715H0z"/><path id="Rectangle_262" data-name="Rectangle 262" transform="translate(1584.111 1545.256)" fill="#eee" d="M0 0h7.763v18.715H0z"/><path id="Rectangle_263" data-name="Rectangle 263" transform="translate(1635.608 1545.256)" fill="#eee" d="M0 0h7.763v18.715H0z"/><g id="Group_332" data-name="Group 332" transform="translate(-2020)"><g id="Group_329" data-name="Group 329"><path id="Path_2807" data-name="Path 2807" d="M3626.28 1493.11h-43.31a1.184 1.184 0 0 0-1.18 1.19v43.54a1.178 1.178 0 0 0 1.18 1.19h43.31a1.184 1.184 0 0 0 1.18-1.19v-43.54a1.191 1.191 0 0 0-1.18-1.19zm-1.19 43.55h-40.94v-41.17h11.95v-1.19h2.36v1.19h4.98v-1.19h2.36v1.19h4.98v-1.19h2.37v1.19h11.94z" fill-rule="evenodd"/></g><path id="Path_2808" data-name="Path 2808" d="M3613.15 1494.3v18.46a1.184 1.184 0 0 1-1.19 1.18h-14.68a1.182 1.182 0 0 1-1.18-1.18v-18.46h2.36v17.28h4.98v-17.28h2.36v17.28h4.98v-17.28z"/><g id="Group_330" data-name="Group 330"><path id="Path_2809" data-name="Path 2809" d="M3626.28 1544.066h-43.31a1.184 1.184 0 0 0-1.18 1.19v43.54a1.178 1.178 0 0 0 1.18 1.19h43.31a1.184 1.184 0 0 0 1.18-1.19v-43.54a1.191 1.191 0 0 0-1.18-1.19zm-1.19 43.55h-40.94v-41.17h11.95v-1.19h2.36v1.19h4.98v-1.19h2.36v1.19h4.98v-1.19h2.37v1.19h11.94z" fill-rule="evenodd"/></g><path id="Path_2810" data-name="Path 2810" d="M3613.15 1545.256v18.46a1.184 1.184 0 0 1-1.19 1.18h-14.68a1.182 1.182 0 0 1-1.18-1.18v-18.46h2.36v17.28h4.98v-17.28h2.36v17.28h4.98v-17.28z"/><g id="Group_331" data-name="Group 331"><path id="Path_2811" data-name="Path 2811" d="M3677.459 1544.066h-43.31a1.184 1.184 0 0 0-1.18 1.19v43.54a1.178 1.178 0 0 0 1.18 1.19h43.31a1.184 1.184 0 0 0 1.18-1.19v-43.54a1.191 1.191 0 0 0-1.18-1.19zm-1.19 43.55h-40.94v-41.17h11.95v-1.19h2.36v1.19h4.98v-1.19h2.36v1.19h4.98v-1.19h2.37v1.19h11.94z" fill-rule="evenodd"/></g><path id="Path_2812" data-name="Path 2812" d="M3664.329 1545.256v18.46a1.184 1.184 0 0 1-1.19 1.18h-14.68a1.182 1.182 0 0 1-1.18-1.18v-18.46h2.36v17.28h4.98v-17.28h2.36v17.28h4.98v-17.28z"/></g><g id="Group_336" data-name="Group 336" transform="translate(-2020)"><g id="Group_333" data-name="Group 333"><path id="Path_2813" data-name="Path 2813" d="M3626.28 1493.11h-43.31a1.184 1.184 0 0 0-1.18 1.19v43.54a1.178 1.178 0 0 0 1.18 1.19h43.31a1.184 1.184 0 0 0 1.18-1.19v-43.54a1.191 1.191 0 0 0-1.18-1.19zm-1.19 43.55h-40.94v-41.17h11.95v-1.19h2.36v1.19h4.98v-1.19h2.36v1.19h4.98v-1.19h2.37v1.19h11.94z" fill-rule="evenodd"/></g><path id="Path_2814" data-name="Path 2814" d="M3613.15 1494.3v18.46a1.184 1.184 0 0 1-1.19 1.18h-14.68a1.182 1.182 0 0 1-1.18-1.18v-18.46h2.36v17.28h4.98v-17.28h2.36v17.28h4.98v-17.28z"/><g id="Group_334" data-name="Group 334"><path id="Path_2815" data-name="Path 2815" d="M3626.28 1544.066h-43.31a1.184 1.184 0 0 0-1.18 1.19v43.54a1.178 1.178 0 0 0 1.18 1.19h43.31a1.184 1.184 0 0 0 1.18-1.19v-43.54a1.191 1.191 0 0 0-1.18-1.19zm-1.19 43.55h-40.94v-41.17h11.95v-1.19h2.36v1.19h4.98v-1.19h2.36v1.19h4.98v-1.19h2.37v1.19h11.94z" fill-rule="evenodd"/></g><path id="Path_2816" data-name="Path 2816" d="M3613.15 1545.256v18.46a1.184 1.184 0 0 1-1.19 1.18h-14.68a1.182 1.182 0 0 1-1.18-1.18v-18.46h2.36v17.28h4.98v-17.28h2.36v17.28h4.98v-17.28z"/><g id="Group_335" data-name="Group 335"><path id="Path_2817" data-name="Path 2817" d="M3677.459 1544.066h-43.31a1.184 1.184 0 0 0-1.18 1.19v43.54a1.178 1.178 0 0 0 1.18 1.19h43.31a1.184 1.184 0 0 0 1.18-1.19v-43.54a1.191 1.191 0 0 0-1.18-1.19zm-1.19 43.55h-40.94v-41.17h11.95v-1.19h2.36v1.19h4.98v-1.19h2.36v1.19h4.98v-1.19h2.37v1.19h11.94z" fill-rule="evenodd"/></g><path id="Path_2818" data-name="Path 2818" d="M3664.329 1545.256v18.46a1.184 1.184 0 0 1-1.19 1.18h-14.68a1.182 1.182 0 0 1-1.18-1.18v-18.46h2.36v17.28h4.98v-17.28h2.36v17.28h4.98v-17.28z"/></g></g></svg>