<svg xmlns="http://www.w3.org/2000/svg" width="72" height="72" viewBox="0 0 72 72"><g id="Group_879" data-name="Group 879" transform="translate(-6877.119 -3076.541)"><g id="Group_595" data-name="Group 595"><circle id="Ellipse_24" data-name="Ellipse 24" cx="36" cy="36" r="36" transform="translate(6877.119 3076.542)" fill="#ed2939"/></g><g id="Group_600" data-name="Group 600" fill="#fff"><path id="Rectangle_566" data-name="Rectangle 566" transform="translate(6895.814 3106.545)" d="M0 0h7.425v23.858H0z"/><path id="Path_6073" data-name="Path 6073" d="M6922.119 3105.943a7.8 7.8 0 0 0-7.021 3.854h-.1v-3.252h-7.112v23.855h7.4v-11.8c0-3.113.589-6.123 4.45-6.123 3.8 0 3.858 3.56 3.858 6.327v11.6H6931v-13.1c.008-6.424-1.379-11.361-8.881-11.361z"/><path id="Path_6074" data-name="Path 6074" d="M6899.527 3094.68a4.3 4.3 0 1 0 4.3 4.3 4.3 4.3 0 0 0-4.3-4.3z"/></g></g></svg>