<svg xmlns="http://www.w3.org/2000/svg" width="72" height="72" viewBox="0 0 72 72"><g id="Group_877" data-name="Group 877" transform="translate(-7101.119 -3076.541)"><g id="Group_599" data-name="Group 599"><circle id="Ellipse_25" data-name="Ellipse 25" cx="36" cy="36" r="36" transform="translate(7101.119 3076.542)" fill="#ed2939"/></g><path id="Path_6072" data-name="Path 6072" d="M7156.335 3102.889a15.378 15.378 0 0 1-4.344 1.192 7.627 7.627 0 0 0 3.326-4.188 15.611 15.611 0 0 1-4.809 1.821 7.564 7.564 0 0 0-13.089 5.164 7.752 7.752 0 0 0 .195 1.729 21.431 21.431 0 0 1-15.6-7.883 7.416 7.416 0 0 0-1.024 3.806 7.568 7.568 0 0 0 3.365 6.3 7.542 7.542 0 0 1-3.426-.947v.094a7.57 7.57 0 0 0 6.071 7.423 7.637 7.637 0 0 1-3.4.131 7.594 7.594 0 0 0 7.081 5.255 15.18 15.18 0 0 1-9.384 3.237 15.969 15.969 0 0 1-1.8-.1 21.523 21.523 0 0 0 11.622 3.4c13.925 0 21.529-11.528 21.529-21.509 0-.321 0-.646-.023-.969a15.276 15.276 0 0 0 3.784-3.918z" fill="#fff"/></g></svg>