<svg xmlns="http://www.w3.org/2000/svg" width="89.326" height="89.334" viewBox="0 0 89.326 89.334"><g id="Group_882" data-name="Group 882" transform="translate(-1566.009 -1834.1)"><path id="Rectangle_495" data-name="Rectangle 495" transform="translate(1567.098 1846.622)" fill="#eee" d="M0 0h87.321v75.358H0z"/><path id="Rectangle_496" data-name="Rectangle 496" transform="translate(1573.944 1855.131)" fill="#83a9ff" d="M0 0h74.219v57.5H0z"/><g id="Group_489" data-name="Group 489" transform="translate(-2020)"><path id="Path_5953" data-name="Path 5953" d="M3671.343 1836.286H3590v-2.186h81.341v2.186zm3.992 1.81h-2.178v-.091l-.008-.092-.011-.092-.016-.086-.02-.088-.025-.085-.028-.085-.033-.08-.036-.081-.038-.076-.046-.077-.049-.078-.048-.067-.052-.066-.061-.069-.06-.063-.064-.061-.069-.061-.066-.052-.068-.048-.077-.05-.077-.044-.076-.04-.081-.036-.082-.032-.085-.029-.085-.025-.088-.02-.087-.016-.092-.011-.092-.007h-.092v-2.188l.205.006.2.016.2.025.2.036.194.044.189.054.184.063.183.072.177.08.174.09.164.1.16.1.16.113.152.121.142.123.139.132.132.139.123.142.121.151.113.161.1.159.1.165.09.175.081.177.072.183.062.184.054.19.046.194.035.2.025.2.016.2v.206zm-2.178 81.341V1838.1h2.178v81.341h-2.178zm-1.814 4v-2.186h.092l.092-.007.092-.011.087-.016.088-.02.085-.025.085-.029.082-.032.081-.036.076-.04.077-.044.075-.048.07-.051.068-.053.067-.059.064-.06.06-.064.059-.068.053-.066.05-.071.048-.075.045-.077.039-.077.036-.08.033-.081.028-.085.025-.085.02-.087.016-.086.011-.093.008-.092v-.091h2.178v.206l-.016.2-.025.2-.035.2-.046.194-.054.19-.062.184-.072.184-.081.176-.089.174-.1.167-.1.159-.112.158-.12.153-.124.143-.132.139-.139.132-.144.125-.15.118-.158.112-.162.1-.164.1-.174.089-.177.081-.183.072-.184.063-.189.054-.194.044-.2.036-.2.025-.2.016-.205.006zm-81.343-2.189h81.341v2.186H3590v-2.186zm-3.993-1.811h2.178v.091l.008.092.011.093.016.086.02.087.025.085.028.085.033.081.036.08.039.077.045.077.046.073.052.073.055.068.057.066.06.064.064.06.066.057.068.054.073.052.073.048.077.043.077.041.081.036.082.032.085.029.085.025.088.02.087.016.092.011.092.007h.092v2.186l-.2-.006-.2-.016-.2-.025-.2-.036-.194-.044-.189-.054-.184-.063-.183-.072-.177-.081-.173-.088-.166-.1-.163-.1-.155-.11-.151-.118-.145-.126-.139-.132-.132-.139-.126-.145-.118-.151-.11-.155-.1-.162-.1-.167-.089-.174-.081-.176-.072-.184-.062-.184-.054-.19-.046-.194-.035-.2-.025-.2-.016-.2v-.206zm2.178-81.341v81.341h-2.178V1838.1h2.178zm1.815-4v2.186h-.092l-.092.007-.092.011-.087.016-.088.02-.085.025-.085.029-.082.032-.081.036-.077.041-.077.043-.075.049-.071.05-.067.053-.067.059-.064.061-.06.063-.059.068-.053.067-.05.07-.048.075-.046.077-.038.076-.036.081-.033.08-.028.085-.025.085-.02.088-.016.086-.011.092-.008.092v.091h-2.178v-.206l.016-.2.025-.2.035-.2.046-.194.054-.19.062-.184.072-.183.081-.177.09-.175.095-.165.1-.161.113-.159.119-.15.124-.143.132-.139.139-.132.144-.125.152-.12.158-.111.16-.1.166-.1.173-.089.177-.08.183-.072.184-.063.189-.054.194-.044.2-.036.2-.025.2-.016.2-.006z" fill-rule="evenodd"/></g><g id="Group_490" data-name="Group 490" transform="translate(-2020)"><path id="Rectangle_497" data-name="Rectangle 497" transform="translate(3587.098 1845.536)" d="M0 0h87.148v2.172H0z"/></g><g id="Group_491" data-name="Group 491" transform="translate(-2020)"><path id="Rectangle_498" data-name="Rectangle 498" transform="translate(3591.329 1839.62)" d="M0 0h7.671v2.172H0z"/></g><g id="Group_493" data-name="Group 493" transform="translate(-2020)"><path id="Path_5954" data-name="Path 5954" d="M3667.579 1852.961h-73.81a1.093 1.093 0 0 0-1.09 1.09v59.67a1.091 1.091 0 0 0 1.09 1.08h73.81a1.09 1.09 0 0 0 1.09-1.08v-59.67a1.093 1.093 0 0 0-1.09-1.09zm-1.09 59.67h-71.63v-57.5h71.63z" fill-rule="evenodd"/></g><path id="Path_5955" data-name="Path 5955" d="M1607.521 1893.166a25.258 25.258 0 0 1-6.121 3.024 21.591 21.591 0 0 0-2.942 1.079 15.085 15.085 0 0 0-2.731 1.943c-.323.268-.679.624-.6 1.035a9.874 9.874 0 0 0 4.749-.657 11.9 11.9 0 0 0 3.245-1.509 21.592 21.592 0 0 0 2.495-2.365 19.378 19.378 0 0 1 4.333-3.236 3.759 3.759 0 0 1 3.064-.57c.4.155.783.532.7.951a1.143 1.143 0 0 1-.307.506c-2.642 2.961-6.478 4.506-9.778 6.713a2.452 2.452 0 0 0 1.355-.14c4.014-1.268 7.441-3.9 10.62-6.663a.855.855 0 0 1 .445-.249.9.9 0 0 1 .511.17c1.8 1.023 3.922 1.288 5.917 1.852s4.055 1.589 4.92 3.473a2.43 2.43 0 0 1-.081 2.473 2.242 2.242 0 0 1-2.736.371 6.537 6.537 0 0 1-2.1-2.095 4.942 4.942 0 0 0-5.591-2.516c-.269.017-.586.064-.707.305-.167.333.186.684.506.877a10.747 10.747 0 0 0 2.458 1.085c.409.121.888.275 1.022.68a.864.864 0 0 1-.466.958 2.508 2.508 0 0 1-1.122.223q-11.433.477-22.881.14l28.081-.517" fill="none" stroke="#fff" stroke-miterlimit="10" stroke-width=".5" fill-rule="evenodd"/><path id="Path_5956" data-name="Path 5956" d="M1602.938 1869.385l.733-.751a9.889 9.889 0 0 1 2.457-2.026 7.143 7.143 0 0 1 3.7-.624c1.264.077 2.509.342 3.765.5a21.962 21.962 0 0 0 3.871.135.786.786 0 0 1 .485.077.727.727 0 0 1 .246.489 6.122 6.122 0 0 1 .042 2.082c-.093.612-.444 1.339-1.063 1.316a1.111 1.111 0 0 1-.482-.153c-.515-.278-.925-.73-1.457-.973a4.251 4.251 0 0 0-1.768-.256l-6.469-.017a4.588 4.588 0 0 0-1.838.247 3.111 3.111 0 0 0-1.67 2.624 1.031 1.031 0 0 0 .062.552c.182.374.676.442 1.091.455 3.876.12 7.843-.331 11.57.742a2.5 2.5 0 0 1 1.634 1.055 2.705 2.705 0 0 1 .217 1.109 1.741 1.741 0 0 1-.19 1.114 1.6 1.6 0 0 1-1.386.478c-2.914-.06-5.585-1.559-8.419-2.239a6.052 6.052 0 0 0-4.15.2 2.382 2.382 0 0 0-1.017.914 1.385 1.385 0 0 0-.046 1.327 2.058 2.058 0 0 0 1.427.828c3.555.8 7.4-.285 10.846.9a3.308 3.308 0 0 1 2.443 2.374 2.578 2.578 0 0 1-.34 1.533 3.708 3.708 0 0 1-4.355 1.656 9.176 9.176 0 0 1-2.394-1.576 10.649 10.649 0 0 0-7.32-2.5.586.586 0 0 0-.5.234c-.1.2.051.445.229.589a3.056 3.056 0 0 0 1.742.5 29.659 29.659 0 0 0 8.507-.643 2.4 2.4 0 0 1 1-.085.779.779 0 0 1 .654.677c.007.465-.517.735-.964.862-2.251.643-4.65.534-6.942 1.008a2.274 2.274 0 0 0-.99.39.867.867 0 0 0-.318.951 1.2 1.2 0 0 0 .305.4 6.5 6.5 0 0 0 4.786 1.981 4.162 4.162 0 0 0 3.841-3.127" fill="none" stroke="#fff" stroke-miterlimit="10" stroke-width="1" fill-rule="evenodd"/><g id="Group_494" data-name="Group 494" transform="translate(-2020)"><path id="Path_5957" data-name="Path 5957" d="M3613.416 1904.839a2.961 2.961 0 0 1-2.009-.782 3.124 3.124 0 0 1-.928-2.489l-.006-2.677a8.5 8.5 0 0 1 5.235-6.752l5.028-.966 1.6-2.319a1.644 1.644 0 0 1 1.142-.7 1.7 1.7 0 0 1 1.285.381l5.832 4.982 5.98-5a1.733 1.733 0 0 1 1.278-.367 1.653 1.653 0 0 1 1.132.7l1.5 2.181 5.435 1.372a8.507 8.507 0 0 1 4.873 8.964 3.461 3.461 0 0 1-3.307 3.406h-33.457a3.028 3.028 0 0 1-.613.066zm3.141-9.528a5.224 5.224 0 0 0-2.811 3.839l.018 2.351a4.2 4.2 0 0 1 .264-.014h33.417c-.067 0 .053-.022.078-.469.04-.326.547-3.937-2.729-5.537l-5.718-1.408a1.635 1.635 0 0 1-.954-.661l-.826-1.2-5.66 4.728a1.653 1.653 0 0 1-2.125-.013l-5.5-4.7-.946 1.367a1.646 1.646 0 0 1-1.05.684l-5.461 1.032z"/><path id="Path_5958" data-name="Path 5958" d="M3626.72 1900.965a1.414 1.414 0 0 1-.146-.005 1.633 1.633 0 0 1-1.179-.661l-5.012-6.788 2.65-1.958 3.908 5.3 2.509-2.373a1.654 1.654 0 0 1 2.248-.014l2.6 2.4 3.966-5.345 2.646 1.966-5.059 6.815a1.649 1.649 0 0 1-2.44.228l-2.818-2.6-2.742 2.592a1.642 1.642 0 0 1-1.131.443z"/><path id="Path_5959" data-name="Path 5959" d="M3631.122 1903.534l-.523-2.091-.451 2.042-3.218-.706.778-3.522a1.646 1.646 0 0 1 1.608-1.291h2.521a1.642 1.642 0 0 1 1.6 1.242l.883 3.522z"/><path id="Path_5960" data-name="Path 5960" d="M3631.745 1901.255h-2.429a1.637 1.637 0 0 1-1.048-.375 3.522 3.522 0 0 1-1.15-3.982 1.62 1.62 0 0 1 .4-.6l1.931-1.823a1.654 1.654 0 0 1 2.248-.014l1.973 1.824a1.642 1.642 0 0 1 .5.92 3.477 3.477 0 0 1-1.714 3.888 1.649 1.649 0 0 1-.711.162zm-1.191-3.289h.078l-.04-.04z"/><path id="Path_5961" data-name="Path 5961" d="M3630.751 1891.714a10.648 10.648 0 0 1-6.2-2.118 14.4 14.4 0 0 1-4.483-10.355 16.343 16.343 0 0 1 2.222-8.576 1.651 1.651 0 0 1 1.152-.751c.358-.036 8.7-1.22 15.284 2.1a1.605 1.605 0 0 1 .691.657l1.6 2.811a1.6 1.6 0 0 1 .188.51 15.838 15.838 0 0 1-4.176 13.026.386.386 0 0 1-.048.05 8.692 8.692 0 0 1-6.23 2.646zm-6.034-18.627a13.519 13.519 0 0 0-1.365 6.2 10.959 10.959 0 0 0 3.374 7.847c.278.188 4.331 3.079 7.926-.4a12.571 12.571 0 0 0 3.35-9.9l-1.2-2.1c-4.489-2.067-10.038-1.821-12.085-1.647z"/><path id="Path_5962" data-name="Path 5962" d="M3620.222 1878.276a11.482 11.482 0 0 1-.7-1.967 35.477 35.477 0 0 1-.935-6.091 7.6 7.6 0 0 1 2.079-5.667 5.862 5.862 0 0 1 3.369-1.555 10.241 10.241 0 0 1 8.105-1.1 31.706 31.706 0 0 0 7.992 1.175 1.82 1.82 0 0 1 1.6 1.126c1.443 4.344-.664 11.24-.91 12.013l-3.139-1c.507-1.6 1.568-5.939 1.168-8.879a36.325 36.325 0 0 1-7.664-1.283 6.782 6.782 0 0 0-5.644.9 2.061 2.061 0 0 1-1.019.309c-.586 0-2.586.281-2.648 3.888a33.189 33.189 0 0 0 .822 5.309 8.3 8.3 0 0 0 .492 1.4z"/><path id="Path_5963" data-name="Path 5963" d="M3622.067 1884.268h-1.724a2.928 2.928 0 0 1-2.926-3.217v-3.995a3.018 3.018 0 0 1 1.133-2.128 3.656 3.656 0 0 1 2.813-.616l-.464 3.262-.188-.054v3.459h1.358z"/><path id="Path_5964" data-name="Path 5964" d="M3640.808 1884.268h-1.723v-3.289h1.359v-3.553c-.112-.1-.277-.1-.554-.013l-1-3.137a3.8 3.8 0 0 1 3.144.2 3.572 3.572 0 0 1 1.66 2.2l.045 4.446a2.981 2.981 0 0 1-.8 2.244 3.059 3.059 0 0 1-2.131.902z"/></g></g></svg>