<svg xmlns="http://www.w3.org/2000/svg" width="25.5" height="24.214" viewBox="0 0 25.5 24.214"><g id="Group_873" data-name="Group 873" transform="translate(-1054.044 -3518.897)" fill="#ed2939"><path id="Path_2581" data-name="Path 2581" d="M1067.438 3543.111a1.5 1.5 0 0 1-1.061-2.561l9.546-9.546-9.546-9.546a1.5 1.5 0 0 1 2.121-2.121l10.607 10.607a1.5 1.5 0 0 1 0 2.121l-10.607 10.606a1.494 1.494 0 0 1-1.06.44z"/><path id="Path_2582" data-name="Path 2582" d="M1078.044 3532.5h-22.5a1.5 1.5 0 0 1 0-3h22.5a1.5 1.5 0 0 1 0 3z"/></g></svg>