<svg xmlns="http://www.w3.org/2000/svg" width="718.196" height="714.812" viewBox="0 0 718.196 714.812"><g id="Group_889" data-name="Group 889" transform="translate(-1041.829 -256.956)"><g id="Group_204" data-name="Group 204" transform="translate(1041.829 256.956)" fill="#ea7468"><ellipse id="Ellipse_15" data-name="Ellipse 15" cx="110.141" cy="110.141" rx="110.141" ry="110.141" transform="translate(412.563)"/><ellipse id="Ellipse_16" data-name="Ellipse 16" cx="31.621" cy="31.621" rx="31.621" ry="31.621" transform="translate(6.88 558.481)"/><ellipse id="Ellipse_17" data-name="Ellipse 17" cx="31.621" cy="31.621" rx="31.621" ry="31.621" transform="translate(130.542 148.045)"/><ellipse id="Ellipse_18" data-name="Ellipse 18" cx="63.242" cy="63.242" rx="63.242" ry="63.242" transform="translate(0 354.622)"/><ellipse id="Ellipse_19" data-name="Ellipse 19" cx="31.621" cy="31.621" rx="31.621" ry="31.621" transform="translate(10.731 165.364)"/><ellipse id="Ellipse_20" data-name="Ellipse 20" cx="31.621" cy="31.621" rx="31.621" ry="31.621" transform="translate(413.751 276.439)"/><ellipse id="Ellipse_21" data-name="Ellipse 21" cx="63.242" cy="63.242" rx="63.242" ry="63.242" transform="translate(187.335 226.707)"/><ellipse id="Ellipse_22" data-name="Ellipse 22" cx="31.621" cy="31.621" rx="31.621" ry="31.621" transform="translate(559.049 499.485)"/><ellipse id="Ellipse_23" data-name="Ellipse 23" cx="63.242" cy="63.242" rx="63.242" ry="63.242" transform="translate(591.712 298.087)"/></g><g id="Group_214" data-name="Group 214" transform="translate(1513.001 305.351)"><g id="Group_205" data-name="Group 205"><path id="Path_611" data-name="Path 611" d="M1622.453 215.926h-86.24v-3.013h86.24l1.505 1.506-1.505 1.506zm0-3.013a1.506 1.506 0 0 1 0 3.013v-3.013zm-1.506 9.581v-8.075h3.012v8.075h-3.012zm3.012 0a1.506 1.506 0 1 1-3.012 0zm-3.012 84.405v-84.405h3.012V306.9l-.451 1.076-2.56-1.076zm3.012 0a1.506 1.506 0 0 1-3.012 0zm-21.85 17.837l19.29-18.912 2.109 2.151-19.29 18.911-1.055.431-1.054-2.581zm2.109 2.15a1.506 1.506 0 1 1-2.109-2.15l2.109 2.15zm-68.57-2.581h67.516v3.012h-67.516l-1.506-1.513 1.506-1.5zm0 3.012a1.506 1.506 0 1 1 0-3.012v3.012zm2.072-112.891l-.566 111.392-3.013-.014.567-111.393 1.506-1.5 1.505 1.514zm-3.012-.015a1.506 1.506 0 1 1 3.012.015z" transform="translate(-1534.14 -212.913)" fill="#fff" fill-rule="evenodd"/></g><g id="Group_206" data-name="Group 206" transform="translate(68.287 93.236)"><path id="Path_612" data-name="Path 612" d="M1610.807 315.535h18.52v3.012h-18.52l-1.506-1.506 1.506-1.505zm0 3.012a1.506 1.506 0 1 1 0-3.012v3.012zM1609.3 335.2v-18.16h3.012v18.16z" transform="translate(-1609.301 -315.535)" fill="#fff" fill-rule="evenodd"/></g><g id="Group_207" data-name="Group 207" transform="translate(16.484 8.24)"><path id="Path_613" data-name="Path 613" d="M1552.283 335.73v-9.09h3.012v9.09l-1.506 1.506-1.505-1.506zm3.012 0a1.506 1.506 0 1 1-3.012 0zm82.065 1.506h-83.571v-3.013h83.571l1.506 1.506-1.506 1.506zm0-3.013a1.506 1.506 0 1 1 0 3.013v-3.013zm1.506-110.736V335.73h-3.012V223.488l1.505-1.506 1.506 1.506zm-3.012 0a1.506 1.506 0 1 1 3.012 0zm-11.742-1.506h13.247v3.012h-13.247z" transform="translate(-1552.283 -221.982)" fill="#fff" fill-rule="evenodd"/></g><g id="Group_208" data-name="Group 208" transform="translate(11.282 10.668)"><path id="Path_614" data-name="Path 614" d="M1612.313 227.667h-64.256v-3.012h64.256l1.5 1.505-1.5 1.506zm0-3.012a1.506 1.506 0 0 1 0 3.012v-3.012zm-1.5 16.294V226.16h3v14.788l-1.5 1.505-1.5-1.505zm3 0a1.5 1.5 0 1 1-3 0zm-65.755-1.506h64.256v3.012h-64.256l-1.5-1.505 1.5-1.506zm0 3.012a1.506 1.506 0 0 1 0-3.012v3.012zm1.5-16.294v14.788h-3V226.16l1.5-1.505 1.5 1.505zm-3 0a1.5 1.5 0 1 1 3 0z" transform="translate(-1546.558 -224.655)" fill="#fff" fill-rule="evenodd"/></g><path id="Rectangle_164" data-name="Rectangle 164" transform="translate(12.85 85.384)" fill="#fff" d="M0 0h64.115v3.015H0z"/><path id="Rectangle_165" data-name="Rectangle 165" transform="translate(12.85 93.052)" fill="#fff" d="M0 0h33.635v3.015H0z"/><g id="Group_209" data-name="Group 209" transform="translate(51.741 93.056)"><path id="Rectangle_166" data-name="Rectangle 166" fill="#fff" d="M0 0h10.247v3.01H0z"/></g><g id="Group_210" data-name="Group 210" transform="translate(12.851 100.714)"><path id="Rectangle_167" data-name="Rectangle 167" fill="#fff" d="M0 0h49.136v3.026H0z"/></g><path id="Path_615" data-name="Path 615" d="M1558.175 297.557h-10.043a1.506 1.506 0 0 1-1.506-1.508v-7.659a1.506 1.506 0 0 1 1.506-1.508h10.043a1.506 1.506 0 0 1 1.506 1.508v7.659a1.506 1.506 0 0 1-1.506 1.508zm-8.538-3.015h7.033V289.9h-7.033z" transform="translate(-1535.282 -219.678)" fill="#fff"/><g id="Group_211" data-name="Group 211" transform="translate(29.392 56.713)"><path id="Path_616" data-name="Path 616" d="M1578.041 278.335H1568v-3h10.044l1.506 1.5-1.506 1.5zm0-3a1.5 1.5 0 1 1 0 3v-3zm-1.505 19.657v-18.156h3.012v18.156l-1.506 1.5-1.505-1.5zm3.012 0a1.506 1.506 0 0 1-3.012 0zm-11.55-1.5h10.044v3H1568l-1.506-1.5 1.506-1.5zm0 3a1.5 1.5 0 1 1 0-3v3zm1.505-19.656v18.156h-3.012v-18.156l1.506-1.5 1.505 1.5zm-3.012 0a1.506 1.506 0 0 1 3.012 0z" transform="translate(-1566.491 -275.335)" fill="#fff" fill-rule="evenodd"/></g><g id="Group_212" data-name="Group 212" transform="translate(47.44 45.265)"><path id="Path_617" data-name="Path 617" d="M1597.905 265.761h-10.044v-3.026h10.044l1.506 1.513-1.506 1.514zm0-3.026a1.513 1.513 0 0 1 0 3.026v-3.026zm-1.505 31.1v-29.587h3.012v29.592l-1.506 1.513-1.505-1.513zm3.012 0a1.506 1.506 0 1 1-3.012 0zm-11.55-1.514h10.044v3.026h-10.044l-1.505-1.513 1.505-1.514zm0 3.026a1.513 1.513 0 0 1 0-3.026v3.026zm1.506-31.1v29.593h-3.012v-29.592l1.505-1.513 1.506 1.513zm-3.012 0a1.506 1.506 0 1 1 3.012 0z" transform="translate(-1586.356 -262.735)" fill="#fff" fill-rule="evenodd"/></g><g id="Group_213" data-name="Group 213" transform="translate(65.501 34.228)"><path id="Path_618" data-name="Path 618" d="M1617.771 253.593h-10.044v-3.007h10.044l1.492 1.5-1.492 1.5zm0-3.007a1.5 1.5 0 0 1 0 3.007v-3.007zm-1.491 42.143V252.09h2.983v40.639l-1.492 1.5-1.491-1.5zm2.983 0a1.491 1.491 0 1 1-2.983 0zm-11.536-1.5h10.044v3.008h-10.044l-1.492-1.5 1.492-1.5zm0 3.008a1.5 1.5 0 0 1 0-3.008v3.008zm1.492-42.143v40.639h-2.984V252.09l1.492-1.5 1.492 1.5zm-2.984 0a1.492 1.492 0 1 1 2.984 0z" transform="translate(-1606.235 -250.586)" fill="#fff" fill-rule="evenodd"/></g></g><g id="Group_225" data-name="Group 225" transform="translate(1180.959 625.567)"><g id="Group_216" data-name="Group 216" transform="translate(313.169 62.27)"><g id="Group_215" data-name="Group 215" transform="translate(0 66.508)" fill="#cbcbcb"><path id="Path_619" data-name="Path 619" d="M1522.209 707.105h29.248l-4.333 31.422h-20.365z" transform="translate(-1514.176 -707.105)"/><path id="Path_620" data-name="Path 620" d="M1525.251 732c-1.839 0-6.094-.271-9-2.568a7.414 7.414 0 0 1-2.885-6.1 7.872 7.872 0 0 1 2.971-6.551c3.185-2.494 7.687-2.165 7.879-2.152l-.356 3.414a8.131 8.131 0 0 0-4.844 1.283 4.813 4.813 0 0 0-1.652 4.007 4.265 4.265 0 0 0 1.6 3.582c2.4 1.9 6.813 1.646 6.857 1.646l.327 3.415c-.058.002-.381.024-.897.024z" transform="translate(-1513.367 -707.792)"/></g><path id="Path_621" data-name="Path 621" d="M1536.8 694.472a32.794 32.794 0 0 1-5.667-6.214 22.243 22.243 0 0 1-3.6-8.269 16.313 16.313 0 0 1 1.249-10.068 21.973 21.973 0 0 1 6.149-7.612c.661-.54 1.054-.9 1.508-1.3l1.318-1.2c.861-.8 1.691-1.614 2.449-2.424a15.42 15.42 0 0 0 3.23-4.473c.181-.542.067-.831-.171-.517-.224.287-.221.895-.4.813-.284-.123-1.749-1.555-3.506-2.87a9.128 9.128 0 1 1 12.511-13.119l.282.35c.892 1.093 1.831 2.264 2.81 3.665a24.32 24.32 0 0 1 2.9 5.3 14.7 14.7 0 0 1 .721 8.159 15.052 15.052 0 0 1-3.076 6.372 29.848 29.848 0 0 1-7.324 6.23 66.11 66.11 0 0 1-3.571 2.119l-3.366 1.8a12.377 12.377 0 0 0-4.078 3.288 7.26 7.26 0 0 0-1.495 4.5c-.033 3.6 2.134 8.157 4.8 11.645l.146.191a2.647 2.647 0 0 1-3.824 3.62z" transform="translate(-1514.636 -633.902)" fill="#fff"/></g><g id="Group_217" data-name="Group 217" transform="translate(203.949 316.463)"><path id="Path_622" data-name="Path 622" d="M1393.152 943.421s20.145-.727 42.558-.727c20.773 0 41.532.727 41.532.727l-1.629-3.617c-7.162-15.9-34.263-9.714-40.415-26.122-5.127 16.407-33.253 10.223-40.416 26.122z" transform="translate(-1393.152 -913.683)" fill="#b4b4b4"/></g><g id="Group_218" data-name="Group 218" transform="translate(240.866 217.133)"><path id="Rectangle_168" data-name="Rectangle 168" transform="rotate(180 5.64 54.9)" fill="#b4b4b4" d="M0 0h11.281v109.799H0z"/></g><g id="Group_219" data-name="Group 219" transform="translate(226.51 215.897)"><path id="Rectangle_169" data-name="Rectangle 169" transform="rotate(180 19.997 8.115)" fill="#a2a2a2" d="M0 0h39.994v16.229H0z"/></g><g id="Group_220" data-name="Group 220" transform="translate(197.742 202.008)"><path id="Rectangle_170" data-name="Rectangle 170" d="M0 0h100.841v.488a19 19 0 0 1-19 19H19a19 19 0 0 1-19-19V0z" transform="rotate(180 50.42 9.742)" fill="#ed2939"/></g><path id="Path_623" data-name="Path 623" d="M1467.633 783.384s8.942-9.154 3.191-40.554h-73.429a338.19 338.19 0 0 0 .644 40.554z" transform="translate(-1189.562 -581.594)" fill="#342d51"/><path id="Path_624" data-name="Path 624" d="M1412.86 755.167c-36.807 2.29-105.324 11.077-117.833 34.04-3.755 6.891-5.9 16.151-.135 21.656 22.348 21.331 28.775 30.213 67.915 68.341.278.271-.367.132 0 0l15.383-9.147c.615-.216.348.553 0 0-32.239-51.007-39.419-58.165-51.485-65.308 11.608-5.63 45.3-14.241 82.063-17.758a14.669 14.669 0 0 0 13.169-16c-.773-8.07-1.059-16.322-9.077-15.824z" transform="translate(-1179.891 -582.721)" fill="#342d51"/><g id="Group_221" data-name="Group 221" transform="translate(141.868 167.592)"><path id="Path_625" data-name="Path 625" d="M1459.889 758.24c-1.083-7.488-12.315-8.8-19.864-8.328-83.071 5.253-94.811 17.005-98.665 21.594-3.146 3.748-3.28 8.386-3.806 13.126-2.839 25.609-6.769 70.469-12.732 107.275 6.116 1.071 17.728 2.763 26.067 4.222 0 0 12.68-60.291 16.369-96.853 15.125-3.2 56.474-6.966 89.637-13.511 11.317-2.234 4.55-16.777 2.994-27.525z" transform="translate(-1324.822 -749.826)" fill="#483c6c"/></g><path id="Path_626" data-name="Path 626" d="M1339.012 941.7l3.978-29.844-19.581.4-2.754 11.5-23.856 5.772a9.227 9.227 0 0 0-6.986 8.4v3.77z" transform="translate(-1179.752 -597.053)" fill="#1c1c1c"/><path id="Rectangle_171" data-name="Rectangle 171" transform="rotate(-80.56 254.013 77.498)" fill="#2a244f" d="M0 0h12.471v34.71H0z"/><path id="Path_627" data-name="Path 627" d="M1401.849 901.6l-15.549-18.833-15.782 9.745 8.561 9.194-17.89 15.688a9.2 9.2 0 0 0-4.041 9.333 4.484 4.484 0 0 0 .693 1.665l2.665 4.113s40.41-25.051 40.605-25.528c-.005 0 2.489-3.052.738-5.377z" transform="translate(-1185.897 -594.393)" fill="#1c1c1c"/><path id="Rectangle_172" data-name="Rectangle 172" transform="rotate(-34.185 564.919 -134.542)" fill="#2a244f" d="M0 0h30.562v12.471H0z"/><path id="Path_628" data-name="Path 628" d="M1378.4 725.485c-.279.035-.562.061-.847.074l-66.02 3.2-1.046-21.58 59.144-2.866c7.981-19.615 20.752-43.383 20.752-43.383-.075.283.664 0 .664 0l20.628-1.922c1.919 4.929-2.525 5.851-24.648 59.855a10.808 10.808 0 0 1-8.627 6.622z" transform="translate(-1181.643 -573.928)" fill="#d49a00"/><path id="Path_629" data-name="Path 629" d="M1441.644 648.144l2.1.5a23.608 23.608 0 0 1 17.84 18.969l12.3 76.437c-54.151 13.791-79.637 1.239-79.637 1.239l2.235-76.238a20.744 20.744 0 0 1 12.837-20.32z" transform="translate(-1189.303 -572.935)" fill="#ffb900"/><path id="Path_630" data-name="Path 630" d="M1436.1 651.79l-17.77-2.721-.665-38.241 17.77 2.721z" transform="translate(-1191.445 -569.522)" fill="#d99b7a"/><path id="Path_631" data-name="Path 631" d="M1413.752 648.668l27.467-.5s-1.3 15.94-17.75 14.57c-15.042-1.253-9.717-14.07-9.717-14.07z" transform="translate(-1191.004 -572.937)" fill="#d48062"/><g id="Group_222" data-name="Group 222" transform="translate(151.722 141.466)" fill="#ddb7a3"><path id="Path_632" data-name="Path 632" d="M1357.322 731.556a10.835 10.835 0 1 1-10.758-10.485 10.635 10.635 0 0 1 10.758 10.485z" transform="translate(-1335.668 -721.071)"/><path id="Path_633" data-name="Path 633" d="M1365.442 737.344l-11.26-.069a5.263 5.263 0 0 1-5.315-5.18 5.268 5.268 0 0 1 5.383-5.113l11.26.069a5.263 5.263 0 0 1 5.315 5.18 5.27 5.27 0 0 1-5.383 5.113z" transform="translate(-1336.875 -721.611)"/></g><path id="Path_634" data-name="Path 634" d="M1366.76 737.545l-1.321-20.749 59.428-3.5L1436 662.6a10.936 10.936 0 0 1 13.948-5.995 10.278 10.278 0 0 1 6.23 13.42l-13.615 56.951a10.771 10.771 0 0 1-9.428 6.661z" transform="translate(-1186.669 -573.645)" fill="#ffb900"/><path id="Path_635" data-name="Path 635" d="M1387 738.461l45.641-2.686a14.706 14.706 0 0 0 11.9-8.925l12.527-49.145-10.445 55.635a8.942 8.942 0 0 1-8.385 6.207l-45.708 2.913z" transform="translate(-1188.641 -575.638)" fill="#d7d7d7"/><path id="Rectangle_173" data-name="Rectangle 173" d="M0 0h42.131v30.851a21.065 21.065 0 0 1-21.066 21.066A21.065 21.065 0 0 1 0 30.851V0z" transform="rotate(2.837 -226.745 4132.88)" fill="#d99b7a"/><path id="Path_636" data-name="Path 636" d="M1431.594 606.88a31.813 31.813 0 0 1-9.895-20.929s-35.055 8.817-36.159-5.8c-1.019-13.478 13.823-17.572 24.959-12.966 5.875 2.43 16.854 8.239 24.3 10.077a12.262 12.262 0 0 1 7.422 5.148c2.833 4.387 4.831 11.617-4.664 18.967z" transform="translate(-1188.502 -565.364)"/><path id="Path_637" data-name="Path 637" d="M1398.642 607.405a2.321 2.321 0 1 1-2.373-2.2 2.29 2.29 0 0 1 2.373 2.2z" transform="translate(-1189.281 -569.007)" fill="#1c1c1c"/><path id="Path_638" data-name="Path 638" d="M1415.837 607a2.321 2.321 0 1 1-2.373-2.2 2.29 2.29 0 0 1 2.373 2.2z" transform="translate(-1190.854 -568.97)" fill="#1c1c1c"/><path id="Path_639" data-name="Path 639" d="M1418.752 600.544a2.37 2.37 0 0 0-.273-4.729l-9.105.216a2.369 2.369 0 1 0 .112 4.737l9.105-.216c.054-.001.109-.004.161-.008z" transform="translate(-1190.475 -568.148)"/><path id="Path_640" data-name="Path 640" d="M1398.191 601.039a2.369 2.369 0 0 0-.273-4.728l-5.9.141a2.369 2.369 0 1 0 .112 4.737l5.9-.141c.053-.001.108-.004.161-.009z" transform="translate(-1188.887 -568.194)"/><path id="Path_641" data-name="Path 641" d="M1403.5 609.164l-5.338 5.119a1.049 1.049 0 0 0 .624 1.793l6.132.8-1.418-7.716z" transform="translate(-1189.632 -569.369)" fill="#c88b6b"/><path id="Path_642" data-name="Path 642" d="M1427.837 603.6s-.284 19.622-12.574 16.161c-22.411-6.311-23.311 1.077-23.311 1.077s1.29 18.528 18.82 18.585c0 0 13.76 1.873 19.586-8.217 0 0 7-8.99 3.6-28.165z" transform="translate(-1189.093 -568.809)"/><path id="Path_643" data-name="Path 643" d="M1449.632 611.2a7.273 7.273 0 1 1-6.9-7.625 7.272 7.272 0 0 1 6.9 7.625z" transform="translate(-1193.039 -568.857)" fill="#d99b7a"/><g id="Group_223" data-name="Group 223" transform="translate(40.028 84.912)"><path id="Path_644" data-name="Path 644" d="M1292.335 658.823l25.379 68.208h-82.484l-22.152-60.618a5.65 5.65 0 0 1 5.307-7.59z" transform="translate(-1212.73 -658.823)" fill="#a5a5a5"/><path id="Path_645" data-name="Path 645" d="M1300.348 658.823h3.948a5.063 5.063 0 0 1 4.751 3.312l23.931 64.9h-7.251z" transform="translate(-1220.743 -658.823)" fill="#bfbfbf"/><path id="Rectangle_174" data-name="Rectangle 174" d="M0 0h82.257v6.571H6.571A6.571 6.571 0 0 1 0 0z" transform="translate(22.727 68.207)" fill="#989898"/><path id="Path_646" data-name="Path 646" d="M1328.282 740.469h50.9a3.287 3.287 0 0 0 3.286-3.286 3.286 3.286 0 0 0-3.286-3.285h-50.9z" transform="translate(-1223.298 -665.689)" fill="#bfbfbf"/><path id="Path_647" data-name="Path 647" d="M1274.423 695.483c1.56 4.713-.323 9.575-4.206 10.861s-8.3-1.493-9.856-6.205.323-9.575 4.2-10.861 8.301 1.491 9.862 6.205z" transform="translate(-1217.036 -661.58)" fill="#fff"/></g><g id="Group_224" data-name="Group 224" transform="translate(0 159.691)"><path id="Rectangle_175" data-name="Rectangle 175" fill="#724141" d="M0 0h297.687v11.264H0z"/><path id="Rectangle_176" data-name="Rectangle 176" transform="translate(297.687)" fill="#804e4e" d="M0 0h85.888v11.264H0z"/><path id="Rectangle_177" data-name="Rectangle 177" transform="translate(23.033 11.264)" fill="#cbcbcb" d="M0 0h8.555v174.857H0z"/><path id="Rectangle_178" data-name="Rectangle 178" transform="translate(79.818 11.264)" fill="#b4b4b4" d="M0 0h8.555v174.857H0z"/><path id="Rectangle_179" data-name="Rectangle 179" transform="translate(297.687 11.264)" fill="#cbcbcb" d="M0 0h8.555v174.857H0z"/><path id="Rectangle_180" data-name="Rectangle 180" transform="translate(354.472 11.264)" fill="#b4b4b4" d="M0 0h8.555v174.857H0z"/><path id="Rectangle_181" data-name="Rectangle 181" transform="translate(354.472 11.264)" fill="#a1a1a1" opacity=".8" d="M0 0h8.555v5.983H0z"/><path id="Rectangle_182" data-name="Rectangle 182" transform="translate(297.687 11.264)" fill="#a1a1a1" opacity=".8" d="M0 0h8.555v5.983H0z"/><path id="Rectangle_183" data-name="Rectangle 183" transform="translate(79.818 11.264)" fill="#a1a1a1" opacity=".8" d="M0 0h8.555v5.983H0z"/><path id="Rectangle_184" data-name="Rectangle 184" transform="translate(23.033 11.264)" fill="#a1a1a1" opacity=".8" d="M0 0h8.555v5.983H0z"/></g><path id="Rectangle_185" data-name="Rectangle 185" transform="translate(240.866 232.127)" fill="#a1a1a1" opacity=".8" d="M0 0h11.281v8.617H0z"/></g><g id="Group_229" data-name="Group 229" transform="translate(1066.405 642.912)"><g id="Group_226" data-name="Group 226" transform="translate(8.793 32.074)"><path id="Path_648" data-name="Path 648" d="M1080.505 621.279l-27.264 7.475-.41-1.495 27.263-7.475.949.543-.539.951zm-.41-1.495a.775.775 0 0 1 .41 1.495l-.41-1.495zm6.976 28.36l-7.515-27.409 1.487-.408 7.514 27.409-.539.951-.948-.543zm1.487-.408a.771.771 0 1 1-1.487.408l1.487-.408zm-28.211 6.931l27.263-7.474.41 1.494-27.263 7.475-.948-.543.539-.951zm.41 1.495a.775.775 0 0 1-.41-1.495l.41 1.495zm-6.976-28.36l7.515 27.409-1.487.408-7.515-27.409.539-.951.948.543zm-1.487.408a.771.771 0 1 1 1.487-.408z" transform="translate(-1052.266 -619.757)" fill="#fff" fill-rule="evenodd"/></g><path id="Path_649" data-name="Path 649" d="M1075.59 635.671l-9.244 2.535a.771.771 0 0 1-.948-.541l-3.185-11.62 1.486-.407 2.982 10.875 7.758-2.127-2.982-10.875 1.487-.408 3.185 11.62a.771.771 0 0 1-.539.948z" transform="translate(-1044.382 -587.989)" fill="#fff"/><path id="Rectangle_186" data-name="Rectangle 186" transform="rotate(-15.31 148.11 -65.132)" fill="#fff" d="M0 0h1.542v12.049H0z"/><g id="Group_227" data-name="Group 227" transform="translate(41.012 23.241)"><path id="Path_650" data-name="Path 650" d="M1115.968 611.557l-27.268 7.473-.41-1.494 27.263-7.475.949.543-.539.951zm-.41-1.495a.775.775 0 0 1 .41 1.495l-.41-1.495zm6.976 28.36l-7.515-27.409 1.487-.408 7.513 27.409-.539.951-.948-.543zm1.486-.408a.771.771 0 1 1-1.486.408l1.486-.408zm-28.211 6.931l27.263-7.475.41 1.495-27.263 7.474-.948-.542.539-.951zm.41 1.494a.774.774 0 0 1-.41-1.494l.41 1.494zm-6.976-28.359l7.515 27.409-1.487.408-7.515-27.41.539-.95.948.543zm-1.487.407a.771.771 0 1 1 1.487-.407z" transform="translate(-1087.729 -610.035)" fill="#fff" fill-rule="evenodd"/></g><path id="Path_651" data-name="Path 651" d="M1111.053 625.949l-9.245 2.534a.771.771 0 0 1-.947-.54l-3.185-11.62 1.486-.407 2.981 10.875 7.757-2.127-2.981-10.875 1.486-.408 3.185 11.62a.771.771 0 0 1-.537.948z" transform="translate(-1047.626 -587.1)" fill="#fff"/><path id="Rectangle_187" data-name="Rectangle 187" transform="rotate(-15.31 131.363 -189.429)" fill="#fff" d="M0 0h1.542v12.049H0z"/><g id="Group_228" data-name="Group 228"><path id="Path_652" data-name="Path 652" d="M1070.826 585.976l-27.263 7.475-.41-1.494 27.263-7.475.948.543-.539.95zm-.409-1.494a.774.774 0 0 1 .409 1.494l-.409-1.494zm6.975 28.36l-7.514-27.409 1.486-.408 7.515 27.409-.539.951-.948-.543zm1.487-.408a.771.771 0 1 1-1.487.408l1.487-.408zm-28.211 6.931l27.263-7.475.41 1.495-27.263 7.474-.948-.543.539-.95zm.41 1.494a.774.774 0 0 1-.41-1.494l.41 1.494zM1044.1 592.5l7.514 27.41-1.486.407-7.515-27.409.539-.95.948.542zm-1.487.408a.771.771 0 1 1 1.487-.408z" transform="translate(-1042.588 -584.455)" fill="#fff" fill-rule="evenodd"/></g><path id="Path_653" data-name="Path 653" d="M1065.912 600.369l-9.244 2.534a.771.771 0 0 1-.948-.541l-3.185-11.619 1.486-.408 2.979 10.876 7.758-2.127-2.982-10.876 1.486-.407 3.186 11.619a.771.771 0 0 1-.536.949z" transform="translate(-1043.497 -584.761)" fill="#fff"/><path id="Rectangle_188" data-name="Rectangle 188" transform="rotate(-15.31 24.376 -48.461)" fill="#fff" d="M0 0h1.542v12.049H0z"/></g><g id="Group_243" data-name="Group 243" transform="translate(1059.73 826.331)"><g id="Group_230" data-name="Group 230"><path id="Path_654" data-name="Path 654" d="M1076.216 801.2l-25.244-14 .376-.678 25.244 14-.376.679zm.928 1.249l-.676-.375.016-.029.014-.03.012-.03.01-.03.009-.03.006-.031.006-.032v-.186l-.005-.029-.006-.032-.008-.03-.009-.03-.011-.031-.012-.027-.013-.026-.016-.029-.016-.027-.017-.025-.018-.024-.02-.025-.022-.024-.022-.023-.024-.021-.025-.02-.026-.019-.027-.018-.029-.016.376-.679.064.037.06.039.056.042.055.045.053.047.049.049.046.052.044.054.041.055.039.057.035.058.032.059.03.063.026.064.023.063.021.065.017.065.014.065.011.067.007.07v.204l-.005.068-.009.07-.013.068-.015.068-.019.067-.024.068-.026.065-.029.065-.035.065zm-14.678 24.869l14-25.244.676.375-14 25.244-.676-.375zm-1.251.929l.376-.679.029.016.03.014.03.013.03.01.031.009.031.006.031.006h.217l.031-.007.031-.007.029-.009.03-.011.028-.012.027-.014.028-.015.027-.016.025-.017.025-.018.025-.02.024-.022.022-.022.022-.024.019-.024.02-.027.018-.027.016-.028.676.375-.037.064-.04.06-.042.056-.045.056-.048.052-.049.05-.051.046-.055.044-.056.041-.057.038-.059.035-.059.032-.062.03-.063.026-.064.024-.064.02-.066.017-.066.014-.067.011-.068.008h-.205l-.068-.005-.069-.009-.068-.012-.068-.016-.068-.02-.067-.023-.065-.026-.066-.03-.064-.034zm-24.869-14.681l25.245 14-.376.679-25.245-14 .376-.679zm-.928-1.249l.676.374-.015.029-.014.03-.013.031-.01.029-.008.031-.007.03-.006.032v.187l.005.03.007.031.007.03.01.029.01.03.012.028.014.029.015.027.016.026.017.026.019.024.02.025.021.024.023.022.024.022.024.02.027.019.027.018.028.016-.376.679-.063-.037-.06-.04-.057-.042-.055-.045-.052-.046-.05-.05-.046-.051-.044-.054-.042-.055-.038-.057-.035-.059-.032-.06-.029-.061-.027-.063-.023-.064-.021-.065-.016-.066-.014-.066-.011-.067-.007-.067v-.205l.005-.069.009-.069.013-.068.016-.068.02-.068.023-.068.026-.065.03-.065.034-.065zm14.679-24.87l-14 25.244-.676-.374 14-25.245.676.375zm1.251-.928l-.376.678-.029-.015-.03-.014-.031-.012-.029-.01-.031-.009-.031-.007-.031-.005h-.188l-.03.005-.031.006-.03.007-.03.01-.03.011-.028.012-.027.013-.028.015-.027.016-.024.016-.025.019-.024.019-.024.022-.023.022-.021.024-.02.024-.019.027-.018.027-.016.028-.676-.375.036-.064.04-.059.042-.057.046-.055.047-.053.049-.049.052-.047.054-.045.055-.041.058-.038.058-.035.06-.032.062-.03.063-.026.064-.023.064-.021.066-.016.065-.015.068-.011.068-.007h.204l.069.005.069.009.068.013.067.016.068.02.068.023.065.026.065.029.064.035z" transform="translate(-1035.241 -786.338)" fill="#fff" fill-rule="evenodd"/></g><g id="Group_231" data-name="Group 231" transform="translate(12.864 3.226)"><path id="Rectangle_189" data-name="Rectangle 189" transform="rotate(-60.97 .573 .337)" fill="#fff" d="M0 0h.771v30.929H0z"/></g><g id="Group_232" data-name="Group 232" transform="translate(15.195 2.118)"><path id="Rectangle_190" data-name="Rectangle 190" transform="rotate(-60.97 .573 .337)" fill="#fff" d="M0 0h.771v2.722H0z"/></g><g id="Group_233" data-name="Group 233" transform="translate(38.548 15.072)"><path id="Rectangle_191" data-name="Rectangle 191" transform="rotate(-60.97 .574 .338)" fill="#fff" d="M0 0h.771v1.126H0z"/></g><g id="Group_234" data-name="Group 234" transform="translate(3.183 6.63)"><path id="Path_655" data-name="Path 655" d="M1072.125 807.065l-22.909-12.708.374-.674 22.908 12.708.152.524-.525.15zm.373-.674a.385.385 0 1 1-.373.674l.373-.674zm-10.8 18.668l10.273-18.519.676.375-10.272 18.519-.525.15-.152-.525zm.677.375a.387.387 0 0 1-.677-.375l.677.375zm-23.06-13.232l22.908 12.708-.373.674-22.909-12.708-.151-.524.525-.15zm-.374.674a.386.386 0 1 1 .374-.674l-.374.674zm10.8-18.668l-10.272 18.519-.676-.375 10.272-18.519.525-.15.151.525zm-.676-.375a.387.387 0 0 1 .676.375z" transform="translate(-1038.745 -793.635)" fill="#fff" fill-rule="evenodd"/></g><g id="Group_235" data-name="Group 235" transform="translate(5.341 12.641)"><path id="Path_656" data-name="Path 656" d="M1048.441 802.636l-6.6 11.893-.676-.375 6.6-11.893.227-.182.449.557zm-.676-.375a.387.387 0 0 1 .676.375l-.676-.375zm6.579-1.254l-6.13 1.812-.222-.74 6.131-1.812.3.033-.076.707zm-.221-.74a.386.386 0 1 1 .221.74l-.221-.74zm11.764 7.275l-11.84-6.568.373-.674 11.841 6.568.151.525-.525.149zm.374-.674a.386.386 0 1 1-.374.674l.374-.674zm-9.333 16.028l8.807-15.878.676.375-8.807 15.878-.525.15-.151-.525zm.676.375a.387.387 0 0 1-.676-.375l.676.375zM1041.693 814l15.76 8.742-.374.674-15.76-8.742-.151-.525.525-.149zm-.374.674a.386.386 0 1 1 .374-.674z" transform="translate(-1041.12 -800.252)" fill="#fff" fill-rule="evenodd"/></g><g id="Group_236" data-name="Group 236" transform="translate(12.156 12.805)"><path id="Path_657" data-name="Path 657" d="M1052.425 804.209l2.094-3.777.677.375-2.1 3.777-.506.159-.17-.534zm.676.375a.387.387 0 0 1-.676-.375l.676.375zm-4.144-2.466l3.974 1.932-.336.693-3.974-1.932z" transform="translate(-1048.621 -800.432)" fill="#fff" fill-rule="evenodd"/></g><g id="Group_237" data-name="Group 237" transform="translate(23.503 18.2)"><path id="Rectangle_192" data-name="Rectangle 192" transform="rotate(-60.97 .573 .337)" fill="#fff" d="M0 0h.771v4.177H0z"/></g><g id="Group_238" data-name="Group 238" transform="translate(23.67 20.897)"><path id="Rectangle_193" data-name="Rectangle 193" transform="rotate(-60.97 .574 .338)" fill="#fff" d="M0 0h.772v2.722H0z"/></g><g id="Group_239" data-name="Group 239" transform="translate(12.606 18.204)"><path id="Rectangle_194" data-name="Rectangle 194" transform="rotate(-60.97 .573 .337)" fill="#fff" d="M0 0h.771v8.964H0z"/></g><g id="Group_240" data-name="Group 240" transform="translate(10.79 21.478)"><path id="Rectangle_195" data-name="Rectangle 195" transform="rotate(-60.97 .573 .337)" fill="#fff" d="M0 0h.771v13.704H0z"/></g><g id="Group_241" data-name="Group 241" transform="translate(8.933 24.729)"><path id="Rectangle_196" data-name="Rectangle 196" transform="rotate(-60.97 .573 .337)" fill="#fff" d="M0 0h.771v13.704H0z"/></g><g id="Group_242" data-name="Group 242" transform="translate(23.612 20.531)"><path id="Path_658" data-name="Path 658" d="M1069.483 810.976l-2.463-1.366.374-.673 2.462 1.366.151.524-.524.15zm.373-.674a.385.385 0 1 1-.373.674l.373-.674zm-8.627 14.755l8.1-14.606.676.375-8.1 14.606z" transform="translate(-1061.23 -808.936)" fill="#fff" fill-rule="evenodd"/></g></g><g id="Group_251" data-name="Group 251" transform="translate(1064.793 436.091)"><g id="Group_244" data-name="Group 244"><path id="Path_659" data-name="Path 659" d="M1079.317 365.67l-28.828-8.028.215-.775 28.829 8.029-.216.774zm1.236 1.037l-.772-.215.008-.033.006-.034.005-.034v-.163l-.005-.032-.005-.031-.009-.032-.009-.032-.011-.029-.012-.028-.015-.031-.016-.028-.016-.027-.019-.029-.018-.025-.019-.024-.023-.025-.023-.024-.023-.022-.025-.021-.026-.019-.027-.018-.028-.017-.029-.016-.029-.014-.032-.014-.032-.012-.033-.01.216-.774.072.022.07.026.067.028.067.032.064.035.061.037.06.041.057.044.055.045.053.049.049.051.046.051.046.056.042.058.038.057.035.06.034.063.029.063.028.065.025.068.02.066.018.068.015.071.011.07.007.073v.218l-.007.074-.011.073-.015.073-.018.075zm-8.8 28.614l8.028-28.829.772.215-8.028 28.828-.772-.214zm-1.038 1.237l.215-.775.033.009.034.006h.23l.031-.006.032-.008.032-.01.03-.011.029-.012.03-.015.028-.015.027-.016.028-.018.025-.018.025-.02.025-.023.023-.022.022-.024.021-.025.019-.025.019-.027.017-.027.015-.029.015-.029.013-.032.012-.032.01-.032.772.214-.023.073-.025.07-.028.067-.033.067-.036.065-.037.062-.041.059-.044.058-.046.055-.049.053-.051.05-.052.046-.055.045-.057.043-.058.038-.061.036-.062.034-.064.029-.064.027-.067.024-.067.02-.068.018-.071.015-.07.011-.072.007h-.218l-.073-.007-.073-.01-.073-.015-.074-.018zm-28.613-8.8l28.828 8.028-.215.775-28.829-8.029.216-.774zm-1.237-1.037l.772.215-.008.033-.006.033-.005.035v.195l.006.031.008.032.009.03.012.031.012.03.015.029.015.028.016.028.018.026.019.026.021.025.021.024.023.024.024.022.025.021.025.019.027.018.028.018.029.015.029.015.032.013.032.012.033.01-.216.774-.073-.022-.069-.025-.068-.029-.066-.032-.065-.035-.062-.037-.059-.041-.057-.044-.054-.045-.053-.048-.05-.051-.047-.054-.044-.055-.042-.056-.039-.059-.036-.06-.034-.063-.03-.064-.026-.065-.025-.065-.021-.068-.017-.069-.015-.07-.012-.071-.007-.072v-.218l.007-.075.01-.072.015-.074.018-.074zm8.8-28.614l-8.029 28.829-.772-.215 8.029-28.829.772.215zm1.037-1.237l-.215.775-.034-.008-.033-.006-.034-.005h-.197l-.031.007-.032.007-.032.01-.03.011-.029.013-.029.014-.029.015-.027.016-.027.018-.025.019-.025.019-.025.023-.025.023-.021.023-.021.025-.019.025-.018.027-.017.027-.015.029-.015.029-.014.032-.011.032-.01.032-.772-.215.022-.073.026-.069.028-.068.032-.067.035-.064.038-.062.04-.059.044-.058.046-.055.049-.054.05-.049.053-.046.056-.045.056-.042.059-.038.06-.036.063-.033.063-.03.066-.028.066-.024.067-.02.068-.018.07-.015.071-.011.072-.007h.218l.074.007.073.011.073.014.073.018z" transform="translate(-1040.813 -356.814)" fill="#fff" fill-rule="evenodd"/></g><g id="Group_245" data-name="Group 245" transform="translate(7.519 3.819)"><path id="Rectangle_197" data-name="Rectangle 197" transform="rotate(-74.438 .507 .385)" fill="#fff" d="M0 0h.799v32.062H0z"/></g><g id="Group_246" data-name="Group 246" transform="translate(9.602 2.14)"><path id="Rectangle_198" data-name="Rectangle 198" transform="rotate(-74.438 .507 .385)" fill="#fff" d="M0 0h.799v2.822H0z"/></g><g id="Group_247" data-name="Group 247" transform="translate(36.271 9.567)"><path id="Rectangle_199" data-name="Rectangle 199" transform="rotate(-74.438 .507 .385)" fill="#fff" d="M0 0h.8v1.168H0z"/></g><g id="Group_248" data-name="Group 248" transform="translate(2.966 7.095)"><path id="Path_660" data-name="Path 660" d="M1076.422 372.692l-26.161-7.285.214-.77 26.161 7.286.279.492-.493.276zm.214-.769a.4.4 0 1 1-.214.769l.214-.769zm-6.383 21.425l5.89-21.148.772.215-5.89 21.148-.492.276-.28-.492zm.772.215a.4.4 0 0 1-.772-.215l.772.215zm-26.44-7.778l26.161 7.286-.214.769-26.161-7.285-.279-.492.493-.277zm-.214.77a.4.4 0 1 1 .214-.77l-.214.77zm6.382-21.425l-5.889 21.148-.772-.215 5.889-21.148.493-.277.279.492zm-.772-.215a.4.4 0 0 1 .772.215z" transform="translate(-1044.078 -364.623)" fill="#fff" fill-rule="evenodd"/></g><g id="Group_249" data-name="Group 249" transform="translate(14.206 13.598)" fill="#fff"><path id="Path_661" data-name="Path 661" d="M1056.971 381.592a.72.72 0 0 1-.42-.314.759.759 0 0 1-.055-.644l.173-.628a2.068 2.068 0 0 1 1.668-1.24l1.241.1.526-.44a.4.4 0 0 1 .313-.089.417.417 0 0 1 .277.174l1.041 1.548 1.727-.78a.42.42 0 0 1 .323 0 .4.4 0 0 1 .22.237l.21.61 1.184.676a2.068 2.068 0 0 1 .557 2.419.84.84 0 0 1-1 .582l-7.841-2.183a.728.728 0 0 1-.144-.028zm1.358-2.028a1.271 1.271 0 0 0-.91.716l-.149.552.063.014 7.832 2.181c-.015-.005.014 0 .048-.105a1.282 1.282 0 0 0-.278-1.475l-1.247-.7a.4.4 0 0 1-.181-.217l-.115-.335-1.634.739a.4.4 0 0 1-.5-.142l-.982-1.46-.311.259a.4.4 0 0 1-.291.092l-1.347-.114z" transform="translate(-1056.449 -372.38)"/><path id="Path_662" data-name="Path 662" d="M1060.634 381.63l-.034-.01a.4.4 0 0 1-.234-.233l-.731-1.918.749-.285.571 1.5.743-.393a.4.4 0 0 1 .527.144l.453.733 1.278-.994.492.633-1.63 1.266a.4.4 0 0 1-.587-.105l-.49-.794-.811.428a.4.4 0 0 1-.296.028z" transform="translate(-1056.741 -372.458)"/><path id="Path_663" data-name="Path 663" d="M1061.591 382.71l.015-.524-.24.45-.708-.376.413-.774a.4.4 0 0 1 .461-.2l.591.164a.4.4 0 0 1 .293.4l-.023.882z" transform="translate(-1056.834 -372.649)"/><path id="Path_664" data-name="Path 664" d="M1061.913 382.132l-.57-.158a.4.4 0 0 1-.221-.156.857.857 0 0 1-.01-1.008.384.384 0 0 1 .133-.114l.572-.3a.4.4 0 0 1 .527.144l.344.556a.4.4 0 0 1 .057.248.845.845 0 0 1-.655.8.394.394 0 0 1-.177-.012zm-.065-.849l.018.005-.007-.012z" transform="translate(-1056.861 -372.564)"/><path id="Path_665" data-name="Path 665" d="M1062.256 379.217a2.588 2.588 0 0 1-1.316-.9 3.5 3.5 0 0 1-.375-2.719 3.982 3.982 0 0 1 1.08-1.865.407.407 0 0 1 .32-.1 7.135 7.135 0 0 1 3.445 1.489.4.4 0 0 1 .118.2l.193.763a.4.4 0 0 1 .011.132 3.855 3.855 0 0 1-1.829 2.78l-.015.009a2.118 2.118 0 0 1-1.632.211zm-.2-4.759a3.289 3.289 0 0 0-.724 1.363 2.667 2.667 0 0 0 .279 2.06 1.5 1.5 0 0 0 1.883.424 3.06 3.06 0 0 0 1.431-2.1l-.144-.57a6.283 6.283 0 0 0-2.724-1.177z" transform="translate(-1056.814 -371.949)"/><path id="Path_666" data-name="Path 666" d="M1060.684 375.212a2.745 2.745 0 0 1-.035-.506 8.589 8.589 0 0 1 .179-1.489 1.844 1.844 0 0 1 .857-1.192 1.417 1.417 0 0 1 .89-.144 2.49 2.49 0 0 1 1.972.271 7.754 7.754 0 0 0 1.8.8.444.444 0 0 1 .3.368 5.843 5.843 0 0 1-1 2.756l-.671-.438a6.045 6.045 0 0 0 .853-2.005 8.834 8.834 0 0 1-1.713-.8 1.649 1.649 0 0 0-1.381-.158.507.507 0 0 1-.259.006c-.137-.039-.624-.1-.874.738a7.922 7.922 0 0 0-.154 1.3 1.991 1.991 0 0 0 .024.36z" transform="translate(-1056.833 -371.781)"/><path id="Path_667" data-name="Path 667" d="M1060.641 376.986l-.4-.113a.712.712 0 0 1-.476-.945l.261-.936a.731.731 0 0 1 .4-.425.9.9 0 0 1 .7.039l-.322.734-.041-.025-.226.81.319.089z" transform="translate(-1056.748 -372.031)"/><path id="Path_668" data-name="Path 668" d="M1065.527 378.333l-.4-.113.215-.771.318.089.232-.832c-.019-.032-.058-.043-.129-.04l-.03-.8a.925.925 0 0 1 .724.253.867.867 0 0 1 .245.623l-.28 1.045a.725.725 0 0 1-.334.474.745.745 0 0 1-.561.072z" transform="translate(-1057.243 -372.154)"/></g><g id="Group_250" data-name="Group 250" transform="translate(6.954 23.247)" fill="#fff"><path id="Path_669" data-name="Path 669" d="M1057.174 388.457l-8.707-2.424 1.012-3.632 8.706 2.425zm-7.72-2.98l7.163 1.994.582-2.09-7.163-2z" transform="translate(-1048.467 -382.401)"/><path id="Path_670" data-name="Path 670" d="M1070.059 392.046l-8.707-2.425 1.012-3.632 8.707 2.425zm-7.721-2.981l7.164 2 .581-2.091-7.163-2z" transform="translate(-1049.646 -382.729)"/></g></g><path id="Path_671" data-name="Path 671" d="M1485.9 483.022a.45.45 0 0 0-.3.194 1.3 1.3 0 0 0-.09.587v20.618a2.841 2.841 0 0 0 .053.72.4.4 0 0 0 .228.254 4.737 4.737 0 0 0 1.273.058l.348-.008h31.879l.4.007a10.309 10.309 0 0 0 1.376-.023.4.4 0 0 0 .3-.231 1.506 1.506 0 0 0 .071-.55v-20.617c0-.936-.232-1.039-.91-1.039l-1.007.014h-26.249l-1.022-.006c-2.029-.012-6.134-.035-6.348.023zm-1.033-.2a1.228 1.228 0 0 1 .814-.6c.323-.088 4.5-.064 6.571-.053l1.019.005h26.249l1.007-.012c1.3 0 1.744.187 1.744 1.874v20.618a2.208 2.208 0 0 1-.136.875 1.187 1.187 0 0 1-.87.717 9.474 9.474 0 0 1-1.589.045h-32.586a4.515 4.515 0 0 1-1.664-.143 1.183 1.183 0 0 1-.657-.761 3.308 3.308 0 0 1-.092-.961V483.8a2.019 2.019 0 0 1 .192-.986zm22.244 16.266l-1.84-.923 3.429-6.4 3.588 1.417.839-1.86-1.932-.765 4.529-2.495 1.892 5.086-2.114-.913-1.877 4.222-3.894-1.51-2.254 4.326-.367-.184zm-.7-1.284l2.673-4.99 3.639 1.437 1.527-3.385-1.1-.434 2.115-1.166.839 2.353-.993-.561-1.927 4.334-3.851-1.494-2.219 4.26-.706-.354zm-12.87-4.692h2.49l.82-.012a21.877 21.877 0 0 1 1.706.012 1.16 1.16 0 0 1 .631.24 1.442 1.442 0 0 1 .456.6l.864 2.274.413-.207a.5.5 0 0 0 .276-.229c.381-.5.778-.988 1.156-1.489.18-.236.351-.46.641-.469a.826.826 0 0 1 .292.033.549.549 0 0 0 .275.037.946.946 0 0 0 .116.358.573.573 0 0 1 .068.326 4.018 4.018 0 0 1-.825 1.225l-.259.317-.2.264c-.144.187-.288.373-.448.567-.09.108-.221.278-.366.468a8.963 8.963 0 0 1-.9 1.073l-.038.026a.522.522 0 0 1-.417.095.714.714 0 0 1-.381-.3l-.024-.036a1.176 1.176 0 0 1-.092-.183 1.7 1.7 0 0 0-.182-.338l-.75.291.193 1.942-5.984.007.2-1.967-.8-.2-.527 1.318a.684.684 0 0 1-.278.341.7.7 0 0 1-.44.085.658.658 0 0 1-.374-.177.72.72 0 0 1-.223-.375 1.809 1.809 0 0 1 .223-.866c.047-.114.094-.227.138-.357l.157-.4c.115-.36.443-1.189.712-1.873l.291-.743.1-.26c.229-.631.484-1.331 1.3-1.416zm-2.081 1.132c.316-.87.669-1.836 2.018-1.963l2.553-.008a2.852 2.852 0 0 1-1.173-.287 2.621 2.621 0 0 1-1.425-2.312 2.778 2.778 0 0 1 .41-1.417 2.6 2.6 0 0 1 .333-.43 1.817 1.817 0 0 1 .386-.322 2.855 2.855 0 0 1 .66-.322 2.651 2.651 0 0 1 1.73.013 2.61 2.61 0 0 1 1.3 1 2.417 2.417 0 0 1 .274.561 3.119 3.119 0 0 1 .139.611 2.543 2.543 0 0 1-.419 1.744 2.694 2.694 0 0 1-1.375 1.029 2.816 2.816 0 0 1-.561.127l.531-.007c.6-.011 1.226-.022 1.769.012a2 2 0 0 1 1.087.407 2.292 2.292 0 0 1 .728.956l.456 1.2.813-1.048a1.545 1.545 0 0 1 1.277-.8 1.738 1.738 0 0 1 .442.035l.4-.448 1.23-1.427a5.917 5.917 0 0 1 .467-.529.7.7 0 0 1 .81-.1.682.682 0 0 1 .34.749 6.082 6.082 0 0 1-.895 1.167c-.262.262-.476.591-.749.849l-.053.178-.159.077a2.925 2.925 0 0 1-.194.227l-.083.144-.057.048a1.266 1.266 0 0 1 .114.7 3.992 3.992 0 0 1-1.012 1.684l-.243.3-.2.263c-.159.205-.317.409-.465.588-.089.108-.211.266-.345.442a7.938 7.938 0 0 1-1.083 1.251l-.049.034a1.327 1.327 0 0 1-1.087.214 1.307 1.307 0 0 1-.261-.1l.149 1.5-7.829.01.073-.711-.128.087a1.52 1.52 0 0 1-.952.2 1.491 1.491 0 0 1-.856-.393 1.562 1.562 0 0 1-.474-.822 2.341 2.341 0 0 1 .268-1.355c.053-.128.1-.247.127-.322l.153-.384c.136-.42.456-1.232.721-1.9l.38-.984zm3.515-6.015l.029-.018a2.039 2.039 0 0 1 .481-.237 1.816 1.816 0 0 1 1.187.009 1.762 1.762 0 0 1 .881.677 1.494 1.494 0 0 1 .178.363 2.194 2.194 0 0 1 .1.441 1.724 1.724 0 0 1-.278 1.181 1.855 1.855 0 0 1-.951.707 2.047 2.047 0 0 1-.4.089 2.107 2.107 0 0 1-.973-.2 1.78 1.78 0 0 1-.964-1.564 1.943 1.943 0 0 1 .292-.988 1.821 1.821 0 0 1 .223-.283.988.988 0 0 1 .193-.168zm-13.445 19.62c-.072.029-.017.013.042 0h-.042zm-.665.224c-.123-.409-.228-.763.354-1 .194-.078 15.276-.058 21.8-.049 5.21.006 10.422.021 15.632 0 1.852-.008 6.985-.03 7.194.09a.553.553 0 0 1 .154.13 1.074 1.074 0 0 1 .051 1 6.359 6.359 0 0 1-1.615 2.489 6.057 6.057 0 0 1-2.164 1.2 9.636 9.636 0 0 1-2.794.323h-31.235a8.715 8.715 0 0 1-4.849-.885 5.368 5.368 0 0 1-1.569-1.367 5.583 5.583 0 0 1-.948-1.874l-.017-.056zm.8-.226l.015.047a4.749 4.749 0 0 0 .809 1.6 4.512 4.512 0 0 0 1.325 1.154 8.091 8.091 0 0 0 4.43.774h31.237a8.828 8.828 0 0 0 2.555-.287 5.229 5.229 0 0 0 1.873-1.04 5.5 5.5 0 0 0 1.347-2.094.661.661 0 0 1 .073-.157c-.708 0-5.029.015-6.675.023-5.21.019-10.425.005-15.635 0-6.125-.008-19.843-.027-21.353-.014zm36.565-5.621h-29.477v-15.989h29.477v15.984zm.833-16.4v17.237h-31.145v-17.649c10.351-.132 20.784-.007 31.144-.007z" transform="translate(-16.258 67.813)" fill="#fff" fill-rule="evenodd"/><g id="Group_281" data-name="Group 281" transform="translate(1249.07 506.271)"><g id="Group_252" data-name="Group 252" transform="translate(4.098 28.152)"><path id="Path_672" data-name="Path 672" d="M1248.815 475.818l7.978-8.543 1.367 1.276-7.978 8.544-1.394-1.247.026-.031zm1.367 1.277a.936.936 0 0 1-1.367-1.277l1.367 1.277zm.615 1.883l-1.273 1.363.022.019-.207-.19-.187-.192-.173-.194-.155-.2-.137-.2-.122-.2-.1-.2-.089-.2-.072-.2-.059-.2-.042-.2-.029-.19-.016-.186v-.182l.007-.176.017-.164.026-.156.032-.152.038-.141.043-.134.046-.122.046-.114.051-.107.048-.093.048-.088.046-.076.044-.068.042-.059.031-.044.025-.032.031-.039.017-.021 1.421 1.217.009-.013.012-.014-.008.011-.012.015-.01.015-.014.021-.016.028-.017.03-.02.04-.018.037-.019.045-.018.049-.015.048-.015.053-.012.054-.009.058-.006.061v.121l.006.067.01.069.015.072.023.076.03.084.039.086.049.094.059.1.073.105.087.111.1.117.122.124.139.128.022.02zm-.022-.02a.932.932 0 1 1-1.229 1.4l1.229-1.4zm37.9 37.939l-39.151-36.556 1.273-1.363 39.151 36.556.044.045-1.317 1.317zm1.273-1.363a.932.932 0 1 1-1.273 1.363l1.273-1.363zm2.281-.038l1.367 1.276.021-.023-.206.222-.213.2-.219.179-.224.156-.228.134-.231.111-.234.091-.234.068-.232.047-.233.026-.222.009-.215-.009-.21-.024-.2-.036-.19-.047-.183-.057-.171-.065-.159-.069-.149-.073-.141-.075-.131-.078-.12-.077-.112-.077-.1-.074-.092-.071-.079-.067-.069-.058-.059-.055-.046-.043-.037-.035-.031-.033-.017-.018 1.362-1.273-.007-.007.015.015.024.023.03.027.039.035.044.036.05.039.056.042.061.041.067.044.07.041.073.041.077.037.078.035.079.029.076.025.08.02.079.015.075.008h.158l.076-.009.081-.015.084-.025.086-.033.1-.046.1-.059.105-.074.114-.094.121-.113.126-.136.021-.024zm-.021.024a.935.935 0 0 1 1.409 1.23l-1.409-1.23zm29.74-29.112l-28.348 30.365-1.367-1.276 28.352-30.364 1.487 1.118-.12.159zm-1.367-1.277a.935.935 0 0 1 1.367 1.277l-1.367-1.277zm-.9-2.518l1.273-1.363-.094-.077.245.186.226.2.206.2.185.206.166.213.147.217.127.222.108.221.091.222.073.224.057.217.041.214.027.211.015.206v.2l-.006.189-.015.184-.023.175-.03.168-.034.156-.037.146-.04.137-.042.13-.043.116-.042.107-.042.1-.037.082-.034.07-.027.055-.023.044-.025.044-.012.021-1.607-.958v.014l.009-.018.015-.031.018-.036.02-.045.021-.049.024-.059.024-.066.024-.072.023-.078.021-.085.019-.088.016-.088.011-.094.009-.1v-.2l-.008-.1-.013-.1-.02-.1-.025-.1-.033-.1-.044-.1-.052-.106-.062-.107-.073-.108-.089-.113-.1-.115-.119-.116-.138-.119-.158-.121-.094-.076zm.094.076a.932.932 0 1 1 1.085-1.516l-1.085 1.516zm-4.112-6.379l5.29 4.94-1.273 1.363-5.29-4.94 1.272-1.363zm-1.272 1.363a.932.932 0 1 1 1.272-1.363l-1.272 1.363zm-10.791-12.628l12.064 11.266-1.272 1.363-12.065-11.266z" transform="translate(-1248.151 -465.045)" fill="#fff" fill-rule="evenodd"/></g><g id="Group_253" data-name="Group 253" transform="translate(26.753 7.027)"><path id="Path_673" data-name="Path 673" d="M1284.107 442.542l15.809 14.761-1.273 1.363-15.808-14.766 1.272-1.363zm-1.272 1.363a.932.932 0 1 1 1.272-1.363l-1.272 1.363zm-1.258.059l-1.277-1.364.164-.144.167-.13.171-.115.175-.1.178-.087.176-.072.178-.057.178-.044.176-.031.171-.017.167-.005.162.005.156.014.152.023.14.029.136.036.133.042.12.045.111.045.106.05.1.052.089.05.081.048.075.048.071.046.062.044.056.042.047.036.037.031.028.025.012.01.03.027-1.272 1.363.023.02-.01-.007-.006-.006-.01-.008-.015-.012-.018-.013-.022-.016-.027-.018-.032-.02-.036-.022-.039-.022-.036-.019-.041-.018-.046-.019-.044-.016-.041-.014-.045-.011-.046-.01-.043-.007h-.181l-.046.007-.046.013-.053.015-.056.023-.058.029-.062.035-.069.046-.075.059-.078.069zm-7.111 7.619l-1.379-1.264.02-.022.049-.054.085-.093.114-.124.142-.155.169-.184.193-.209.213-.231.233-.254.25-.272.267-.29.279-.3.29-.314.3-.325.307-.333.312-.336.314-.341.315-.339.314-.339.31-.333.3-.327.3-.32.288-.307.277-.3.263-.278.246-.261.231-.241.21-.219.189-.194.165-.168.143-.144.122-.117 1.278 1.366-.089.086-.126.124-.154.158-.183.187-.2.213-.225.235-.243.258-.261.276-.274.291-.286.306-.3.317-.3.326-.309.333-.313.337-.314.339-.314.339-.312.337-.305.33-.3.324-.291.315-.28.3-.264.288-.25.272-.233.254-.214.233-.191.207-.167.183-.142.155-.114.124-.084.091-.055.06z" transform="translate(-1273.086 -441.793)" fill="#fff" fill-rule="evenodd"/></g><g id="Group_254" data-name="Group 254" transform="translate(10.283 12.662)"><path id="Path_674" data-name="Path 674" d="M1258.278 467.294l-3.32-3.1 1.273-1.363 3.32 3.1-1.139 1.467-.134-.1zm1.273-1.363a.932.932 0 1 1-1.273 1.363l1.273-1.363zm2.265-.324l1.366 1.277-.052.052-.2.173-.205.157-.21.142-.212.124-.212.107-.213.091-.213.076-.211.062-.209.048-.2.034-.2.023-.2.012h-.19l-.182-.007-.177-.015-.171-.022-.161-.028-.156-.033-.145-.037-.136-.038-.131-.043-.119-.043-.114-.044-.1-.044-.088-.039-.086-.042-.074-.037-.056-.031-.05-.026-.048-.029-.024-.014-.024-.015 1-1.571-.012-.008.009.006.023.012.034.018.034.018.042.02.054.024.056.025.062.024.071.025.071.023.081.024.083.021.084.018.089.015.091.013.093.007h.2l.1-.005.1-.012.1-.017.1-.024.1-.03.105-.037.106-.046.112-.055.111-.065.115-.075.117-.09.12-.1-.052.052zm.052-.052a.935.935 0 0 1 1.263 1.38l-1.263-1.38zm11.523-9.6l-10.208 10.932-1.366-1.277 10.208-10.932 1.458 1.162-.091.114zm-1.367-1.277a.935.935 0 0 1 1.367 1.277l-1.367-1.277zm-.371-2.664l1.273-1.363.094.1.177.234.161.237.141.235.125.235.11.237.093.232.078.23.064.231.049.224.035.218.026.215.012.207v.2l-.005.2-.015.186-.022.178-.028.172-.033.164-.038.154-.041.146-.043.132-.044.128-.047.118-.043.1-.044.095-.042.085-.042.08-.036.065-.026.044-.022.038-.026.044-.014.018-1.549-1.048-.006.008-.006.011.009-.015.016-.028.016-.026.015-.031.022-.044.025-.053.025-.062.024-.062.025-.069.026-.081.024-.081.021-.087.019-.092.015-.1.013-.1.008-.1v-.221l-.007-.116-.013-.117-.022-.125-.028-.127-.034-.127-.046-.135-.055-.14-.065-.141-.079-.147-.092-.153-.1-.155-.121-.161.094.1zm-.094-.1a.932.932 0 1 1 1.462-1.157l-1.462 1.157zm-1.475-3.914l2.841 2.652-1.273 1.363-2.841-2.652z" transform="translate(-1254.958 -447.996)" fill="#fff" fill-rule="evenodd"/></g><g id="Group_255" data-name="Group 255" transform="translate(10.721 13.977)"><path id="Path_675" data-name="Path 675" d="M1257.754 454.966l2.98 3.352-1.395 1.237-2.98-3.352 1.395-1.237zm3.982-5.013l-1.1 1.5.073.05-.138-.074-.14-.054-.147-.037-.153-.024-.162-.007-.169.009-.175.026-.182.041-.184.06-.186.075-.185.09-.183.106-.18.122-.172.133-.164.144-.153.154-.142.162-.13.171-.115.172-.1.176-.082.178-.065.176-.049.177-.031.172-.012.166v.166l.021.163.038.159.059.16.081.164.106.164.137.171-1.395 1.237-.255-.318-.215-.334-.172-.347-.132-.357-.089-.363-.046-.361-.009-.358.028-.354.061-.344.091-.334.118-.323.144-.31.167-.3.188-.285.2-.268.223-.254.241-.241.253-.223.268-.206.279-.187.292-.17.3-.15.313-.125.323-.1.332-.077.338-.049.344-.018.348.015.348.052.347.09.342.133.328.172.073.048zm-.073-.048a.933.933 0 1 1-.958 1.6l.958-1.6zm2.845 4.4l-3.876-2.852 1.1-1.5 3.876 2.853z" transform="translate(-1255.44 -449.443)" fill="#fff" fill-rule="evenodd"/></g><g id="Group_256" data-name="Group 256" transform="translate(63.889 39.165)"><path id="Path_676" data-name="Path 676" d="M1316.437 486.032l-1.273 1.363.063.054-.178-.146-.163-.148-.153-.153-.138-.156-.123-.156-.113-.163-.1-.163-.084-.163-.071-.169-.054-.166-.043-.164-.03-.164-.017-.158-.005-.157.005-.154.014-.141.022-.134.029-.131.035-.121.037-.108.042-.105.045-.1.044-.085.043-.08.045-.074.044-.067.036-.053.032-.044.044-.055.024-.027.008-.01.03-.034 1.367 1.276.023-.026-.007.009.009-.012-.007.012-.012.014-.005.01-.008.013-.01.019-.013.024-.008.017-.008.022-.009.027-.006.024-.005.021v.153l.009.035.013.038.016.039.026.052.032.055.042.058.054.069.064.074.078.077.1.086.109.09.063.054zm-.063-.054a.932.932 0 1 1-1.147 1.47l1.147-1.47zm5.008 7.222l-6.218-5.806 1.273-1.363 6.218 5.806.3.621-1.568.741zm1.273-1.363a.932.932 0 1 1-1.273 1.363l1.273-1.363zm-.678-13.8l.973 14.418-1.864.12-.973-14.418.248-.7 1.615.579zm-1.864.12a.934.934 0 1 1 1.864-.12l-1.864.12zm-5.575 5.538l5.823-6.236 1.367 1.277-5.823 6.235-1.367-1.276zm1.367 1.276a.935.935 0 0 1-1.367-1.276z" transform="translate(-1313.96 -477.167)" fill="#fff" fill-rule="evenodd"/></g><g id="Group_257" data-name="Group 257" transform="translate(12.934 37.405)"><path id="Path_677" data-name="Path 677" d="M1263.981 476.8l-4.488 4.806-1.367-1.276 4.488-4.806 1.32-.044.047 1.32zm-1.367-1.276a.935.935 0 0 1 1.367 1.276l-1.367-1.276zm5.128 6.064l-5.081-4.744 1.273-1.363 5.081 4.744.047 1.32-1.32.044zm1.273-1.364a.933.933 0 1 1-1.273 1.364l1.273-1.364zm-5.808 4.85l4.488-4.806 1.367 1.276-4.488 4.806-1.32.044-.047-1.32zm1.367 1.276a.935.935 0 0 1-1.367-1.276l1.367 1.276zm-5.128-6.064l5.081 4.743-1.273 1.364-5.08-4.744-.048-1.319 1.32-.044zm-1.272 1.363a.932.932 0 1 1 1.272-1.363z" transform="translate(-1257.876 -475.23)" fill="#fff" fill-rule="evenodd"/></g><g id="Group_258" data-name="Group 258" transform="translate(17.627 40.596)"><path id="Path_678" data-name="Path 678" d="M1264.791 483.227l-1.7.038-.048-1.866 1.7-.038.938.743-.89 1.123zm-.047-1.866a.933.933 0 0 1 .047 1.866l-.047-1.866zm.227-2.618l.71 3.362-1.828.381-.71-3.362z" transform="translate(-1263.041 -478.742)" fill="#fff" fill-rule="evenodd"/></g><g id="Group_259" data-name="Group 259" transform="translate(21.408 45.161)"><path id="Path_679" data-name="Path 679" d="M1273.307 485.338l-4.488 4.806-1.366-1.277 4.487-4.806 1.32-.043.047 1.319zm-1.367-1.276a.935.935 0 0 1 1.367 1.276l-1.367-1.276zm5.128 6.064l-5.081-4.743 1.273-1.363 5.081 4.743.047 1.32-1.32.043zm1.273-1.363a.932.932 0 1 1-1.273 1.363l1.273-1.363zm-5.808 4.85l4.488-4.806 1.367 1.276-4.488 4.806-1.32.043-.047-1.319zm1.367 1.277a.935.935 0 0 1-1.367-1.277l1.367 1.277zm-5.128-6.064l5.081 4.743-1.273 1.363-5.08-4.743-.047-1.32 1.319-.043zm-1.272 1.363a.932.932 0 1 1 1.272-1.363z" transform="translate(-1267.203 -483.766)" fill="#fff" fill-rule="evenodd"/></g><g id="Group_260" data-name="Group 260" transform="translate(26.101 48.353)"><path id="Path_680" data-name="Path 680" d="M1274.117 491.764l-1.7.038-.047-1.866 1.7-.038.938.743-.89 1.123zm-.047-1.866a.933.933 0 1 1 .047 1.866l-.047-1.866zm.228-2.618l.71 3.362-1.828.381-.71-3.362z" transform="translate(-1272.368 -487.279)" fill="#fff" fill-rule="evenodd"/></g><g id="Group_261" data-name="Group 261" transform="translate(29.842 53.037)"><path id="Path_681" data-name="Path 681" d="M1282.591 494.007l-4.488 4.806-1.367-1.276 4.488-4.806 1.319-.044.048 1.32zm-1.367-1.276a.935.935 0 0 1 1.367 1.276l-1.367-1.276zm5.128 6.064l-5.08-4.744 1.272-1.363 5.082 4.744.047 1.32-1.32.043zm1.273-1.363a.932.932 0 1 1-1.273 1.363l1.273-1.363zm-5.807 4.849l4.487-4.806 1.367 1.277-4.487 4.806-1.32.043-.047-1.32zm1.367 1.277a.936.936 0 0 1-1.367-1.277l1.367 1.277zm-5.129-6.064l5.082 4.744-1.273 1.363-5.082-4.744-.047-1.319 1.32-.044zm-1.273 1.363a.932.932 0 1 1 1.273-1.363z" transform="translate(-1276.486 -492.435)" fill="#fff" fill-rule="evenodd"/></g><g id="Group_262" data-name="Group 262" transform="translate(34.535 56.228)"><path id="Path_682" data-name="Path 682" d="M1283.4 500.432l-1.7.038-.047-1.866 1.7-.038.938.743-.89 1.123zm-.047-1.866a.933.933 0 1 1 .047 1.866l-.047-1.866zm.227-2.619l.71 3.363-1.828.38-.709-3.362z" transform="translate(-1281.652 -495.947)" fill="#fff" fill-rule="evenodd"/></g><g id="Group_263" data-name="Group 263" transform="translate(21.165 24.011)"><path id="Rectangle_200" data-name="Rectangle 200" transform="matrix(.682 -.731 .731 .682 0 12.361)" fill="#fff" d="M0 0h16.912v1.871H0z"/></g><g id="Group_264" data-name="Group 264" transform="translate(34.057 20.519)"><path id="Rectangle_201" data-name="Rectangle 201" transform="matrix(.682 -.731 .731 .682 0 2.047)" fill="#fff" d="M0 0h2.801v1.871H0z"/></g><g id="Group_265" data-name="Group 265" transform="translate(23.843 31.126)"><path id="Rectangle_202" data-name="Rectangle 202" transform="matrix(.682 -.731 .731 .682 0 7.746)" fill="#fff" d="M0 0h10.598v1.857H0z"/></g><g id="Group_266" data-name="Group 266" transform="translate(31.915 28.708)"><path id="Rectangle_203" data-name="Rectangle 203" transform="rotate(-46.99 1.74 .756)" fill="#fff" d="M0 0h2.068v1.862H0z"/></g><g id="Group_267" data-name="Group 267" transform="translate(29.562 31.851)"><path id="Rectangle_204" data-name="Rectangle 204" transform="matrix(.682 -.731 .731 .682 0 12.361)" fill="#fff" d="M0 0h16.912v1.871H0z"/></g><g id="Group_268" data-name="Group 268" transform="translate(42.453 28.359)"><path id="Rectangle_205" data-name="Rectangle 205" transform="matrix(.682 -.731 .731 .682 0 2.047)" fill="#fff" d="M0 0h2.801v1.871H0z"/></g><g id="Group_269" data-name="Group 269" transform="translate(32.239 38.966)"><path id="Rectangle_206" data-name="Rectangle 206" transform="matrix(.682 -.731 .731 .682 0 7.746)" fill="#fff" d="M0 0h10.598v1.857H0z"/></g><g id="Group_270" data-name="Group 270" transform="translate(40.311 36.547)"><path id="Rectangle_207" data-name="Rectangle 207" transform="rotate(-46.99 1.74 .756)" fill="#fff" d="M0 0h2.068v1.862H0z"/></g><g id="Group_271" data-name="Group 271" transform="translate(38.17 42.089)"><path id="Rectangle_208" data-name="Rectangle 208" transform="matrix(.682 -.731 .731 .682 0 10.161)" fill="#fff" d="M0 0h13.902v1.865H0z"/></g><g id="Group_272" data-name="Group 272" transform="translate(48.563 39.416)"><path id="Rectangle_209" data-name="Rectangle 209" transform="rotate(-46.99 1.965 .854)" fill="#fff" d="M0 0h2.337v1.857H0z"/></g><g id="Group_273" data-name="Group 273" transform="translate(40.845 48.772)"><path id="Rectangle_210" data-name="Rectangle 210" transform="matrix(.682 -.731 .731 .682 0 5.975)" fill="#fff" d="M0 0h8.175v1.856H0z"/></g><g id="Group_274" data-name="Group 274" transform="translate(47.507 46.096)"><path id="Rectangle_211" data-name="Rectangle 211" transform="rotate(-46.99 1.74 .756)" fill="#fff" d="M0 0h2.068v1.865H0z"/></g><g id="Group_275" data-name="Group 275" transform="translate(49.304)"><path id="Path_683" data-name="Path 683" d="M1305.168 474.616l2.292-.11.1 1.865-2.292.109-.924-.613.829-1.251zm.1 1.864a.933.933 0 1 1-.1-1.864l.1 1.864zm-1.177-6.726l2.006 5.476-1.753.637-2.006-5.476-.049-.2 1.8-.437zm-1.753.637a.933.933 0 1 1 1.753-.637l-1.753.637zm1.733-.967l.069.53-1.852.237-.069-.529 1.853-.237zm-1.852.238a.933.933 0 1 1 1.852-.238l-1.852.238zm-.988-21.878l2.839 21.641-1.853.236-2.839-21.641 1.853-.236zm-1.853.236a.934.934 0 1 1 1.853-.236l-1.853.236zm.446-10.954l1.406 10.718-1.853.236-1.406-10.717 1.833-.34.02.1zm-1.853.237a.934.934 0 1 1 1.853-.237l-1.853.237zm1.854-3.107l.073 1.866.252-.045-.058.022-.046.021-.039.021-.032.021-.024.02-.022.019-.021.024-.017.021-.015.023-.016.027-.015.031-.015.035-.013.036-.01.038-.009.044-.009.047-.006.047v.352l.005.035v.069-.011l-1.813.442v-.014l-.005-.024-.01-.051-.008-.041-.009-.054-.01-.061-.008-.066-.009-.077-.008-.086-.005-.093v-.31l.006-.112.011-.121.016-.124.022-.125.03-.131.038-.137.047-.139.055-.137.067-.141.081-.14.093-.139.108-.137.117-.126.132-.123.146-.115.157-.1.168-.093.179-.081.187-.067.252-.045zm-.252.045a.934.934 0 0 1 .576 1.777l-.576-1.777zm3.373 1.713l-3.049.109-.073-1.866 3.048-.109.488 1.753-.414.114zm-.074-1.866a.934.934 0 1 1 .074 1.866l-.074-1.866zm2.185 2.587l-1.854.214.016.094-.041-.175-.042-.157-.041-.142-.04-.127-.041-.112-.039-.1-.037-.085-.034-.069-.031-.057-.027-.045-.023-.032-.017-.024-.008-.009-.006-.006.016.013.018.011.027.015.033.015.027.009.036.008.053.008h.113l.038-.006.048-.01.035-.01.032-.012h.011l.021-.009.062-.03-.9-1.639.065-.032.034-.015.031-.013.059-.022.072-.021.088-.02.087-.013.094-.008h.092l.107.005.123.019.112.027.107.035.116.049.114.06.108.068.11.083.093.084.093.093.092.105.082.108.081.118.074.124.073.132.068.143.065.148.063.159.06.169.059.18.056.193.053.2.052.216.015.094zm-.015-.094a.934.934 0 1 1-1.823.4l1.823-.4zm-1.76.971l-.079-.662 1.854-.214.078.661-1.854.214zm1.854-.215a.933.933 0 1 1-1.854.215l1.854-.215zm2.029 32.969l-3.883-32.754 1.855-.214 3.883 32.754v.214zm1.855-.214a.934.934 0 1 1-1.855.214l1.855-.214zm-2.438 5.24l.582-5.24 1.857.213-.583 5.24-.88.827-.976-1.039zm1.856.213a.934.934 0 0 1-1.856-.213z" transform="translate(-1297.907 -434.059)" fill="#fff" fill-rule="evenodd"/></g><g id="Group_276" data-name="Group 276" transform="translate(51.847 12.641)"><path id="Path_684" data-name="Path 684" d="M1305.585 449.84l-4.831.109-.048-1.867 4.831-.109z" transform="translate(-1300.706 -447.973)" fill="#fff" fill-rule="evenodd"/></g><g id="Group_277" data-name="Group 277" transform="translate(55.571 2.548)"><path id="Path_685" data-name="Path 685" d="M1307.6 438.87l-2.8-.142.088-1.865 2.8.141.88.808-.969 1.058zm.089-1.866a.934.934 0 1 1-.089 1.866l.089-1.866zm.69 13.02l-1.66-11.962 1.85-.251 1.66 11.961-.391.893-1.459-.641zm1.85-.252a.933.933 0 1 1-1.85.252l1.85-.252zm-2.368-.011l.909-.63 1.068 1.534-.909.631z" transform="translate(-1304.805 -436.863)" fill="#fff" fill-rule="evenodd"/></g><g id="Group_278" data-name="Group 278" transform="translate(54.491 34.749)"><path id="Path_686" data-name="Path 686" d="M1309.306 474.168l-5.554.386-.136-1.862 5.555-.386z" transform="translate(-1303.616 -472.306)" fill="#fff" fill-rule="evenodd"/></g><g id="Group_279" data-name="Group 279" transform="translate(56.884 41.355)"><path id="Path_687" data-name="Path 687" d="M1306.516 482.845l-.266-3.114 1.861-.154.267 3.113z" transform="translate(-1306.25 -479.577)" fill="#fff" fill-rule="evenodd"/></g><g id="Group_280" data-name="Group 280" transform="translate(0 2.664)"><path id="Path_688" data-name="Path 688" d="M1283.964 438.376l12.306 11.49-1.27 1.363-12.305-11.489 1.214-1.414.058.05zm-1.272 1.364a.932.932 0 1 1 1.272-1.364l-1.272 1.364zm-5.7.114l-1.367-1.276.118-.106.02-.015.046-.034.064-.045.084-.056.1-.067.121-.075.14-.085.16-.09.175-.1.193-.1.207-.1.223-.1.24-.1.252-.093.264-.09.281-.084.293-.074.3-.064.314-.052.326-.038.335-.023.344-.005.354.016.359.037.365.06.371.086.373.114.373.142.373.172.372.2.369.236.363.268-1.156 1.464-.264-.2-.261-.167-.258-.141-.258-.118-.254-.1-.253-.076-.25-.058-.25-.041-.248-.025-.244-.01h-.243l-.24.015-.234.028-.232.038-.227.048-.219.055-.211.063-.205.07-.2.073-.184.075-.175.078-.164.079-.152.077-.138.074-.122.07-.108.065-.1.058-.074.049-.058.04-.039.027-.017.013.117-.106zm-32.635 32.21l31.267-33.486 1.367 1.276-31.267 33.486-1.506-1.084.139-.193zm1.367 1.276a.935.935 0 0 1-1.367-1.276l1.367 1.276zm.873 4.827l-1.273 1.363-.117-.133-.241-.344-.217-.343-.2-.341-.173-.337-.153-.334-.132-.328-.114-.325-.094-.32-.078-.311-.062-.306-.046-.3-.034-.291-.02-.279-.008-.271v-.262l.012-.248.02-.239.027-.228.034-.214.038-.2.043-.192.045-.176.046-.161.048-.152.045-.134.045-.117.042-.105.039-.091.032-.073.025-.05.02-.04.016-.032 1.645.891.007-.015-.005.01-.013.029-.018.037-.02.048-.025.064-.029.079-.032.089-.031.1-.032.114-.032.124-.029.132-.028.145-.023.154-.021.162-.014.171-.009.181v.187l.005.2.015.2.024.211.034.215.046.224.058.232.07.236.085.243.1.25.116.257.135.261.152.266.173.273.194.278-.117-.133zm.117.133a.932.932 0 1 1-1.507 1.1l1.507-1.1zm40.792 40.617l-42.183-39.387 1.273-1.363 42.183 39.387.114.127-1.386 1.236zm1.273-1.363a.932.932 0 1 1-1.273 1.363l1.273-1.363zm5.013.67l1.367 1.277-.281.205-.437.2-.425.169-.414.143-.4.117-.391.093-.38.07-.368.047-.356.027-.344.006-.33-.011-.317-.028-.3-.045-.29-.058-.274-.07-.26-.081-.247-.092-.23-.1-.214-.1-.2-.107-.186-.111-.173-.113-.155-.112-.14-.108-.128-.106-.113-.1-.1-.092-.085-.086-.074-.079-.056-.064-.042-.049-.033-.041-.021-.027 1.5-1.109-.009-.012.017.02.025.029.033.035.046.046.058.055.065.058.075.063.089.07.1.068.1.07.117.069.128.069.137.066.148.064.155.058.169.052.181.047.19.038.2.029.214.02.227.007.242-.005.254-.019.271-.035.284-.052.3-.071.315-.092.332-.114.346-.137.364-.164-.281.2zm.281-.2a.934.934 0 0 1 .806 1.686l-.806-1.686zm32.656-32.329l-31.569 33.81-1.367-1.277 31.569-33.81 1.506 1.083-.139.194zm-1.367-1.276a.935.935 0 0 1 1.367 1.276l-1.367-1.276zm-.6-5.392l1.272-1.363.108.12.251.35.224.352.2.352.174.353.151.352.127.35.107.347.086.341.067.335.05.33.034.323.018.315.005.306-.006.3-.018.286-.027.275-.036.264-.042.252-.049.239-.053.227-.056.213-.057.2-.058.183-.057.167-.057.153-.054.135-.049.116-.044.1-.037.078-.029.064-.025.05-.011.02-1.645-.889v-.008l.016-.034.025-.055.031-.069.035-.085.039-.1.041-.111.044-.126.046-.142.044-.151.043-.162.04-.174.037-.184.033-.192.026-.2.021-.209.014-.216.006-.223v-.229l-.013-.233-.025-.238-.038-.243-.049-.247-.063-.25-.077-.253-.1-.256-.11-.26-.129-.26-.148-.265-.17-.266-.192-.268.108.12zm-.108-.12a.932.932 0 1 1 1.488-1.123l-1.488 1.123zm-22.427-23.473l23.807 22.23-1.272 1.363-23.808-22.23z" transform="translate(-1243.64 -436.991)" fill="#fff" fill-rule="evenodd"/></g></g><g id="Group_282" data-name="Group 282" transform="translate(1611.664 766.77)" fill="#fff"><path id="Rectangle_212" data-name="Rectangle 212" transform="rotate(-73.499 23.325 16.083)" d="M0 0h35.335v.883H0z"/><path id="Rectangle_213" data-name="Rectangle 213" transform="rotate(-73.499 21.11 15.763)" d="M0 0h.884v35.335H0z"/><path id="Rectangle_214" data-name="Rectangle 214" transform="rotate(-73.499 7.08 -3.024)" d="M0 0h.884v2.336H0z"/><path id="Rectangle_215" data-name="Rectangle 215" transform="rotate(-73.499 9.899 .75)" d="M0 0h.884v2.336H0z"/><path id="Rectangle_216" data-name="Rectangle 216" transform="rotate(-73.499 12.59 4.353)" d="M0 0h.884v2.336H0z"/><path id="Rectangle_217" data-name="Rectangle 217" transform="rotate(-73.499 15.357 8.06)" d="M0 0h.884v2.336H0z"/><path id="Rectangle_218" data-name="Rectangle 218" transform="rotate(-73.499 18.098 11.731)" d="M0 0h.884v2.336H0z"/><path id="Rectangle_219" data-name="Rectangle 219" transform="rotate(-73.499 27.28 13.13)" d="M0 0h2.242v.883H0z"/><path id="Rectangle_220" data-name="Rectangle 220" transform="rotate(-73.499 30.943 10.394)" d="M0 0h2.335v.883H0z"/><path id="Rectangle_221" data-name="Rectangle 221" transform="rotate(-73.499 34.683 7.602)" d="M0 0h2.127v.883H0z"/><path id="Rectangle_222" data-name="Rectangle 222" transform="rotate(-73.499 38.39 4.835)" d="M0 0h2.335v.883H0z"/><path id="Rectangle_223" data-name="Rectangle 223" transform="rotate(-73.499 42.027 2.118)" d="M0 0h2.335v.883H0z"/><path id="Path_689" data-name="Path 689" d="M1664.023 731.219a2.211 2.211 0 1 1 2.747-1.492 2.212 2.212 0 0 1-2.747 1.492zm1-3.392a1.327 1.327 0 1 0 .9 1.649 1.327 1.327 0 0 0-.895-1.649z" transform="translate(-1644.538 -721.339)"/><path id="Path_690" data-name="Path 690" d="M1679.65 741.356a2.211 2.211 0 1 1 2.747-1.492 2.212 2.212 0 0 1-2.747 1.492zm1-3.391a1.326 1.326 0 1 0 .9 1.648 1.326 1.326 0 0 0-.896-1.648z" transform="translate(-1645.967 -722.267)"/><path id="Path_691" data-name="Path 691" d="M1658.95 744.975a2.211 2.211 0 1 1 2.747-1.492 2.213 2.213 0 0 1-2.747 1.492zm1-3.392a1.326 1.326 0 1 0 .9 1.648 1.327 1.327 0 0 0-.896-1.648z" transform="translate(-1644.074 -722.598)"/><path id="Path_692" data-name="Path 692" d="M1662.782 750.9a2.211 2.211 0 1 1 2.747-1.492 2.213 2.213 0 0 1-2.747 1.492zm1-3.392a1.327 1.327 0 1 0 .9 1.649 1.328 1.328 0 0 0-.895-1.649z" transform="translate(-1644.424 -723.139)"/><path id="Path_693" data-name="Path 693" d="M1671.4 758.009a2.21 2.21 0 1 1 2.746-1.492 2.212 2.212 0 0 1-2.746 1.492zm1-3.391a1.326 1.326 0 1 0 .895 1.648 1.327 1.327 0 0 0-.895-1.648z" transform="translate(-1645.212 -723.79)"/><path id="Path_694" data-name="Path 694" d="M1677.841 754.313a2.21 2.21 0 1 1 2.747-1.492 2.212 2.212 0 0 1-2.747 1.492zm1-3.391a1.326 1.326 0 1 0 .9 1.648 1.326 1.326 0 0 0-.895-1.648z" transform="translate(-1645.801 -723.452)"/><path id="Rectangle_224" data-name="Rectangle 224" transform="rotate(-5.674 87.932 -117.916)" d="M0 0h6.252v.883H0z"/><path id="Path_695" data-name="Path 695" d="M1667.992 742.272l-2.913-11.022.854-.227 2.913 11.022z" transform="translate(-1644.779 -721.718)"/><path id="Rectangle_225" data-name="Rectangle 225" transform="rotate(-15.692 101.492 -75.504)" d="M0 0h.883v6.125H0z"/><path id="Rectangle_226" data-name="Rectangle 226" transform="rotate(-35.493 62.53 -28.5)" d="M0 0h3.244v.883H0z"/><path id="Rectangle_227" data-name="Rectangle 227" transform="rotate(-12.568 141.932 -141.275)" d="M0 0h4.036v.883H0z"/><path id="Rectangle_228" data-name="Rectangle 228" transform="rotate(-77.692 28.77 -13.661)" d="M0 0h.884v4.902H0z"/><path id="Rectangle_229" data-name="Rectangle 229" transform="rotate(-30.641 54.593 -24.836)" d="M0 0h14.104v.884H0z"/><path id="Path_696" data-name="Path 696" d="M1661.88 747.394l-1.379-2.54.776-.422 1.379 2.54z" transform="translate(-1644.36 -722.944)"/><path id="Rectangle_230" data-name="Rectangle 230" transform="rotate(-28.448 51.118 -1.63)" d="M0 0h7.622v.884H0z"/></g><g id="Group_291" data-name="Group 291" transform="translate(1663.275 579.892)"><g id="Group_283" data-name="Group 283"><path id="Path_697" data-name="Path 697" d="M1758.65 523.388l-49.55-6.558.229-1.731 49.554 6.558.75.98-.98.75zm.23-1.731a.873.873 0 0 1-.23 1.731l.23-1.731zm-1.594 5.391l.614-4.64 1.731.229-.614 4.64-1.731-.229zm1.731.229a.873.873 0 1 1-1.731-.229l1.731.229zm-8.15 48.271l6.419-48.5 1.731.229-6.419 48.5-.341.583-1.39-.813zm1.731.23a.873.873 0 0 1-1.731-.23l1.731.23zm-13.912 8.587l12.522-9.4 1.048 1.4-12.522 9.4-.639.167-.41-1.564zm1.049 1.4a.873.873 0 1 1-1.049-1.4l1.049 1.4zm-39.206-6.7l38.8 5.134-.229 1.731-38.8-5.134-.75-.984.979-.747zm-.229 1.731a.873.873 0 0 1 .229-1.731l-.229 1.731zm9.776-64.711l-8.8 63.964-1.73-.237 8.8-63.964.979-.747.75.984zm-1.73-.237a.873.873 0 1 1 1.73.237z" transform="translate(-1699.542 -515.091)" fill="#fff" fill-rule="evenodd"/></g><g id="Group_284" data-name="Group 284" transform="translate(39.303 58.291)"><path id="Path_698" data-name="Path 698" d="M1745.161 579.257l10.642 1.408-.229 1.731-10.642-1.408-.75-.98.979-.75zm-.229 1.731a.873.873 0 0 1 .229-1.731l-.229 1.731zm-2.131 9.452l1.381-10.433 1.731.229-1.381 10.434z" transform="translate(-1742.801 -579.25)" fill="#fff" fill-rule="evenodd"/></g><g id="Group_285" data-name="Group 285" transform="translate(8.78 11.3)"><path id="Path_699" data-name="Path 699" d="M1709.213 587.428l.691-5.223 1.731.229-.691 5.223-.98.75-.751-.979zm1.731.229a.873.873 0 0 1-1.731-.229l1.731.229zm47.041 7.106l-48.021-6.355.229-1.731 48.021 6.355.751.98-.98.75zm.229-1.731a.873.873 0 1 1-.229 1.731l.229-1.731zm9.286-63.515l-8.535 64.5-1.731-.229 8.535-64.5.98-.751.75.98zm-1.731-.229a.873.873 0 1 1 1.731.229l-1.731-.229zm-6.632-1.759l7.613 1.008-.229 1.731-7.613-1.008z" transform="translate(-1709.205 -527.529)" fill="#fff" fill-rule="evenodd"/></g><g id="Group_290" data-name="Group 290" transform="translate(9.53 15.086)"><g id="Group_287" data-name="Group 287" transform="translate(18.592)"><g id="Group_286" data-name="Group 286"><path id="Path_700" data-name="Path 700" d="M1753.168 536l-19.342-2.559.23-1.739 19.342 2.559.75.984-.98.755zm.23-1.739a.877.877 0 0 1-.23 1.739l.23-1.739zm-3.554 20.2l2.574-19.445 1.731.229-2.574 19.446-.98.755-.75-.984zm1.731.229a.873.873 0 1 1-1.731-.229l1.731.229zm-20.092-3.543l19.343 2.559-.231 1.739-19.342-2.559-.75-.984.98-.755zm-.23 1.739a.877.877 0 0 1 .23-1.739l-.23 1.739zm3.554-20.2l-2.574 19.446-1.731-.229 2.574-19.446.98-.754.75.984zm-1.731-.23a.873.873 0 1 1 1.731.23z" transform="translate(-1730.495 -531.695)" fill="#fff" fill-rule="evenodd"/></g><path id="Path_701" data-name="Path 701" d="M1746.479 543.557l-6.559-.869a.874.874 0 0 1-.752-.98l1.091-8.242 1.733.23-.977 7.375 4.827.639.976-7.376 1.733.229-1.091 8.242a.874.874 0 0 1-.981.752z" transform="translate(-1731.287 -531.857)" fill="#fff"/><path id="Rectangle_231" data-name="Rectangle 231" transform="rotate(-82.47 11.452 -1.225)" fill="#fff" d="M0 0h8.314v1.745H0z"/></g><path id="Path_702" data-name="Path 702" d="M1722.384 575.968a4.948 4.948 0 1 1 5.553-4.256 4.952 4.952 0 0 1-5.553 4.256zm1.069-8.078a3.2 3.2 0 1 0 2.754 3.593 3.2 3.2 0 0 0-2.753-3.593z" transform="translate(-1710.768 -534.843)" fill="#fff"/><path id="Path_703" data-name="Path 703" d="M1716.61 544a4.958 4.958 0 1 1 5.564-4.265 4.963 4.963 0 0 1-5.564 4.265zm1.072-8.1a3.211 3.211 0 1 0 2.762 3.605 3.215 3.215 0 0 0-2.762-3.605z" transform="translate(-1710.239 -531.918)" fill="#fff"/><g id="Group_288" data-name="Group 288" transform="translate(0 12.908)"><path id="Path_704" data-name="Path 704" d="M1717.212 562.883l-.953 1.463-1-.695-.9-.716-.8-.736-.707-.753-.618-.767-.532-.778-.452-.786-.372-.791-.3-.79-.23-.788-.166-.781-.105-.77-.051-.758v-.74l.041-.723.08-.7.112-.676.141-.65.164-.62.182-.589.194-.556.2-.521.207-.483.206-.442.2-.4.19-.357.174-.31.155-.262.129-.207.1-.155.066-.1.032-.045 1.422 1.012-.01.015-.051.074-.083.13-.112.181-.136.228-.154.275-.17.318-.178.359-.185.4-.186.433-.182.465-.174.5-.162.523-.144.548-.123.569-.1.59-.069.606-.036.62v.632l.043.641.089.649.138.655.193.659.25.663.313.664.381.665.454.664.534.663.618.658.708.652.8.643z" transform="translate(-1710.031 -545.902)" fill="#fff" fill-rule="evenodd"/></g><g id="Group_289" data-name="Group 289" transform="translate(3.128 26.554)"><path id="Path_705" data-name="Path 705" d="M1717.921 566.11l-4.02 1.011-.427-1.694 4.021-1.01 1.049.6-.623 1.1zm-.426-1.693a.873.873 0 1 1 .426 1.693l-.426-1.693zm-.181-3.494l1.23 4.089-1.673.5-1.229-4.089z" transform="translate(-1713.474 -560.923)" fill="#fff" fill-rule="evenodd"/></g><path id="Rectangle_232" data-name="Rectangle 232" transform="rotate(-82.47 10.37 -1.964)" fill="#fff" d="M0 0h1.748v9.978H0z"/><path id="Path_706" data-name="Path 706" d="M1738.4 573.271l-11.023-1.459.229-1.733 10.159 1.345 2.128-16.078 1.73.229-2.242 16.943a.874.874 0 0 1-.981.753z" transform="translate(-1711.617 -533.859)" fill="#fff"/></g></g><path id="Path_707" data-name="Path 707" d="M1189.965 438.248h14.735c1.365 0-.66-4.948-.943-5.66-.442-1.11-3.191-2.269-4.5-3.144a16.911 16.911 0 0 0-1.452 1.421c-.175.174-.279.263-.316.372-.005.014.015.122.028.236.027.248.087.7.208 1.581.114.83.231 1.685.37 2.5.153.9.193.566-.428 1.467-.2.285-.186.3-.291.343a.864.864 0 0 1-.232-.249c-.74-1.038-.654-.561-.421-2.077.07-.451.135-.891.192-1.275l.384-2.551-1.819-1.787c-2.123 1.452-3.977 1.626-4.761 3.828-.159.447-1.894 4.991-.757 4.991zm-.9-7.489l-.09.211a15.589 15.589 0 0 0 19.633 20.69c1.037-.5 2.074.649 1.135 1.032a16.991 16.991 0 0 1-21.922-22.656c-1.435-.832-1.172-1.061.085-1.716 1.94-1.011 2.827-1.776 2.648.123l-.083 2.251c.01.648-.67.756-1.406.065zm29.886 6.424v-.229a15.616 15.616 0 0 0-15.483-15.616c-.9-.035-1.022-1.168-.506-1.368h.373a16.99 16.99 0 0 1 16.988 16.988c0 .139 0 .279-.006.417a.279.279 0 0 0 .048 0c1.656.22 1.5.531.59 1.62-1.4 1.677-1.93 2.725-2.494.9l-.785-2.112c-.259-.593.328-.954 1.273-.6zm-23.6-8.361a3.579 3.579 0 0 0 3.989.036c2.162-1.48 2.711-5.429 1.906-7.461-.866-2.181-3.942-2.4-5.686-1.821-3.764 1.242-2.749 7.515-.21 9.245zm11.116 5.574c0 2.183.583 4.351 2.182 5.522 3.2 2.341 5.921-1.2 6.247-4.368.218-2.118-.173-4.255-2.538-4.905a6.871 6.871 0 0 0-2.983-.065 3.536 3.536 0 0 0-2.909 3.817zm-3.545 14.185c0 .274.018.795.367.795h14.734c1.442 0-.847-5.611-1.1-6.112-.227-.446-3.487-2.164-4.278-2.693l-1.834 1.773.726 5.012a6.864 6.864 0 0 1-.787 1.164 5.5 5.5 0 0 1-.828-1.072c-.1-.307.632-4.157.711-5.1l-1.824-1.79c-.92.65-4.029 2.314-4.27 2.667a19.993 19.993 0 0 0-1.612 5.356z" fill="none" stroke="#fff" stroke-miterlimit="2.613" stroke-width="1.065" fill-rule="evenodd"/></g></svg>