<svg xmlns="http://www.w3.org/2000/svg" width="35.78" height="35.723" viewBox="0 0 35.78 35.723"><g id="Group_304" data-name="Group 304" transform="translate(-1503.031 -4963.659)" fill="#fff"><path id="Rectangle_243" data-name="Rectangle 243" transform="translate(1503.617 4975.523)" d="M0 0h7.425v23.858H0z"/><path id="Path_2757" data-name="Path 2757" d="M1529.921 4974.921a7.8 7.8 0 0 0-7.021 3.854h-.1v-3.252h-7.112v23.858h7.4v-11.806c0-3.112.59-6.123 4.45-6.123 3.8 0 3.858 3.561 3.858 6.327v11.6h7.407v-13.095c.008-6.425-1.38-11.363-8.882-11.363z"/><path id="Path_2758" data-name="Path 2758" d="M1507.329 4963.659a4.3 4.3 0 1 0 4.3 4.3 4.295 4.295 0 0 0-4.3-4.3z"/></g></svg>