<svg xmlns="http://www.w3.org/2000/svg" width="96.849" height="96.876" viewBox="0 0 96.849 96.876"><g id="Group_883" data-name="Group 883" transform="translate(-1561.79 -2171.621)"><path id="Rectangle_472" data-name="Rectangle 472" transform="translate(1562.768 2172.811)" fill="#ed2939" d="M0 0h43.725v42.95H0z"/><path id="Rectangle_473" data-name="Rectangle 473" transform="translate(1576.857 2223.767)" fill="#2baf6a" d="M0 0h7.763v18.715H0z"/><path id="Rectangle_474" data-name="Rectangle 474" transform="translate(1576.857 2172.811)" fill="#fff" d="M0 0h15.016v18.715H0z"/><path id="Rectangle_475" data-name="Rectangle 475" transform="translate(1562.768 2224.062)" fill="#f49b78" d="M0 0h43.725v42.95H0z"/><path id="Rectangle_476" data-name="Rectangle 476" transform="translate(1576.857 2224.062)" fill="#fff" d="M0 0h15.016v18.715H0z"/><path id="Rectangle_477" data-name="Rectangle 477" transform="translate(1614.255 2224.062)" fill="#5829b2" d="M0 0h43.725v42.95H0z"/><path id="Rectangle_478" data-name="Rectangle 478" transform="translate(1628.345 2224.062)" fill="#fff" d="M0 0h15.016v18.715H0z"/><path id="Rectangle_479" data-name="Rectangle 479" transform="translate(1635.608 2223.767)" fill="#eee" d="M0 0h7.763v18.715H0z"/><g id="Group_487" data-name="Group 487" transform="translate(-2020)"><g id="Group_484" data-name="Group 484"><path id="Path_5936" data-name="Path 5936" d="M3626.28 2171.621h-43.31a1.184 1.184 0 0 0-1.18 1.19v43.54a1.178 1.178 0 0 0 1.18 1.19h43.31a1.184 1.184 0 0 0 1.18-1.19v-43.54a1.191 1.191 0 0 0-1.18-1.19zm-1.19 43.55h-40.94V2174h11.95v-1.19h2.36v1.19h4.98v-1.19h2.36v1.19h4.98v-1.19h2.37v1.19h11.94z" fill-rule="evenodd"/></g><path id="Path_5937" data-name="Path 5937" d="M3613.15 2172.811v18.46a1.184 1.184 0 0 1-1.19 1.18h-14.68a1.182 1.182 0 0 1-1.18-1.18v-18.46h2.36v17.28h4.98v-17.28h2.36v17.28h4.98v-17.28z"/><g id="Group_485" data-name="Group 485"><path id="Path_5938" data-name="Path 5938" d="M3626.28 2222.577h-43.31a1.184 1.184 0 0 0-1.18 1.19v43.54a1.178 1.178 0 0 0 1.18 1.19h43.31a1.184 1.184 0 0 0 1.18-1.19v-43.54a1.191 1.191 0 0 0-1.18-1.19zm-1.19 43.55h-40.94v-41.17h11.95v-1.19h2.36v1.19h4.98v-1.19h2.36v1.19h4.98v-1.19h2.37v1.19h11.94z" fill-rule="evenodd"/></g><path id="Path_5939" data-name="Path 5939" d="M3613.15 2223.767v18.46a1.184 1.184 0 0 1-1.19 1.18h-14.68a1.182 1.182 0 0 1-1.18-1.18v-18.46h2.36v17.28h4.98v-17.28h2.36v17.28h4.98v-17.28z"/><g id="Group_486" data-name="Group 486"><path id="Path_5940" data-name="Path 5940" d="M3677.459 2222.577h-43.31a1.184 1.184 0 0 0-1.18 1.19v43.54a1.178 1.178 0 0 0 1.18 1.19h43.31a1.184 1.184 0 0 0 1.18-1.19v-43.54a1.191 1.191 0 0 0-1.18-1.19zm-1.19 43.55h-40.94v-41.17h11.95v-1.19h2.36v1.19h4.98v-1.19h2.36v1.19h4.98v-1.19h2.37v1.19h11.94z" fill-rule="evenodd"/></g><path id="Path_5941" data-name="Path 5941" d="M3664.329 2223.767v18.46a1.184 1.184 0 0 1-1.19 1.18h-14.68a1.182 1.182 0 0 1-1.18-1.18v-18.46h2.36v17.28h4.98v-17.28h2.36v17.28h4.98v-17.28z"/></g></g></svg>