<svg xmlns="http://www.w3.org/2000/svg" viewBox="0 0 190.00005 65.24"><defs><style>.a,.b{fill:none}.b{clip-rule:evenodd}.c{clip-path:url(#a)}.d{fill:#f2ea17}.e{clip-path:url(#b)}.f{fill:#fff}.g{clip-path:url(#c)}.h{clip-path:url(#d)}.i{clip-path:url(#e)}.j{clip-path:url(#f)}</style><clipPath id="a" transform="translate(-.589 -4.471)"><path class="a" d="M10.583 32.791c0-6.283 5.43-13.81 10.633-14.697-4.572 3.012-7.657 7.718-7.657 11.836a6.98 6.98 0 0 0 1.254 4.353 6.095 6.095 0 0 1-2.628.631 4.836 4.836 0 0 1-1.5-.268 16.71 16.71 0 0 1-.102-1.855zm14.205-14.13c4.901 3.099-.572 16.135-6.752 16.135a3.033 3.033 0 0 1-1.691-.459c2.023-1.33 4.14-3.869 5.505-8.624l-.28-.1a16.024 16.024 0 0 1-5.849 8.162 5.664 5.664 0 0 1-.99-3.534c0-3.935 4.696-8.836 10.058-11.58zm-1.92 26.842c-6.96 0-11.066-4.24-12.052-9.935a4.46 4.46 0 0 0 1.103.152 7.934 7.934 0 0 0 3.491-.846 3.598 3.598 0 0 0 2.28.743c7.23 0 12.561-13.583 8-17.393 3.822-1.756 7.862-2.355 10.715-.71a18.122 18.122 0 0 0-2.082 1.762c-5.484 5.49-8.043 16.686-12.198 21.18a4.747 4.747 0 0 0-1.539-.285c-.826 0-1.58.39-1.685.87s.48.87 1.307.87a3.854 3.854 0 0 0 2.075-.64 11.909 11.909 0 0 0 1.338.078c1.681 0 3.267-.724 5.105-2.565 4.803-4.81 8.952-14.957 11.768-16.905-2.647 4.467-5.477 14.527-9.329 18.629a3.809 3.809 0 0 0-1.49-.337c-.827 0-1.581.39-1.686.87s.48.869 1.307.869a3.905 3.905 0 0 0 2.155-.689 6.063 6.063 0 0 0 1.56.23 6.754 6.754 0 0 0 4.47-2.191c5.09-5.097 11.514-15.589 16.963-21.046 1.983-1.985 5.52-4.717 10.24-4.717a11.257 11.257 0 0 1 7.086 2.608c.1-.1.061-.272-.17-.504a10.753 10.753 0 0 0-7.597-3.296c-2.512 0-6.74.872-11.864 6.004-5.468 5.473-11.67 16.44-15.742 20.52-1.709 1.71-2.82 2.096-3.719 2.096a2.392 2.392 0 0 1-.65-.094 22.002 22.002 0 0 0 2.456-2.183c6.678-6.688 8.19-18.966 11.911-22.693-.259-.259-2.077.16-5.279 3.367-5.147 5.154-8.075 14.175-13.148 19.256a6.768 6.768 0 0 1-4.297 2.25 2.63 2.63 0 0 1-.62-.08 22.776 22.776 0 0 0 2.345-2.101c3.746-3.752 7.75-15.073 12.118-20.617 4.886-.226 4.815-2.557 3.245-2.557a7.482 7.482 0 0 0-3.411 1.393 9.32 9.32 0 0 0-6.195-1.879 17.838 17.838 0 0 0-8.519 2.253c-5.588 0-13.306 5.918-13.306 15.92q0 .422.022.832a5.97 5.97 0 0 1-2.537-5.301c0-8.029 12.22-17.804 26.634-17.804a27.432 27.432 0 0 1 15.264 4.56l.208-.241C46.678 12.96 41.215 9.47 31.75 9.47c-12.446 0-26.162 7.32-26.162 19.18a7.09 7.09 0 0 0 3.852 6.38 12.792 12.792 0 0 0 12.777 11.413h163.371v-.941zM80.58 20.049a3.09 3.09 0 0 0 2.627-2.043c.396-1.128-.138-2.043-1.192-2.043a3.09 3.09 0 0 0-2.627 2.043c-.396 1.129.137 2.043 1.192 2.043zm-19.834-2.043c.396-1.128-.137-2.043-1.192-2.043a3.09 3.09 0 0 0-2.626 2.043c-.396 1.129.137 2.043 1.192 2.043a3.09 3.09 0 0 0 2.626-2.043zm21.425 9.565c2.433-2.436 3.857-2.764 4.368-2.764s.756.306.756.942c0 1.959-6.626 10.335-8.28 11.991-.829.83-2.438 2.27-3.765 2.27-2.642-.001 2.193-7.704 6.921-12.44zm-7.497 13.707c1.475 0 3.046-.823 5.495-3.487-.652 2.135.116 3.487 1.878 3.487 1.974 0 3.624-2.086 5.39-4.245l7.413-9.062c1.605-1.961 2.787-3.164 4.068-3.164 1.199 0 .985 1.443-.639 3.491a26886.3 26886.3 0 0 1-10.123 12.724h3.666l8.978-11.674c2.69-3.508 4.533-4.541 5.539-4.541.529 0 .652.387.652.786 0 1.086-.816 2.041-3.308 5.169l-8.176 10.26h3.588l8.937-11.621c3.369-4.381 4.505-4.594 5.244-4.594.514 0 .649.4.649.765 0 2.662-7.467 8.1-7.467 13.023 0 1.458 1.097 2.706 3.162 2.706 5.763 0 11.731-12.54 11.731-19.27 0-5.633-3.288-8.4-7.081-8.4-5.44 0-7.413 3.008-7.413 5.209a2.588 2.588 0 0 0 2.848 2.923c2.595 0 4.396-2.97 4.396-3.827a.186.186 0 0 0-.138-.207c-.99 2.345-2.606 3.116-3.874 3.116a1.943 1.943 0 0 1-2.162-2.157c0-1.554 1.67-4.339 6.004-4.339 4.01 0 6.383 2.572 6.383 7.682 0 8.865-5.915 18.15-10.263 18.15-1.016 0-1.303-.539-1.303-1.116 0-1.465 2.303-3.663 4.238-6.598 1.526-2.315 3.056-4.559 3.056-6.575 0-1.714-.75-2.437-1.997-2.437-1.303 0-2.797.932-5.33 3.678.44-1.652.6-3.678-1.508-3.678-1.108 0-3.038.786-5.811 3.955.807-2.544.066-3.955-1.663-3.955s-2.902 1.254-4.228 2.875l-6.557 8.02c-2.415 2.953-4.623 6.1-6.044 6.1-.92 0-1.325-1.443.217-3.384l10.603-13.354h-3.91l-.856 1.174a1.613 1.613 0 0 0-1.711-1.348c-2.808 0-6.31 2.014-8.909 4.616a24.573 24.573 0 0 0-5.027 7.785c-1.376 1.795-3.687 4.51-5.372 4.51-1.148 0-1.399-1.442.143-3.383l10.603-13.354h-3.91s-4.436 6.085-7.351 10.072v-.002c-.776 1.014-3.2 4.1-3.951 4.852-1.235 1.237-2.286 1.816-3.036 1.816-1.148 0-1.399-1.443.143-3.384 1.374-1.73 16.623-20.96 16.623-20.96H73.36s-9.821 12.942-13.41 17.676c-.777 1.014-3.2 4.1-3.952 4.852-1.234 1.237-2.286 1.816-3.035 1.816-1.149 0-1.4-1.443.143-3.384l16.623-20.96H65.88L51.9 34.532l-.017.023-.01.014-.055.074-.098.134c-.977 1.332-4.108 5.673-6.24 5.673-1.148 0-1.398-1.443.144-3.384l10.603-13.354h-3.91s-5.054 6.928-7.916 10.843-1.65 6.722.89 6.722c2.242 0 3.72-1.724 4.915-3.128-.255 1.914.831 3.128 2.485 3.128 2.241 0 3.791-1.721 4.993-3.125-.253 1.913.832 3.125 2.486 3.125 2.298 0 3.87-1.81 5.084-3.231-.296 1.987.806 3.231 2.497 3.231 1.933 0 3.77-1.803 4.996-3.223-.127 1.487.209 3.223 1.93 3.223z"/></clipPath><clipPath id="b" transform="translate(-.589 -4.471)"><path class="a" d="M146.67 14.336h7.784v27.243h-7.784z"/></clipPath><clipPath id="c" transform="translate(-.589 -4.471)"><path class="a" d="M172.94 41.579h12.649v-8.408h-5.098V14.336h-7.551v27.243z"/></clipPath><clipPath id="d" transform="translate(-.589 -4.471)"><path class="a" d="M156.4 41.579h12.649v-8.408h-5.098V14.336H156.4v27.243z"/></clipPath><clipPath id="e" transform="translate(-.589 -4.471)"><path class="a" d="M135.944 14.336v9.589h-3.845v-9.589h-7.807v27.243h7.807V30.791h3.845v10.788h7.807V14.336h-7.807z"/></clipPath><clipPath id="f" transform="translate(-.589 -4.471)"><path class="b" d="M184.489 57.091v7.08a23.992 23.992 0 0 1-5.08.54 9.234 9.234 0 0 1-3.95-.72 4.537 4.537 0 0 1-2.22-2.24 9.534 9.534 0 0 1-.71-4 9.303 9.303 0 0 1 .73-4 4.61 4.61 0 0 1 2.27-2.24 9.614 9.614 0 0 1 4.04-.72 12.9 12.9 0 0 1 4.5.72l-1.18 1.8a8.322 8.322 0 0 0-2.9-.48 5.083 5.083 0 0 0-3.72 1.15 5.215 5.215 0 0 0-1.14 3.77 5.408 5.408 0 0 0 1.08 3.77 4.647 4.647 0 0 0 3.52 1.15 14.24 14.24 0 0 0 2.3-.22v-3.5h-2.78l1.2-1.86zm-17.2 4.38a5.854 5.854 0 0 0 .94-3.72 5.854 5.854 0 0 0-.94-3.72 4.73 4.73 0 0 0-6.16 0 5.854 5.854 0 0 0-.94 3.72 5.854 5.854 0 0 0 .94 3.72 4.73 4.73 0 0 0 6.16 0zm-6.95 2.52a4.475 4.475 0 0 1-2.16-2.24 9.777 9.777 0 0 1-.69-4 9.777 9.777 0 0 1 .69-4 4.475 4.475 0 0 1 2.16-2.24 10.76 10.76 0 0 1 7.74 0 4.469 4.469 0 0 1 2.16 2.25 9.85 9.85 0 0 1 .69 4.01 9.776 9.776 0 0 1-.69 4 4.429 4.429 0 0 1-2.16 2.23 8.958 8.958 0 0 1-3.87.71 8.85 8.85 0 0 1-3.87-.72zm-3.63-1.56v2.04h-8.8v-13.44h2.66v11.4zm-14.07-.36a2.52 2.52 0 0 0 0-3.04 2.5 2.5 0 0 0-1.69-.46h-3.58v3.96h3.58a2.5 2.5 0 0 0 1.69-.46zm-.4-8.66a2.385 2.385 0 0 0-1.61-.44h-3.26v3.72h3.26a2.384 2.384 0 0 0 1.61-.44 2.303 2.303 0 0 0 0-2.84zm3.02 5.22a3.815 3.815 0 0 1 .51 2.08 3.644 3.644 0 0 1-1.01 2.87 4.93 4.93 0 0 1-3.29.89h-6.7v-13.44h6.38a4.699 4.699 0 0 1 3.16.87 3.583 3.583 0 0 1 .98 2.81 2.758 2.758 0 0 1-1.58 2.78 2.786 2.786 0 0 1 1.55 1.14z"/></clipPath></defs><title>WH-logo</title><g class="c"><path class="d" d="M0 0h190v46.973H0z"/></g><g class="e"><path class="f" d="M141.081 4.865h17.784v37.243h-17.784z"/></g><g class="g"><path class="f" d="M167.351 4.865H190v37.243h-22.649z"/></g><g class="h"><path class="f" d="M150.811 4.865h22.649v37.243h-22.649z"/></g><g class="i"><path class="f" d="M118.703 4.865h29.459v37.243h-29.459z"/></g><g class="j"><path class="d" d="M129.18 41.32h59.72v23.92h-59.72z"/></g></svg>