<svg xmlns="http://www.w3.org/2000/svg" width="163.312" height="125.25" viewBox="0 0 163.312 125.25">
  <g id="Group_312" data-name="Group 312" transform="translate(-1257.519 -1494.472)">
    <path id="Path_2761" data-name="Path 2761" d="M-1744.606,95.35A40.12,40.12,0,0,1-1711.914,78.6a40.515,40.515,0,0,1,39.32,31.4,24.881,24.881,0,0,1,4.153-.35,24.865,24.865,0,0,1,24.025,18.63l.814,6.21a24.876,24.876,0,0,1-14.8,22.722,24.578,24.578,0,0,0,.536-5.131l-.271-2.075a18.461,18.461,0,0,1-5.946,2.6c0-.175.007-.35.007-.525a18.65,18.65,0,0,0-18.63-18.633,18.61,18.61,0,0,0-5.671.889l-3.51,1.114-.507-3.65c-2.339-16.766-16.677-30.437-33.6-30.437-11.773,0-16.24,1.7-16.24,1.7" transform="translate(3056.38 1415.87)" fill="#ed2939"/>
    <path id="Path_2781" data-name="Path 2781" d="M-1652.873,349.794V333.7h-6.211v16.1a9.3,9.3,0,0,0-6.21,8.744,9.328,9.328,0,0,0,9.316,9.316,9.328,9.328,0,0,0,9.315-9.316A9.3,9.3,0,0,0-1652.873,349.794Zm-3.105,11.849a3.109,3.109,0,0,1-3.105-3.105,3.11,3.11,0,0,1,3.105-3.105,3.109,3.109,0,0,1,3.105,3.105A3.109,3.109,0,0,1-1655.978,361.643Z" transform="translate(3005.39 1251.869)"/>
    <path id="Path_2782" data-name="Path 2782" d="M-1647.9,194.565h6.211v43.473h-6.211Z" transform="translate(2994.209 1341.317)"/>
    <path id="Path_2783" data-name="Path 2783" d="M-1572.127,229.348h-6.21v49.683h31.623a9.3,9.3,0,0,0,8.744,6.211,9.328,9.328,0,0,0,9.316-9.316,9.328,9.328,0,0,0-9.316-9.316,9.3,9.3,0,0,0-8.744,6.21h-25.413Zm34.157,43.473a3.109,3.109,0,0,1,3.105,3.105,3.109,3.109,0,0,1-3.105,3.1,3.109,3.109,0,0,1-3.105-3.1A3.11,3.11,0,0,1-1537.97,272.821Z" transform="translate(2949.485 1318.955)"/>
    <path id="Path_2784" data-name="Path 2784" d="M-1578.337,194.565h6.21v6.211h-6.21Z" transform="translate(2949.485 1341.317)"/>
    <path id="Path_2785" data-name="Path 2785" d="M-1829.891,313.194a9.3,9.3,0,0,0,8.744-6.211h31.623V272.826h-6.21v27.947h-25.413a9.3,9.3,0,0,0-8.744-6.21,9.328,9.328,0,0,0-9.316,9.316A9.328,9.328,0,0,0-1829.891,313.194Zm0-12.421a3.11,3.11,0,0,1,3.105,3.105,3.109,3.109,0,0,1-3.105,3.1,3.109,3.109,0,0,1-3.105-3.1A3.109,3.109,0,0,1-1829.891,300.773Z" transform="translate(3117.199 1291.003)"/>
    <path id="Path_2786" data-name="Path 2786" d="M-1717.468,194.565h6.21V216.3h-6.21Z" transform="translate(3038.933 1341.317)"/>
    <path id="Path_2787" data-name="Path 2787" d="M-1742.1,128.285a24.861,24.861,0,0,0-24.024-18.631,24.857,24.857,0,0,0-4.151.35,40.517,40.517,0,0,0-39.321-31.4,40.126,40.126,0,0,0-32.694,16.749,24.494,24.494,0,0,0-7.674-1.223,24.993,24.993,0,0,0-23.031,15.561,24.871,24.871,0,0,0-22.733,18.6l-.814,6.21a24.87,24.87,0,0,0,24.842,24.842h18.631v-6.211H-1871.7a18.65,18.65,0,0,1-18.631-18.631,18.65,18.65,0,0,1,18.631-18.631l3.191.14.687-2.32a18.733,18.733,0,0,1,17.858-13.346,18.475,18.475,0,0,1,7.592,1.63l2.459,1.1,1.439-2.276a33.988,33.988,0,0,1,28.878-15.979,34.257,34.257,0,0,1,33.784,29.407l.51,3.648,3.509-1.114a18.6,18.6,0,0,1,5.671-.888A18.65,18.65,0,0,1-1747.49,134.5a18.65,18.65,0,0,1-18.631,18.631h-18.631v6.211h18.631a24.87,24.87,0,0,0,24.842-24.842Z" transform="translate(3154.058 1415.87)"/>
  </g>
</svg>
