<svg xmlns="http://www.w3.org/2000/svg" width="227.977" height="89.996" viewBox="0 0 227.977 89.996">
  <path id="Path_2760" data-name="Path 2760" d="M1592.541,4742.892a17.878,17.878,0,0,1,30.511,12.65c0,.038,0,.075,0,.112,34.092,5.1,26.86,54.726-4.958,54.726H1520.73l.039-.027c-.391.017-.785.027-1.181.027a25.744,25.744,0,0,1-7.64-50.327,42.947,42.947,0,0,1,80.593-17.161Zm47.029,56.139-13.136-14.629,12.239-13.295h-10.736l-8.845,9.511-.021-21.638h-8.9v40.051h8.9l.029-10.068,9.067,10.068Zm-119.519-37.269v37.269h14.741c12.293,0,20.414-7.565,20.414-18.635s-8.121-18.634-20.414-18.634Zm88.319,28.615c0-9.84-14.006-7.38-14.006-11.747,0-1.255,1.255-1.858,2.36-1.858,1.455,0,2.56.552,2.61,2.109h8.183c-.552-5.924-5.121-8.786-10.693-8.786-5.371,0-10.793,3.364-10.793,9.187,0,3.916,3.313,6.075,6.627,7.28,1.2.452,2.409.853,3.614,1.255,1.506.6,3.765,1.205,3.765,3.212,0,1.456-1.657,2.159-2.912,2.159a2.911,2.911,0,0,1-3.163-2.56h-8.283c.653,6.124,5.522,9.237,11.346,9.237,5.672,0,11.345-3.212,11.345-9.488Zm-23.648.251c-2.222,5.969-7.415,9.237-14.092,9.237a14.8,14.8,0,0,1,.055-29.593c7.9,0,14.24,5.674,14.407,14.8v2.28h-20.47c.723,3.337,3,5.4,6.008,5.4a6.384,6.384,0,0,0,5.2-2.117Zm-55.493.449v-21.361h5.229c6.953,0,11.514,4.228,11.514,10.68s-4.561,10.681-11.514,10.681Zm41.456-13.573a5.578,5.578,0,0,1,5.618,4.393h-11.514a6.116,6.116,0,0,1,5.9-4.393Zm91.194-1.547a7.659,7.659,0,0,1,7.9,6.281h-15.758c.253-2.735,2.939-6.281,7.854-6.281Zm6.51,14.926a7.16,7.16,0,0,1-6.409,3.31c-3.8.05-7.752-2.433-8.056-6.889h22.4a15.021,15.021,0,0,0-4.1-12.715,14.2,14.2,0,0,0-10.387-4.256,14.767,14.767,0,0,0,.1,29.532,13.787,13.787,0,0,0,7.955-2.431,15.589,15.589,0,0,0,5.419-6.551Zm29.926-5.657a8.348,8.348,0,0,0,8.461,8.46,7.878,7.878,0,0,0,7.4-4.458,9.546,9.546,0,0,0,1.063-3.9,8.64,8.64,0,0,0-.759-3.9,8.162,8.162,0,0,0-7.752-4.914c-5.372,0-8.411,4.356-8.411,8.662v.05Zm23.51,13.779h-6.638v-4c-1.774,3.242-5.473,4.862-9.374,4.862-8.918,0-14.136-6.939-14.136-14.791,0-8.763,6.334-14.741,14.136-14.741,5.068,0,8.157,2.685,9.374,4.914v-4.052h6.638V4799Zm-43.776-17.381c0-5.839,2.741-11.291,13.985-11.291v6.687h-.305c-4.661,0-7.043,2.178-7.043,6.991V4799h-6.637v-17.381Z" transform="translate(-1493.848 -4720.384)" fill="#fff" fill-rule="evenodd"/>
</svg>
