<svg xmlns="http://www.w3.org/2000/svg" width="72" height="72" viewBox="0 0 72 72">
  <g id="Group_879" data-name="Group 879" transform="translate(-817.119 -3076.541)">
    <g id="Group_595" data-name="Group 595" transform="translate(-6060)">
      <circle id="Ellipse_24" data-name="Ellipse 24" cx="36" cy="36" r="36" transform="translate(6877.119 3076.542)" fill="#ed2939"/>
    </g>
    <g id="Group_600" data-name="Group 600" transform="translate(-6060)">
      <rect id="Rectangle_566" data-name="Rectangle 566" width="7.425" height="23.858" transform="translate(6895.814 3106.545)" fill="#fff"/>
      <path id="Path_6073" data-name="Path 6073" d="M6922.119,3105.943a7.8,7.8,0,0,0-7.021,3.854h-.1v-3.252h-7.112V3130.4h7.4V3118.6c0-3.113.589-6.123,4.45-6.123,3.8,0,3.858,3.56,3.858,6.327v11.6h7.406v-13.1C6931.008,3110.88,6929.621,3105.943,6922.119,3105.943Z" fill="#fff"/>
      <path id="Path_6074" data-name="Path 6074" d="M6899.527,3094.68a4.3,4.3,0,1,0,4.3,4.3A4.3,4.3,0,0,0,6899.527,3094.68Z" fill="#fff"/>
    </g>
  </g>
</svg>
