<svg xmlns="http://www.w3.org/2000/svg" width="80.83" height="96.85" viewBox="0 0 80.83 96.85">
  <g id="Group_885" data-name="Group 885" transform="translate(-783.82 -1828.401)">
    <rect id="Rectangle_485" data-name="Rectangle 485" width="65.707" height="87.233" transform="translate(797.92 1836.771)" fill="#eee"/>
    <path id="Path_5926" data-name="Path 5926" d="M2805.114,1916.877h53.349l14.508-14.1v-73.135h-67.856Z" transform="translate(-2020)" fill="#558aff" fill-rule="evenodd"/>
    <rect id="Rectangle_486" data-name="Rectangle 486" width="50.283" height="11.582" transform="translate(793.894 1837.795)" fill="#fff"/>
    <rect id="Rectangle_487" data-name="Rectangle 487" width="7.763" height="5.91" transform="translate(793.895 1882.272)" fill="#fff"/>
    <rect id="Rectangle_488" data-name="Rectangle 488" width="7.763" height="14.239" transform="translate(808.104 1873.944)" fill="#fff"/>
    <rect id="Rectangle_489" data-name="Rectangle 489" width="7.763" height="23.194" transform="translate(822.259 1864.989)" fill="#fff"/>
    <rect id="Rectangle_490" data-name="Rectangle 490" width="7.763" height="31.701" transform="translate(836.414 1856.481)" fill="#ed2939"/>
    <g id="Group_483" data-name="Group 483" transform="translate(-2020)">
      <g id="Group_475" data-name="Group 475">
        <path id="Path_5927" data-name="Path 5927" d="M2857.95,1918.111h-.01c-.03,0-.07.01-.11.01h.12l.05-.02C2857.98,1918.1,2857.97,1918.111,2857.95,1918.111Zm-41.21-1.17v1.18h2.36v-1.18Z" fill-rule="evenodd"/>
        <path id="Path_5928" data-name="Path 5928" d="M2873.91,1902.941l.35-.83A1.148,1.148,0,0,1,2873.91,1902.941Z" fill-rule="evenodd"/>
        <path id="Path_5929" data-name="Path 5929" d="M2873.08,1828.4h-67.64a1.176,1.176,0,0,0-1.18,1.18l-.44,87.36a1.17,1.17,0,0,0,1.18,1.18h11.74v-1.18h2.36v1.18h38.73c.04,0,.08-.01.11-.01h.01c.02,0,.03-.01.05-.01a1.193,1.193,0,0,0,.77-.31l.87-.85.09-.09,14.17-13.9.36-.84h0v-72.53A1.182,1.182,0,0,0,2873.08,1828.4Zm-13.35,85.14v-9.66h9.86Zm12.17-12.02h-13.35a1.182,1.182,0,0,0-1.18,1.18v13.06h-51.18l.42-85h65.29Z" fill-rule="evenodd"/>
      </g>
      <g id="Group_476" data-name="Group 476">
        <path id="Path_5930" data-name="Path 5930" d="M2884.65,1836.041v88.03a1.182,1.182,0,0,1-1.18,1.18h-65.55a1.182,1.182,0,0,1-1.18-1.18v-7.13h2.36v5.95h63.19v-85.67h-9.21v-2.36h10.39A1.182,1.182,0,0,1,2884.65,1836.041Z" fill-rule="evenodd"/>
      </g>
      <g id="Group_477" data-name="Group 477">
        <path id="Path_5931" data-name="Path 5931" d="M2864.23,1836.771h-50.39a1.182,1.182,0,0,0-1.18,1.18v11.59a1.184,1.184,0,0,0,1.18,1.19h50.39a1.184,1.184,0,0,0,1.18-1.19v-11.59A1.182,1.182,0,0,0,2864.23,1836.771Zm-1.17,11.59h-48.05v-9.23h48.05Z" fill-rule="evenodd"/>
      </g>
      <rect id="Rectangle_491" data-name="Rectangle 491" width="50.284" height="2.365" transform="translate(2813.894 1895.365)"/>
      <rect id="Rectangle_492" data-name="Rectangle 492" width="26.379" height="2.365" transform="translate(2813.894 1901.379)"/>
      <g id="Group_478" data-name="Group 478">
        <rect id="Rectangle_493" data-name="Rectangle 493" width="8.036" height="2.36" transform="translate(2844.395 1901.382)"/>
      </g>
      <g id="Group_479" data-name="Group 479">
        <rect id="Rectangle_494" data-name="Rectangle 494" width="38.537" height="2.373" transform="translate(2813.894 1907.388)"/>
      </g>
      <path id="Path_5932" data-name="Path 5932" d="M2821.77,1889.479h-7.877a1.18,1.18,0,0,1-1.18-1.182v-6.007a1.181,1.181,0,0,1,1.18-1.183h7.877a1.181,1.181,0,0,1,1.181,1.183v6.007A1.18,1.18,0,0,1,2821.77,1889.479Zm-6.7-2.364h5.516v-3.643h-5.516Z"/>
      <g id="Group_480" data-name="Group 480">
        <path id="Path_5933" data-name="Path 5933" d="M2835.93,1872.881h-7.88a1.18,1.18,0,0,0-1.18,1.17v14.24a1.182,1.182,0,0,0,1.18,1.18h7.88a1.182,1.182,0,0,0,1.18-1.18v-14.24A1.18,1.18,0,0,0,2835.93,1872.881Zm-1.19,14.24h-5.51v-11.89h5.51Z" fill-rule="evenodd"/>
      </g>
      <g id="Group_481" data-name="Group 481">
        <path id="Path_5934" data-name="Path 5934" d="M2850.08,1863.9h-7.88a1.184,1.184,0,0,0-1.18,1.19v23.2a1.184,1.184,0,0,0,1.18,1.19h7.88a1.184,1.184,0,0,0,1.18-1.19v-23.2A1.184,1.184,0,0,0,2850.08,1863.9Zm-1.18,23.21h-5.52v-20.84h5.52Z" fill-rule="evenodd"/>
      </g>
      <g id="Group_482" data-name="Group 482">
        <path id="Path_5935" data-name="Path 5935" d="M2864.23,1855.241h-7.87a1.174,1.174,0,0,0-1.17,1.18v31.87a1.167,1.167,0,0,0,1.17,1.18h7.87a1.167,1.167,0,0,0,1.17-1.18v-31.87A1.174,1.174,0,0,0,2864.23,1855.241Zm-1.17,31.88h-5.53V1857.6h5.53Z" fill-rule="evenodd"/>
      </g>
    </g>
  </g>
</svg>
