<svg xmlns="http://www.w3.org/2000/svg" width="89.326" height="89.333" viewBox="0 0 89.326 89.333">
  <g id="Group_880" data-name="Group 880" transform="translate(-1566.02 -1155.589)">
    <rect id="Rectangle_255" data-name="Rectangle 255" width="87.321" height="75.358" transform="translate(1567.109 1168.111)" fill="#eee"/>
    <path id="Rectangle_256" data-name="Rectangle 256" d="M3.376,0H83.945a3.376,3.376,0,0,1,3.376,3.376v6.808a1.376,1.376,0,0,1-1.376,1.376H1.376A1.376,1.376,0,0,1,0,10.185V3.376A3.376,3.376,0,0,1,3.376,0Z" transform="translate(1567.109 1156.29)" fill="#5829b2"/>
    <rect id="Rectangle_257" data-name="Rectangle 257" width="74.219" height="59.097" transform="translate(1573.717 1175.888)" fill="#fff"/>
    <g id="Group_337" data-name="Group 337" transform="translate(-2020)">
      <path id="Path_2819" data-name="Path 2819" d="M3671.354,1157.775h-81.34v-2.186h81.34v2.186Zm3.992,1.81h-2.178l0-.091-.008-.092-.011-.093-.016-.086-.02-.087-.025-.085-.028-.085-.033-.081-.036-.08-.038-.076-.046-.077-.049-.078-.048-.067-.052-.066-.061-.069-.06-.064-.063-.06-.07-.061-.066-.052-.068-.048-.077-.05-.077-.044-.076-.04-.081-.036-.081-.033-.085-.028-.086-.025-.088-.02-.086-.016-.093-.011-.092-.008h-.092v-2.186l.205.005.2.017.2.025.2.036.193.044.189.054.185.063.182.072.177.08.174.09.165.1.159.1.161.113.151.121.142.123.139.132.132.139.123.141.121.152.113.161.1.159.1.165.09.175.081.176.072.184.063.184.053.19.046.194.035.2.025.2.016.2,0,.206Zm-2.178,81.34v-81.34h2.178v81.34h-2.178Zm-1.814,4v-2.185h0l.092,0,.092-.007.093-.011.086-.016.088-.02.086-.026.085-.028.081-.032.081-.036.076-.04.077-.045.076-.047.069-.051.068-.053.068-.059.063-.06.06-.064.059-.068.053-.067.05-.07.048-.075.045-.077.039-.077.036-.081.033-.08.028-.085.025-.085.02-.088.016-.085.011-.093.008-.092,0-.092h2.178l0,.207-.016.2-.025.2-.035.2-.046.194-.053.189-.063.185-.072.183-.081.177-.089.174-.1.167-.1.159-.112.158-.119.153-.125.143-.132.139-.139.132-.143.124-.15.119-.159.112-.161.1-.165.1-.174.089-.177.081-.182.072-.185.063-.189.054-.193.044-.2.036-.2.025-.2.016-.205.005Zm-81.34-2.185h81.34v2.185h-81.34v-2.185Zm-3.994-1.812h2.179v.092l.008.092.011.093.017.085.019.088.025.085.028.085.033.08.036.081.04.077.044.077.046.073.053.072.054.069.057.066.06.064.064.06.066.057.068.054.073.052.073.047.077.044.078.041.08.036.082.032.085.028.085.026.088.02.087.016.092.011.092.007.093,0v2.185l-.206-.005-.2-.016-.2-.025-.2-.036-.194-.044-.189-.054-.184-.063-.183-.072-.177-.081-.173-.088-.166-.1-.162-.1-.156-.11-.151-.118-.145-.126-.138-.132-.133-.139-.126-.145-.117-.151-.111-.155-.1-.162-.1-.167-.089-.174-.08-.177-.072-.183-.063-.185-.054-.189-.046-.194-.035-.2-.025-.2-.016-.2,0-.207Zm2.179-81.34v81.34h-2.179v-81.34h2.179Zm1.815-4v2.186h-.093l-.092.008-.092.011-.087.016-.088.02-.085.025-.085.028-.082.033-.08.036-.078.04-.077.044-.075.049-.071.05-.066.053-.068.059-.064.06-.06.064-.059.067-.053.068-.05.07-.048.075-.045.077-.039.076-.036.08-.033.081-.028.085-.025.085-.019.087-.017.086-.011.093-.008.092v.091h-2.179l0-.206.016-.2.025-.2.035-.2.046-.194.054-.19.063-.184.072-.184.08-.176.09-.175.1-.165.1-.161.114-.159.118-.15.124-.143.133-.139.138-.132.144-.125.152-.12.158-.111.16-.1.166-.1.173-.089.177-.08.183-.072.184-.063.189-.054.194-.044.2-.036.2-.025.2-.017.206-.005Z" fill-rule="evenodd"/>
    </g>
    <g id="Group_338" data-name="Group 338" transform="translate(-2020)">
      <rect id="Rectangle_295" data-name="Rectangle 295" width="87.148" height="2.172" transform="translate(3587.109 1167.025)"/>
    </g>
    <g id="Group_339" data-name="Group 339" transform="translate(-2020)">
      <rect id="Rectangle_296" data-name="Rectangle 296" width="7.671" height="2.172" transform="translate(3591.341 1161.109)"/>
    </g>
    <g id="Group_340" data-name="Group 340" transform="translate(-2020)">
      <rect id="Rectangle_297" data-name="Rectangle 297" width="3.174" height="2.174" transform="translate(3666.587 1161.108)"/>
    </g>
    <g id="Group_341" data-name="Group 341" transform="translate(-2020)">
      <path id="Path_2820" data-name="Path 2820" d="M3667.59,1174.45h-73.81a1.093,1.093,0,0,0-1.09,1.09v59.67a1.091,1.091,0,0,0,1.09,1.08h73.81a1.09,1.09,0,0,0,1.09-1.08v-59.67A1.093,1.093,0,0,0,3667.59,1174.45Zm-1.09,59.67h-71.63v-57.5h71.63Z" fill-rule="evenodd"/>
    </g>
    <path id="Path_5943" data-name="Path 5943" d="M3627.532,1214.654a25.257,25.257,0,0,1-6.121,3.025,21.65,21.65,0,0,0-2.942,1.079,15.119,15.119,0,0,0-2.731,1.943c-.322.268-.679.624-.6,1.035a9.874,9.874,0,0,0,4.749-.657,11.881,11.881,0,0,0,3.245-1.509,21.58,21.58,0,0,0,2.495-2.365,19.318,19.318,0,0,1,4.333-3.236,3.756,3.756,0,0,1,3.064-.57c.4.155.783.532.7.951a1.15,1.15,0,0,1-.306.506c-2.643,2.961-6.479,4.506-9.778,6.712a2.432,2.432,0,0,0,1.354-.14c4.014-1.267,7.441-3.9,10.62-6.662a.863.863,0,0,1,.445-.25.906.906,0,0,1,.512.171c1.8,1.022,3.921,1.288,5.916,1.852s4.056,1.588,4.92,3.473a2.43,2.43,0,0,1-.081,2.473,2.242,2.242,0,0,1-2.736.371,6.526,6.526,0,0,1-2.1-2.095,4.942,4.942,0,0,0-5.592-2.516c-.269.017-.586.064-.707.305-.167.333.186.684.506.877a10.739,10.739,0,0,0,2.458,1.084c.409.122.888.276,1.022.681a.862.862,0,0,1-.466.957,2.5,2.5,0,0,1-1.122.224q-11.433.477-22.881.14l28.081-.517" transform="translate(-2020)" fill="none" stroke="#2baf6a" stroke-miterlimit="10" stroke-width="0.3" fill-rule="evenodd"/>
    <path id="Path_5944" data-name="Path 5944" d="M3622.949,1190.874l.733-.751a9.913,9.913,0,0,1,2.457-2.027,7.159,7.159,0,0,1,3.7-.623c1.264.077,2.508.342,3.764.5a21.95,21.95,0,0,0,3.871.135.784.784,0,0,1,.485.077.727.727,0,0,1,.246.489,6.14,6.14,0,0,1,.043,2.082c-.094.612-.445,1.339-1.064,1.316a1.114,1.114,0,0,1-.482-.153c-.515-.278-.924-.73-1.456-.973a4.253,4.253,0,0,0-1.769-.256l-6.469-.017a4.588,4.588,0,0,0-1.838.247,3.111,3.111,0,0,0-1.67,2.624,1.041,1.041,0,0,0,.062.552c.182.374.676.442,1.091.455,3.876.12,7.843-.331,11.57.742a2.5,2.5,0,0,1,1.634,1.055,2.707,2.707,0,0,1,.218,1.109,1.748,1.748,0,0,1-.191,1.114,1.6,1.6,0,0,1-1.386.477c-2.914-.059-5.584-1.558-8.418-2.238a6.052,6.052,0,0,0-4.15.2,2.374,2.374,0,0,0-1.017.913,1.388,1.388,0,0,0-.047,1.328,2.064,2.064,0,0,0,1.427.828c3.555.8,7.4-.285,10.846.9a3.308,3.308,0,0,1,2.443,2.374,2.578,2.578,0,0,1-.34,1.533,3.708,3.708,0,0,1-4.355,1.656,9.175,9.175,0,0,1-2.394-1.576,10.653,10.653,0,0,0-7.32-2.5.591.591,0,0,0-.5.235c-.1.2.051.445.229.588a3.048,3.048,0,0,0,1.743.505,29.651,29.651,0,0,0,8.506-.643,2.4,2.4,0,0,1,1-.085.779.779,0,0,1,.654.676c.007.466-.517.736-.964.863-2.251.643-4.65.534-6.942,1.008a2.274,2.274,0,0,0-.99.39.87.87,0,0,0-.318.951,1.214,1.214,0,0,0,.305.4,6.5,6.5,0,0,0,4.786,1.981,4.162,4.162,0,0,0,3.841-3.127" transform="translate(-2020)" fill="none" stroke="#fff" stroke-miterlimit="10" stroke-width="1" fill-rule="evenodd"/>
    <g id="Group_488" data-name="Group 488" transform="translate(-2020)">
      <path id="Path_5945" data-name="Path 5945" d="M3613.427,1226.328a2.961,2.961,0,0,1-2.009-.782,3.119,3.119,0,0,1-.927-2.489l-.007-2.677a8.509,8.509,0,0,1,5.235-6.753l5.028-.965,1.6-2.319a1.644,1.644,0,0,1,1.143-.7,1.7,1.7,0,0,1,1.284.381l5.832,4.982,5.98-5a1.733,1.733,0,0,1,1.278-.367,1.657,1.657,0,0,1,1.133.7l1.5,2.181,5.434,1.372a8.506,8.506,0,0,1,4.873,8.964,3.461,3.461,0,0,1-3.307,3.406h-33.457A3.028,3.028,0,0,1,3613.427,1226.328Zm3.141-9.528a5.223,5.223,0,0,0-2.81,3.839l.017,2.351c.112-.009.221-.014.264-.014h33.417c-.067,0,.054-.022.078-.469.04-.326.548-3.937-2.728-5.537l-5.719-1.408a1.635,1.635,0,0,1-.954-.661l-.826-1.2-5.66,4.728a1.653,1.653,0,0,1-2.125-.013l-5.5-4.7-.946,1.367a1.649,1.649,0,0,1-1.05.684l-5.461,1.032Z"/>
      <path id="Path_5946" data-name="Path 5946" d="M3626.731,1222.454a1.385,1.385,0,0,1-.145-.005,1.633,1.633,0,0,1-1.18-.661l-5.012-6.789,2.65-1.957,3.908,5.3,2.509-2.373a1.654,1.654,0,0,1,2.248-.014l2.6,2.4,3.966-5.345,2.646,1.966-5.059,6.815a1.649,1.649,0,0,1-2.44.228l-2.818-2.6-2.741,2.592A1.646,1.646,0,0,1,3626.731,1222.454Z"/>
      <path id="Path_5947" data-name="Path 5947" d="M3631.133,1225.023l-.523-2.091-.451,2.042-3.218-.706.778-3.522a1.646,1.646,0,0,1,1.608-1.291h2.521a1.642,1.642,0,0,1,1.6,1.242l.883,3.522Z"/>
      <path id="Path_5948" data-name="Path 5948" d="M3631.756,1222.744h-2.429a1.639,1.639,0,0,1-1.048-.375,3.524,3.524,0,0,1-1.15-3.982,1.6,1.6,0,0,1,.4-.6l1.93-1.823a1.654,1.654,0,0,1,2.248-.014l1.974,1.823a1.654,1.654,0,0,1,.5.921,3.478,3.478,0,0,1-1.714,3.888A1.651,1.651,0,0,1,3631.756,1222.744Zm-1.191-3.289h.078l-.04-.04Z"/>
      <path id="Path_5949" data-name="Path 5949" d="M3630.762,1213.2a10.644,10.644,0,0,1-6.2-2.119,14.392,14.392,0,0,1-4.483-10.354,16.335,16.335,0,0,1,2.222-8.576,1.651,1.651,0,0,1,1.152-.751c.358-.036,8.7-1.22,15.285,2.1a1.609,1.609,0,0,1,.69.657l1.6,2.811a1.576,1.576,0,0,1,.188.51,15.838,15.838,0,0,1-4.176,13.026.594.594,0,0,1-.047.05A8.7,8.7,0,0,1,3630.762,1213.2Zm-6.033-18.627a13.506,13.506,0,0,0-1.365,6.2,10.949,10.949,0,0,0,3.374,7.847c.277.188,4.33,3.079,7.925-.4a12.568,12.568,0,0,0,3.35-9.9l-1.2-2.095C3632.324,1194.156,3626.776,1194.4,3624.729,1194.576Z"/>
      <path id="Path_5950" data-name="Path 5950" d="M3620.233,1199.765a11.482,11.482,0,0,1-.7-1.967,35.3,35.3,0,0,1-.934-6.091,7.6,7.6,0,0,1,2.078-5.667,5.862,5.862,0,0,1,3.369-1.555,10.235,10.235,0,0,1,8.1-1.1,31.707,31.707,0,0,0,7.993,1.175,1.82,1.82,0,0,1,1.6,1.126c1.443,4.344-.664,11.24-.91,12.013l-3.139-1c.507-1.6,1.568-5.939,1.168-8.88a36.318,36.318,0,0,1-7.664-1.282,6.782,6.782,0,0,0-5.644.9,2.046,2.046,0,0,1-1.019.308c-.586,0-2.585.282-2.648,3.888h0a33.146,33.146,0,0,0,.822,5.31,8.331,8.331,0,0,0,.492,1.4Z"/>
      <path id="Path_5951" data-name="Path 5951" d="M3622.079,1205.757h-1.725a2.928,2.928,0,0,1-2.925-3.217l0-3.995a3.023,3.023,0,0,1,1.133-2.128,3.656,3.656,0,0,1,2.813-.616l-.464,3.262-.188-.054v3.459h1.359Z"/>
      <path id="Path_5952" data-name="Path 5952" d="M3640.82,1205.757H3639.1v-3.289h1.358v-3.553c-.111-.1-.277-.1-.554-.013l-1-3.137a3.8,3.8,0,0,1,3.144.2,3.572,3.572,0,0,1,1.66,2.2l.045,4.446a2.984,2.984,0,0,1-.8,2.244A3.061,3.061,0,0,1,3640.82,1205.757Z"/>
    </g>
  </g>
</svg>
