<svg xmlns="http://www.w3.org/2000/svg" width="96.849" height="96.876" viewBox="0 0 96.849 96.876">
  <g id="Group_883" data-name="Group 883" transform="translate(-1561.79 -2171.621)">
    <rect id="Rectangle_472" data-name="Rectangle 472" width="43.725" height="42.95" transform="translate(1562.768 2172.811)" fill="#ed2939"/>
    <rect id="Rectangle_473" data-name="Rectangle 473" width="7.763" height="18.715" transform="translate(1576.857 2223.767)" fill="#2baf6a"/>
    <rect id="Rectangle_474" data-name="Rectangle 474" width="15.016" height="18.715" transform="translate(1576.857 2172.811)" fill="#fff"/>
    <rect id="Rectangle_475" data-name="Rectangle 475" width="43.725" height="42.95" transform="translate(1562.768 2224.062)" fill="#f49b78"/>
    <rect id="Rectangle_476" data-name="Rectangle 476" width="15.016" height="18.715" transform="translate(1576.857 2224.062)" fill="#fff"/>
    <rect id="Rectangle_477" data-name="Rectangle 477" width="43.725" height="42.95" transform="translate(1614.255 2224.062)" fill="#5829b2"/>
    <rect id="Rectangle_478" data-name="Rectangle 478" width="15.016" height="18.715" transform="translate(1628.345 2224.062)" fill="#fff"/>
    <rect id="Rectangle_479" data-name="Rectangle 479" width="7.763" height="18.715" transform="translate(1635.608 2223.767)" fill="#eee"/>
    <g id="Group_487" data-name="Group 487" transform="translate(-2020)">
      <g id="Group_484" data-name="Group 484">
        <path id="Path_5936" data-name="Path 5936" d="M3626.28,2171.621h-43.31a1.184,1.184,0,0,0-1.18,1.19v43.54a1.178,1.178,0,0,0,1.18,1.19h43.31a1.184,1.184,0,0,0,1.18-1.19v-43.54A1.191,1.191,0,0,0,3626.28,2171.621Zm-1.19,43.55h-40.94V2174h11.95v-1.19h2.36V2174h4.98v-1.19h2.36V2174h4.98v-1.19h2.37V2174h11.94Z" fill-rule="evenodd"/>
      </g>
      <path id="Path_5937" data-name="Path 5937" d="M3613.15,2172.811v18.46a1.184,1.184,0,0,1-1.19,1.18h-14.68a1.182,1.182,0,0,1-1.18-1.18v-18.46h2.36v17.28h4.98v-17.28h2.36v17.28h4.98v-17.28Z"/>
      <g id="Group_485" data-name="Group 485">
        <path id="Path_5938" data-name="Path 5938" d="M3626.28,2222.577h-43.31a1.184,1.184,0,0,0-1.18,1.19v43.54a1.178,1.178,0,0,0,1.18,1.19h43.31a1.184,1.184,0,0,0,1.18-1.19v-43.54A1.191,1.191,0,0,0,3626.28,2222.577Zm-1.19,43.55h-40.94v-41.17h11.95v-1.19h2.36v1.19h4.98v-1.19h2.36v1.19h4.98v-1.19h2.37v1.19h11.94Z" fill-rule="evenodd"/>
      </g>
      <path id="Path_5939" data-name="Path 5939" d="M3613.15,2223.767v18.46a1.184,1.184,0,0,1-1.19,1.18h-14.68a1.182,1.182,0,0,1-1.18-1.18v-18.46h2.36v17.28h4.98v-17.28h2.36v17.28h4.98v-17.28Z"/>
      <g id="Group_486" data-name="Group 486">
        <path id="Path_5940" data-name="Path 5940" d="M3677.459,2222.577h-43.31a1.184,1.184,0,0,0-1.18,1.19v43.54a1.178,1.178,0,0,0,1.18,1.19h43.31a1.184,1.184,0,0,0,1.18-1.19v-43.54A1.191,1.191,0,0,0,3677.459,2222.577Zm-1.19,43.55h-40.94v-41.17h11.95v-1.19h2.36v1.19h4.98v-1.19h2.36v1.19h4.98v-1.19h2.37v1.19h11.94Z" fill-rule="evenodd"/>
      </g>
      <path id="Path_5941" data-name="Path 5941" d="M3664.329,2223.767v18.46a1.184,1.184,0,0,1-1.19,1.18h-14.68a1.182,1.182,0,0,1-1.18-1.18v-18.46h2.36v17.28h4.98v-17.28h2.36v17.28h4.98v-17.28Z"/>
    </g>
  </g>
</svg>
