<svg xmlns="http://www.w3.org/2000/svg" width="35.78" height="35.723" viewBox="0 0 35.78 35.723">
  <g id="Group_304" data-name="Group 304" transform="translate(-1503.031 -4963.659)">
    <rect id="Rectangle_243" data-name="Rectangle 243" width="7.425" height="23.858" transform="translate(1503.617 4975.523)" fill="#fff"/>
    <path id="Path_2757" data-name="Path 2757" d="M1529.921,4974.921a7.8,7.8,0,0,0-7.021,3.854h-.1v-3.252h-7.112v23.858h7.4v-11.806c0-3.112.59-6.123,4.45-6.123,3.8,0,3.858,3.561,3.858,6.327v11.6h7.407v-13.095C1538.811,4979.859,1537.423,4974.921,1529.921,4974.921Z" fill="#fff"/>
    <path id="Path_2758" data-name="Path 2758" d="M1507.329,4963.659a4.3,4.3,0,1,0,4.3,4.3A4.295,4.295,0,0,0,1507.329,4963.659Z" fill="#fff"/>
  </g>
</svg>
