<svg xmlns="http://www.w3.org/2000/svg" width="36.911" height="30" viewBox="0 0 36.911 30">
  <path id="Path_2756" data-name="Path 2756" d="M1648.271,4970.093a15.376,15.376,0,0,1-4.345,1.191,7.624,7.624,0,0,0,3.327-4.187,15.657,15.657,0,0,1-4.809,1.821,7.564,7.564,0,0,0-13.089,5.164,7.753,7.753,0,0,0,.2,1.729,21.431,21.431,0,0,1-15.6-7.884,7.418,7.418,0,0,0-1.024,3.807,7.569,7.569,0,0,0,3.365,6.3,7.546,7.546,0,0,1-3.427-.948v.094a7.572,7.572,0,0,0,6.069,7.424,7.718,7.718,0,0,1-1.993.263,7.568,7.568,0,0,1-1.409-.133,7.593,7.593,0,0,0,7.081,5.256,15.178,15.178,0,0,1-9.385,3.237,16.231,16.231,0,0,1-1.8-.1,21.521,21.521,0,0,0,11.622,3.4c13.924,0,21.529-11.528,21.529-21.509,0-.322,0-.646-.023-.969a15.279,15.279,0,0,0,3.783-3.919Z" transform="translate(-1611.432 -4966.52)" fill="#fff"/>
</svg>
