<svg xmlns="http://www.w3.org/2000/svg" width="170.983" height="67.498" viewBox="0 0 170.983 67.498">
  <path id="Path_9212" data-name="Path 9212" d="M2244.42,73.133A13.408,13.408,0,0,1,2267.3,82.62c0,.028,0,.056,0,.084,25.569,3.822,20.144,41.045-3.719,41.045h-73.022l.03-.021c-.294.013-.589.021-.886.021A19.308,19.308,0,0,1,2183.975,86a32.21,32.21,0,0,1,60.445-12.87Zm35.272,42.1-9.852-10.972,9.178-9.971h-8.052l-6.633,7.133-.016-16.228h-6.675v30.038h6.675l.022-7.551,6.8,7.551Zm-89.64-27.952v27.952h11.056c9.22,0,15.311-5.674,15.311-13.976s-6.091-13.976-15.311-13.976Zm66.24,21.461c0-7.379-10.5-5.534-10.5-8.81,0-.941.941-1.393,1.77-1.393,1.091,0,1.92.414,1.957,1.581h6.138c-.414-4.443-3.841-6.589-8.02-6.589-4.028,0-8.095,2.523-8.095,6.89,0,2.937,2.485,4.556,4.97,5.46.9.339,1.807.64,2.711.941,1.129.452,2.824.9,2.824,2.409,0,1.093-1.243,1.619-2.184,1.619a2.182,2.182,0,0,1-2.372-1.919h-6.213c.49,4.592,4.142,6.928,8.51,6.928,4.254,0,8.509-2.41,8.509-7.117Zm-17.737.189c-1.666,4.476-5.561,6.928-10.569,6.928a11.1,11.1,0,0,1,.042-22.195c5.924,0,10.68,4.255,10.8,11.1v1.71H2223.48c.543,2.5,2.253,4.047,4.506,4.047a4.79,4.79,0,0,0,3.9-1.588Zm-41.619.336V93.251h3.922c5.214,0,8.635,3.17,8.635,8.01s-3.421,8.01-8.635,8.01Zm31.092-10.18a4.183,4.183,0,0,1,4.213,3.3h-8.635a4.588,4.588,0,0,1,4.422-3.3Zm68.4-1.16a5.748,5.748,0,0,1,5.929,4.711h-11.819a5.641,5.641,0,0,1,5.89-4.711Zm4.883,11.195a5.371,5.371,0,0,1-4.807,2.482,5.73,5.73,0,0,1-6.042-5.166h16.8a11.267,11.267,0,0,0-3.079-9.537,10.654,10.654,0,0,0-7.79-3.191,11.075,11.075,0,0,0,.076,22.149,10.342,10.342,0,0,0,5.967-1.824,11.682,11.682,0,0,0,4.064-4.913Zm22.444-4.243a6.261,6.261,0,0,0,6.346,6.345,5.909,5.909,0,0,0,5.549-3.343,7.172,7.172,0,0,0,.8-2.926,6.481,6.481,0,0,0-.57-2.925,6.122,6.122,0,0,0-5.813-3.685,6.276,6.276,0,0,0-6.309,6.5v.038Zm17.633,10.334H2336.4v-3c-1.33,2.432-4.1,3.647-7.03,3.647-6.688,0-10.6-5.205-10.6-11.094,0-6.572,4.75-11.055,10.6-11.055a7.789,7.789,0,0,1,7.03,3.685V94.36h4.979v20.857Zm-32.832-13.035c0-4.379,2.056-8.468,10.488-8.468v5.014h-.228c-3.5,0-5.282,1.634-5.282,5.244v11.245h-4.978V102.182Z" transform="translate(-2170.4 -56.251)" fill="#fff" fill-rule="evenodd"/>
</svg>
