<svg xmlns="http://www.w3.org/2000/svg" width="39.348" height="27.5" viewBox="0 0 39.348 27.5">
  <path id="Path_2755" data-name="Path 2755" d="M1711.87,4972.016a4.932,4.932,0,0,0-3.424-3.424c-3.067-.822-15.411-.822-15.411-.822s-12.312-.016-15.411.822a4.932,4.932,0,0,0-3.424,3.424,53.179,53.179,0,0,0,0,19.006,4.932,4.932,0,0,0,3.424,3.425c3.064.823,15.411.823,15.411.823s12.311,0,15.411-.823a4.931,4.931,0,0,0,3.424-3.425,55.478,55.478,0,0,0,0-19.006Zm-22.775,15.411v-11.8l10.274,5.907Z" transform="translate(-1673.344 -4967.77)" fill="#fff"/>
</svg>
