<svg xmlns="http://www.w3.org/2000/svg" width="619.115" height="696.367" viewBox="0 0 619.115 696.367">
  <g id="Group_876" data-name="Group 876" transform="translate(-1110.253 -255.698)">
    <rect id="Rectangle_304" data-name="Rectangle 304" width="619.116" height="11.498" rx="5.749" transform="translate(1110.253 940.567)" fill="#ccdef2"/>
    <path id="Path_5742" data-name="Path 5742" d="M3233.925,478.853c-4.872,6.423-7.676,12.381-6.644,16.167,1.329,4.872,8.416,3.543,37.426,1.993s41.413-10.556,35.434-25.689C3296.566,462.275,3233.925,478.853,3233.925,478.853Z" transform="translate(-2020)" fill="#eaa61f"/>
    <g id="Group_429" data-name="Group 429" transform="translate(-2020)">
      <rect id="Rectangle_305" data-name="Rectangle 305" width="66.021" height="94.785" transform="translate(3586.693 260.624)" fill="#d88971"/>
      <rect id="Rectangle_306" data-name="Rectangle 306" width="78.773" height="94.785" transform="translate(3509.151 260.624)" fill="#fcc490"/>
      <g id="Group_371" data-name="Group 371">
        <rect id="Rectangle_307" data-name="Rectangle 307" width="79.406" height="84.648" transform="translate(3512.589 283.637)" fill="#b23f3f"/>
        <rect id="Rectangle_308" data-name="Rectangle 308" width="79.407" height="84.648" transform="translate(3498.207 283.637)" fill="#8c3535"/>
        <rect id="Rectangle_309" data-name="Rectangle 309" width="75.295" height="84.648" transform="translate(3591.486 283.637)" fill="#e5594e"/>
      </g>
      <g id="Group_372" data-name="Group 372">
        <rect id="Rectangle_310" data-name="Rectangle 310" width="12.634" height="556.198" transform="translate(3480.721 267.072)" fill="#15497c"/>
      </g>
      <g id="Group_373" data-name="Group 373">
        <rect id="Rectangle_311" data-name="Rectangle 311" width="12.634" height="556.198" transform="translate(3493.049 267.072)" fill="#1a5aa4"/>
        <path id="Path_5743" data-name="Path 5743" d="M3480.721,374h24.961V823.27h-24.961Z" fill="#13446b"/>
      </g>
      <g id="Group_374" data-name="Group 374">
        <rect id="Rectangle_312" data-name="Rectangle 312" width="79.407" height="84.648" transform="translate(3433.972 395.681)" fill="#ffa85a"/>
        <rect id="Rectangle_313" data-name="Rectangle 313" width="42.419" height="84.648" transform="translate(3512.868 395.681)" fill="#a86951"/>
      </g>
      <g id="Group_375" data-name="Group 375">
        <rect id="Rectangle_314" data-name="Rectangle 314" width="48.996" height="92.867" transform="translate(3560.251 388.832)" fill="#c2d8ef"/>
        <path id="Path_5744" data-name="Path 5744" d="M3602.262,493.615h-49l18.613-65.869V389.014h7.958v12.044l4.667-.309,17.76,14.788Z" fill="#8a8aa8"/>
        <rect id="Rectangle_315" data-name="Rectangle 315" width="68.72" height="92.867" transform="translate(3602.162 388.832)" fill="#b0b0c6"/>
      </g>
      <g id="Group_377" data-name="Group 377">
        <g id="Group_376" data-name="Group 376">
          <path id="Path_5745" data-name="Path 5745" d="M3452.694,423.348l-32.876,59.172h-60.5V447.19l55.616-23.842Z" fill="#bf7666"/>
          <rect id="Rectangle_316" data-name="Rectangle 316" width="9.313" height="53.146" transform="translate(3364.112 420.061)" fill="#75d9f1"/>
          <rect id="Rectangle_317" data-name="Rectangle 317" width="45.748" height="53.146" transform="translate(3372.331 420.061)" fill="#279cd1"/>
          <rect id="Rectangle_318" data-name="Rectangle 318" width="9.313" height="53.146" transform="translate(3375.344 420.061)" fill="#75d9f1"/>
          <rect id="Rectangle_319" data-name="Rectangle 319" width="37.49" height="35.334" transform="translate(3424.108 423.353)" fill="#a86256"/>
          <rect id="Rectangle_320" data-name="Rectangle 320" width="45.748" height="53.146" transform="translate(3383.563 420.061)" fill="#279cd1"/>
          <rect id="Rectangle_321" data-name="Rectangle 321" width="9.313" height="53.146" transform="translate(3387.946 420.061)" fill="#75d9f1"/>
          <rect id="Rectangle_322" data-name="Rectangle 322" width="45.748" height="53.146" transform="translate(3396.164 420.061)" fill="#279cd1"/>
          <path id="Path_5746" data-name="Path 5746" d="M3465.017,482.521H3396.3V447.186l53.695-23.564h47.9Z" fill="#d88971"/>
        </g>
        <rect id="Rectangle_323" data-name="Rectangle 323" width="37.49" height="35.334" transform="translate(3359.045 447.186)" fill="#fcc490"/>
      </g>
      <g id="Group_379" data-name="Group 379">
        <g id="Group_378" data-name="Group 378">
          <path id="Path_5747" data-name="Path 5747" d="M3506.525,423.348l-32.875,59.172h-60.5V447.19l55.616-23.842Z" fill="#a86256"/>
          <rect id="Rectangle_324" data-name="Rectangle 324" width="37.49" height="35.334" transform="translate(3481.088 423.353)" fill="#fcc490"/>
          <path id="Path_5748" data-name="Path 5748" d="M3469.449,447.642h22.141l-7.083-34.618h-22.141Z" fill="#cccbdb"/>
          <path id="Path_5749" data-name="Path 5749" d="M3488.962,447.231l-16.687,2.2-7.3-36.353h16.687Z" fill="#8c8ca5" opacity="0.6"/>
          <rect id="Rectangle_325" data-name="Rectangle 325" width="10.957" height="35.335" transform="translate(3451.632 415.222) rotate(-11.566)" fill="#eeefe6"/>
          <path id="Path_5750" data-name="Path 5750" d="M3485.612,447.642h22.141l-7.083-34.618H3478.53Z" fill="#cccbdb"/>
          <rect id="Rectangle_326" data-name="Rectangle 326" width="10.957" height="35.335" transform="translate(3467.794 415.222) rotate(-11.566)" fill="#eeefe6"/>
          <rect id="Rectangle_327" data-name="Rectangle 327" width="37.49" height="35.334" transform="translate(3447.118 437.872)" fill="#e5bf23"/>
          <rect id="Rectangle_328" data-name="Rectangle 328" width="37.49" height="35.334" transform="translate(3418.08 437.872)" fill="#fbf65a"/>
          <path id="Path_5751" data-name="Path 5751" d="M3518.848,482.521h-68.719V447.186l53.695-23.564h15.025Z" fill="#d88971"/>
        </g>
        <rect id="Rectangle_329" data-name="Rectangle 329" width="37.49" height="35.334" transform="translate(3412.875 447.186)" fill="#fcc490"/>
      </g>
      <rect id="Rectangle_330" data-name="Rectangle 330" width="66.021" height="94.785" transform="translate(3599.842 502.245)" fill="#b87a53"/>
      <rect id="Rectangle_331" data-name="Rectangle 331" width="27.12" height="94.785" transform="translate(3573.953 502.245)" fill="#704136"/>
      <g id="Group_380" data-name="Group 380">
        <path id="Path_5752" data-name="Path 5752" d="M3603.908,606.214h-68.719V558.13l35.615-44.783h33.1Z" fill="#272523"/>
      </g>
      <g id="Group_383" data-name="Group 383">
        <g id="Group_382" data-name="Group 382">
          <g id="Group_381" data-name="Group 381">
            <rect id="Rectangle_332" data-name="Rectangle 332" width="24.047" height="92.346" transform="translate(3358.805 503.17)" fill="#fed500"/>
            <rect id="Rectangle_333" data-name="Rectangle 333" width="62.428" height="92.346" transform="translate(3382.852 503.17)" fill="#eaa61f"/>
            <rect id="Rectangle_334" data-name="Rectangle 334" width="7.191" height="41.16" transform="translate(3366.671 523.474)" fill="#fff"/>
            <rect id="Rectangle_335" data-name="Rectangle 335" width="24.047" height="12.633" transform="translate(3358.805 578.555)" fill="#5b5652"/>
            <rect id="Rectangle_336" data-name="Rectangle 336" width="56.01" height="12.633" transform="translate(3382.852 578.555)" fill="#1e2123"/>
          </g>
          <rect id="Rectangle_337" data-name="Rectangle 337" width="24.047" height="92.346" transform="translate(3388.457 503.17)" fill="#fed500"/>
          <rect id="Rectangle_338" data-name="Rectangle 338" width="62.428" height="92.346" transform="translate(3412.504 503.17)" fill="#eaa61f"/>
          <rect id="Rectangle_339" data-name="Rectangle 339" width="7.191" height="41.16" transform="translate(3396.323 523.474)" fill="#fff"/>
          <rect id="Rectangle_340" data-name="Rectangle 340" width="24.047" height="12.633" transform="translate(3388.457 578.555)" fill="#5b5652"/>
        </g>
        <rect id="Rectangle_341" data-name="Rectangle 341" width="62.458" height="12.633" transform="translate(3412.49 578.555)" fill="#1e2123"/>
      </g>
      <g id="Group_384" data-name="Group 384">
        <path id="Path_5753" data-name="Path 5753" d="M3503.23,513.344v92.868h-68.714V558.126l35.61-44.782Z" fill="#505862"/>
        <path id="Path_5754" data-name="Path 5754" d="M3503.23,513.344v44.782h-68.714l35.61-44.782Z" fill="#737b84"/>
      </g>
      <g id="Group_385" data-name="Group 385">
        <path id="Path_5755" data-name="Path 5755" d="M3509.4,606.214h-68.72V558.13l35.615-44.783h33.1Z" fill="#272523"/>
        <rect id="Rectangle_342" data-name="Rectangle 342" width="66.021" height="78.348" transform="translate(3451.5 518.683)" fill="#899122"/>
        <rect id="Rectangle_343" data-name="Rectangle 343" width="66.021" height="78.348" transform="translate(3467.526 518.683)" fill="#899122"/>
      </g>
      <g id="Group_386" data-name="Group 386">
        <path id="Path_5756" data-name="Path 5756" d="M3542.958,513.344v92.868h-68.722V558.126l35.619-44.782Z" fill="#505862"/>
        <path id="Path_5757" data-name="Path 5757" d="M3542.958,513.344v44.782h-68.722l35.619-44.782Z" fill="#737b84"/>
        <path id="Path_5758" data-name="Path 5758" d="M3513.824,516.905l-25.888,34.92-11.333,3.09,30.235-38.01Z" fill="#332e2b"/>
      </g>
      <g id="Group_387" data-name="Group 387">
        <path id="Path_5759" data-name="Path 5759" d="M3549.941,606.214h-68.72V558.13l35.616-44.783h33.1Z" fill="#272523"/>
        <rect id="Rectangle_344" data-name="Rectangle 344" width="66.021" height="94.785" transform="translate(3494.441 502.245)" fill="#b23f3f"/>
        <rect id="Rectangle_345" data-name="Rectangle 345" width="10.682" height="94.785" transform="translate(3485.196 502.245)" fill="#ff5245"/>
        <rect id="Rectangle_346" data-name="Rectangle 346" width="66.021" height="94.785" transform="translate(3510.262 502.245)" fill="#b23f3f"/>
        <rect id="Rectangle_347" data-name="Rectangle 347" width="10.682" height="94.785" transform="translate(3500.811 502.245)" fill="#ff5245"/>
        <rect id="Rectangle_348" data-name="Rectangle 348" width="10.682" height="78.348" transform="translate(3443.693 518.683)" fill="#c7d821"/>
        <rect id="Rectangle_349" data-name="Rectangle 349" width="10.682" height="78.348" transform="translate(3459.308 518.683)" fill="#c7d821"/>
      </g>
      <g id="Group_388" data-name="Group 388">
        <path id="Path_5760" data-name="Path 5760" d="M3584.321,513.344v92.868H3515.6V558.126l35.618-44.782Z" fill="#505862"/>
        <path id="Path_5761" data-name="Path 5761" d="M3584.321,513.344v44.782H3515.6l5.383-6.772,30.236-38.01Z" fill="#737b84"/>
        <path id="Path_5762" data-name="Path 5762" d="M3558.2,513.344l-25.888,34.92-11.333,3.09,30.236-38.01Z" fill="#332e2b"/>
      </g>
      <g id="Group_389" data-name="Group 389">
        <path id="Path_5763" data-name="Path 5763" d="M3591.306,606.214h-68.719V558.13l35.615-44.783h33.1Z" fill="#332e2b"/>
      </g>
      <g id="Group_393" data-name="Group 393">
        <g id="Group_390" data-name="Group 390">
          <path id="Path_5764" data-name="Path 5764" d="M3538.024,493.623H3469.3V445.539l35.615-44.783h33.1Z" fill="#505862"/>
        </g>
        <path id="Path_5765" data-name="Path 5765" d="M3545.01,493.623h-68.72V445.539l35.616-44.783h33.1Z" fill="#272523"/>
        <path id="Path_5766" data-name="Path 5766" d="M3493,483.343h-11.955l-4.359-92.867h11.955Z" fill="#fed500"/>
        <path id="Path_5767" data-name="Path 5767" d="M3552.958,483.343h-66.012l-4.359-92.867H3548.6Z" fill="#ce8d1b"/>
        <rect id="Rectangle_350" data-name="Rectangle 350" width="11.955" height="92.867" transform="translate(3492.303 393.763)" fill="#fed500"/>
        <rect id="Rectangle_351" data-name="Rectangle 351" width="66.012" height="92.867" transform="translate(3498.202 393.763)" fill="#ce8d1b"/>
        <rect id="Rectangle_352" data-name="Rectangle 352" width="11.955" height="92.867" transform="translate(3501.344 388.832)" fill="#fed500"/>
        <rect id="Rectangle_353" data-name="Rectangle 353" width="66.012" height="92.867" transform="translate(3507.242 388.832)" fill="#ce8d1b"/>
        <g id="Group_391" data-name="Group 391">
          <path id="Path_5768" data-name="Path 5768" d="M3579.39,493.623h-68.72V445.539l35.616-44.783h33.1Z" fill="#505862"/>
        </g>
        <g id="Group_392" data-name="Group 392">
          <path id="Path_5769" data-name="Path 5769" d="M3586.375,493.623h-68.72V445.539l35.616-44.783h33.1Z" fill="#332e2b"/>
        </g>
      </g>
      <g id="Group_394" data-name="Group 394">
        <path id="Path_5770" data-name="Path 5770" d="M3602.579,606.214h68.72V558.13l-35.615-44.783h-33.1Z" fill="#332e2b"/>
      </g>
      <g id="Group_395" data-name="Group 395">
        <rect id="Rectangle_354" data-name="Rectangle 354" width="73.653" height="51.772" transform="translate(3364.661 665.794)" fill="#564d47"/>
        <rect id="Rectangle_355" data-name="Rectangle 355" width="52.282" height="51.772" transform="translate(3431.229 665.794)" fill="#332e2b"/>
      </g>
      <g id="Group_396" data-name="Group 396">
        <rect id="Rectangle_356" data-name="Rectangle 356" width="122.96" height="98.35" transform="translate(3360.552 269.935)" fill="#332e2b"/>
        <rect id="Rectangle_357" data-name="Rectangle 357" width="78.585" height="35.334" transform="translate(3359.729 332.951)" fill="#564d47"/>
      </g>
      <g id="Group_397" data-name="Group 397">
        <rect id="Rectangle_358" data-name="Rectangle 358" width="52.282" height="35.334" transform="translate(3431.229 294.324)" fill="#332e2b"/>
        <rect id="Rectangle_359" data-name="Rectangle 359" width="78.585" height="35.334" transform="translate(3359.729 294.324)" fill="#564d47"/>
      </g>
      <g id="Group_398" data-name="Group 398">
        <rect id="Rectangle_360" data-name="Rectangle 360" width="52.282" height="35.334" transform="translate(3431.229 255.698)" fill="#332e2b"/>
        <rect id="Rectangle_361" data-name="Rectangle 361" width="78.585" height="35.334" transform="translate(3359.729 255.698)" fill="#564d47"/>
      </g>
      <g id="Group_399" data-name="Group 399">
        <rect id="Rectangle_362" data-name="Rectangle 362" width="73.653" height="51.772" transform="translate(3364.661 614.018)" fill="#f9dec1"/>
        <rect id="Rectangle_363" data-name="Rectangle 363" width="52.282" height="51.772" transform="translate(3431.229 614.018)" fill="#c1aa8a"/>
        <rect id="Rectangle_364" data-name="Rectangle 364" width="8.527" height="12.594" transform="translate(3455.73 614.018)" fill="#b87a53"/>
        <rect id="Rectangle_365" data-name="Rectangle 365" width="8.527" height="11.498" transform="translate(3455.73 665.794)" fill="#c1aa8a" opacity="0.2"/>
      </g>
      <g id="Group_400" data-name="Group 400">
        <rect id="Rectangle_366" data-name="Rectangle 366" width="79.406" height="84.648" transform="translate(3362.195 736.47)" fill="#eeefe6"/>
        <rect id="Rectangle_367" data-name="Rectangle 367" width="42.419" height="84.648" transform="translate(3441.092 736.47)" fill="#93878d" opacity="0.8"/>
      </g>
      <g id="Group_401" data-name="Group 401">
        <path id="Path_5771" data-name="Path 5771" d="M3604.3,733.009H3542.62v90.545h130.417V733.009Z" fill="#a86951"/>
        <rect id="Rectangle_368" data-name="Rectangle 368" width="61.681" height="29.136" transform="translate(3542.62 794.418)" fill="#a86951"/>
        <rect id="Rectangle_369" data-name="Rectangle 369" width="69.401" height="29.136" transform="translate(3603.636 794.418)" fill="#d88850"/>
        <rect id="Rectangle_370" data-name="Rectangle 370" width="61.681" height="29.136" transform="translate(3542.62 762.587)" fill="#a86951"/>
        <rect id="Rectangle_371" data-name="Rectangle 371" width="69.401" height="29.136" transform="translate(3603.636 762.587)" fill="#d88850"/>
        <rect id="Rectangle_372" data-name="Rectangle 372" width="61.681" height="29.136" transform="translate(3542.62 730.962)" fill="#a86951"/>
        <rect id="Rectangle_373" data-name="Rectangle 373" width="69.401" height="29.136" transform="translate(3603.636 730.962)" fill="#d88850"/>
        <rect id="Rectangle_374" data-name="Rectangle 374" width="11.922" height="6.263" transform="translate(3588.228 751.001)" fill="#cec0b3" opacity="0.8"/>
        <rect id="Rectangle_375" data-name="Rectangle 375" width="11.922" height="6.263" transform="translate(3588.228 781.658)" fill="#cec0b3" opacity="0.8"/>
        <rect id="Rectangle_376" data-name="Rectangle 376" width="11.922" height="6.263" transform="translate(3588.228 814.532)" fill="#cec0b3" opacity="0.8"/>
      </g>
      <g id="Group_402" data-name="Group 402">
        <path id="Path_5772" data-name="Path 5772" d="M3512.8,733.009h-60.859v90.545h129.595V733.009Z" fill="#ba5c2d"/>
        <rect id="Rectangle_377" data-name="Rectangle 377" width="61.681" height="29.136" transform="translate(3451.122 794.418)" fill="#ffb95c"/>
        <rect id="Rectangle_378" data-name="Rectangle 378" width="69.401" height="29.136" transform="translate(3512.138 794.418)" fill="#d88850"/>
        <rect id="Rectangle_379" data-name="Rectangle 379" width="61.681" height="29.136" transform="translate(3451.122 762.587)" fill="#ffb95c"/>
        <rect id="Rectangle_380" data-name="Rectangle 380" width="69.401" height="29.136" transform="translate(3512.138 762.587)" fill="#d88850"/>
        <rect id="Rectangle_381" data-name="Rectangle 381" width="61.681" height="29.136" transform="translate(3451.122 730.962)" fill="#ffb95c"/>
        <rect id="Rectangle_382" data-name="Rectangle 382" width="69.401" height="29.136" transform="translate(3512.138 730.962)" fill="#d88850"/>
        <rect id="Rectangle_383" data-name="Rectangle 383" width="26.507" height="18.488" transform="translate(3384.175 622.237)" fill="#fff"/>
        <rect id="Rectangle_384" data-name="Rectangle 384" width="10.278" height="6.263" transform="translate(3498.374 781.658)" fill="#fff"/>
        <rect id="Rectangle_385" data-name="Rectangle 385" width="10.278" height="6.263" transform="translate(3498.374 814.532)" fill="#fff"/>
        <rect id="Rectangle_386" data-name="Rectangle 386" width="10.278" height="6.263" transform="translate(3498.374 751.001)" fill="#fff"/>
        <rect id="Rectangle_387" data-name="Rectangle 387" width="13.386" height="13.41" transform="translate(3475.764 812.419)" fill="#f9dec1" opacity="0.4"/>
      </g>
      <g id="Group_403" data-name="Group 403">
        <rect id="Rectangle_388" data-name="Rectangle 388" width="48.998" height="92.86" transform="translate(3559.428 624.703)" fill="#d3bca1"/>
        <path id="Path_5773" data-name="Path 5773" d="M3602.993,655.925v59.583h-40.27V624.7h23.718Z" fill="#7f7077" opacity="0.8"/>
        <rect id="Rectangle_389" data-name="Rectangle 389" width="68.72" height="92.867" transform="translate(3601.341 624.7)" fill="#c1aa8a"/>
        <rect id="Rectangle_390" data-name="Rectangle 390" width="15.754" height="4.957" rx="2.466" transform="translate(3577.787 636.723)" fill="#505862"/>
        <rect id="Rectangle_391" data-name="Rectangle 391" width="15.755" height="8.523" transform="translate(3580.252 696.443)" fill="#505862" opacity="0.3"/>
      </g>
      <g id="Group_404" data-name="Group 404">
        <rect id="Rectangle_392" data-name="Rectangle 392" width="48.997" height="92.867" transform="translate(3470.678 624.7)" fill="#f9dec1"/>
        <rect id="Rectangle_393" data-name="Rectangle 393" width="68.72" height="92.867" transform="translate(3512.59 624.7)" fill="#c1aa8a"/>
      </g>
      <g id="Group_405" data-name="Group 405">
        <rect id="Rectangle_394" data-name="Rectangle 394" width="32.45" height="92.867" transform="translate(3454.24 276.24)" fill="#eeefe6"/>
        <rect id="Rectangle_395" data-name="Rectangle 395" width="45.512" height="92.867" transform="translate(3481.998 276.24)" fill="#c1aa8a"/>
      </g>
      <g id="Group_406" data-name="Group 406">
        <rect id="Rectangle_396" data-name="Rectangle 396" width="32.45" height="92.867" transform="translate(3492.867 276.24)" fill="#eeefe6"/>
        <rect id="Rectangle_397" data-name="Rectangle 397" width="51.265" height="92.867" transform="translate(3520.624 276.24)" fill="#c1aa8a"/>
      </g>
      <g id="Group_409" data-name="Group 409">
        <g id="Group_408" data-name="Group 408">
          <path id="Path_5774" data-name="Path 5774" d="M3552.681,933.273a14.334,14.334,0,1,1-14.334-14.374A14.353,14.353,0,0,1,3552.681,933.273Z" fill="#100f0b"/>
          <path id="Path_5775" data-name="Path 5775" d="M3648.971,933.273a14.334,14.334,0,1,1-14.334-14.374A14.353,14.353,0,0,1,3648.971,933.273Z" fill="#100f0b"/>
          <path id="Path_5776" data-name="Path 5776" d="M3418.115,933.273a14.334,14.334,0,1,1-14.334-14.374A14.353,14.353,0,0,1,3418.115,933.273Z" fill="#100f0b"/>
          <path id="Path_5777" data-name="Path 5777" d="M3514.405,933.273a14.334,14.334,0,1,1-14.334-14.374A14.353,14.353,0,0,1,3514.405,933.273Z" fill="#100f0b"/>
          <rect id="Rectangle_398" data-name="Rectangle 398" width="201.233" height="38.013" rx="3.287" transform="translate(3415.603 849.636)" fill="#272523"/>
          <rect id="Rectangle_399" data-name="Rectangle 399" width="61.238" height="38.013" rx="3.287" transform="translate(3434.916 854.567)" fill="#564d47"/>
          <path id="Path_5778" data-name="Path 5778" d="M3654.448,872.187v60.948H3381.721V872.187a12.105,12.105,0,0,1,12.064-12.072h248.6A12.1,12.1,0,0,1,3654.448,872.187Z" fill="#d85825"/>
          <path id="Path_5779" data-name="Path 5779" d="M3525.9,860.115a12.107,12.107,0,0,0-12.073,12.072v61.77h-132.1v-61.77a12.1,12.1,0,0,1,12.064-12.072Z" fill="#ff7415"/>
          <g id="Group_407" data-name="Group 407">
            <rect id="Rectangle_400" data-name="Rectangle 400" width="4.869" height="6.563" rx="1.644" transform="translate(3532.677 907.404)" fill="#272523"/>
            <rect id="Rectangle_401" data-name="Rectangle 401" width="4.869" height="6.563" rx="1.644" transform="translate(3545.068 907.404)" fill="#272523"/>
            <rect id="Rectangle_402" data-name="Rectangle 402" width="4.869" height="6.563" rx="1.644" transform="translate(3557.458 907.404)" fill="#272523"/>
            <rect id="Rectangle_403" data-name="Rectangle 403" width="4.869" height="6.563" rx="1.644" transform="translate(3569.849 907.404)" fill="#272523"/>
            <rect id="Rectangle_404" data-name="Rectangle 404" width="4.869" height="6.563" rx="1.644" transform="translate(3582.239 907.404)" fill="#272523"/>
            <rect id="Rectangle_405" data-name="Rectangle 405" width="4.869" height="6.563" rx="1.644" transform="translate(3594.63 907.404)" fill="#272523"/>
            <rect id="Rectangle_406" data-name="Rectangle 406" width="4.869" height="6.563" rx="1.644" transform="translate(3607.02 907.404)" fill="#272523"/>
            <rect id="Rectangle_407" data-name="Rectangle 407" width="4.869" height="6.563" rx="1.644" transform="translate(3619.411 907.404)" fill="#272523"/>
            <rect id="Rectangle_408" data-name="Rectangle 408" width="4.869" height="6.563" rx="1.644" transform="translate(3631.801 907.404)" fill="#272523"/>
          </g>
        </g>
        <path id="Path_5780" data-name="Path 5780" d="M3477.122,869.459a18.527,18.527,0,0,1,3.981-4.9,16.872,16.872,0,0,1,10.756-4.445h-49.314a16.874,16.874,0,0,0-10.756,4.445,18.542,18.542,0,0,0-3.98,4.9,15.183,15.183,0,0,0-1.184,2.728l-19.725,61.77h49.313l19.726-61.77A15.178,15.178,0,0,1,3477.122,869.459Z" fill="#ff9852" opacity="0.6"/>
      </g>
      <path id="Path_5781" data-name="Path 5781" d="M3501.191,878.515v55.648H3393.67V878.515a5.8,5.8,0,0,1,5.778-5.777h95.966A5.8,5.8,0,0,1,3501.191,878.515Z" fill="#3f3a36"/>
      <path id="Path_5782" data-name="Path 5782" d="M3414.05,877.669h-13.78a1.691,1.691,0,0,0-1.669,1.668v6.334h20.377a1.69,1.69,0,0,0,1.668-1.668v-6.334Z" fill="#5abcff"/>
      <path id="Path_5783" data-name="Path 5783" d="M3480.534,877.669h13.78a1.691,1.691,0,0,1,1.669,1.668v6.334h-20.377a1.69,1.69,0,0,1-1.668-1.668v-6.334Z" fill="#5abcff"/>
      <rect id="Rectangle_409" data-name="Rectangle 409" width="140.625" height="16.362" transform="translate(3513.823 916.772)" fill="#aa9f93"/>
      <rect id="Rectangle_410" data-name="Rectangle 410" width="132.102" height="17.184" transform="translate(3381.721 916.772)" fill="#f2cdaf"/>
      <rect id="Rectangle_411" data-name="Rectangle 411" width="279.294" height="10.967" transform="translate(3377.758 931.976)" fill="#564d47"/>
      <rect id="Rectangle_412" data-name="Rectangle 412" width="146.334" height="10.967" transform="translate(3510.718 931.976)" fill="#272523"/>
      <rect id="Rectangle_413" data-name="Rectangle 413" width="32.321" height="27.581" rx="3.232" transform="translate(3569.573 873.381)" fill="#cec0b3"/>
      <rect id="Rectangle_414" data-name="Rectangle 414" width="29.033" height="16.53" rx="2.466" transform="translate(3398.601 895.495)" fill="#565050"/>
      <rect id="Rectangle_415" data-name="Rectangle 415" width="20.815" height="16.53" rx="2.466" transform="translate(3437.023 886.865)" fill="#272523"/>
      <rect id="Rectangle_416" data-name="Rectangle 416" width="11.774" height="10.777" rx="1.644" transform="translate(3473.938 895.632)" fill="#272523"/>
      <path id="Path_5784" data-name="Path 5784" d="M3654.448,872.187v8.219a12.1,12.1,0,0,0-12.065-12.073h-116.5a12.106,12.106,0,0,0-12.065,12.073l-3.969-8.219c0-6.64,9.4-12.072,16.034-12.072h116.5A12.1,12.1,0,0,1,3654.448,872.187Z" fill="#ff7415"/>
      <path id="Path_5785" data-name="Path 5785" d="M3654.448,872.187v8.219a12.1,12.1,0,0,0-12.065-12.073h-71.22l-10.043-8.218h81.263A12.1,12.1,0,0,1,3654.448,872.187Z" fill="#d85825"/>
      <path id="Path_5786" data-name="Path 5786" d="M3457.838,903.4h-20.815l8.219-9.133h12.6Z" fill="#564d47"/>
      <g id="Group_410" data-name="Group 410" opacity="0.6">
        <path id="Path_5787" data-name="Path 5787" d="M3406.79,902.39h-.123q-.9,0-.9-.616t.945-.617h.666a.692.692,0,0,1,.588.226,1.219,1.219,0,0,1,.168.719v4.011q0,.945-.674.945t-.674-.945Z" fill="#f4d7c1"/>
        <path id="Path_5788" data-name="Path 5788" d="M3410.39,901.864a1.264,1.264,0,0,1,.086-.37.5.5,0,0,1,.169-.214.617.617,0,0,1,.259-.1,2.179,2.179,0,0,1,.357-.025h1.619q.855,0,.855.621a.545.545,0,0,1-.2.451.954.954,0,0,1-.6.161h-1.373l-.09.7a2.408,2.408,0,0,1,.567-.073,1.707,1.707,0,0,1,.694.143,1.632,1.632,0,0,1,.559.4,1.961,1.961,0,0,1,.37.612,2.173,2.173,0,0,1,.136.781,2.364,2.364,0,0,1-.161.875,2.1,2.1,0,0,1-.452.707,2.076,2.076,0,0,1-.7.469,2.342,2.342,0,0,1-.9.168,2.589,2.589,0,0,1-.732-.1,2.224,2.224,0,0,1-.592-.263,1.39,1.39,0,0,1-.4-.373.754.754,0,0,1-.144-.432.594.594,0,0,1,.156-.427.521.521,0,0,1,.4-.165.579.579,0,0,1,.287.078c.094.052.191.11.292.173a2.7,2.7,0,0,0,.325.172.93.93,0,0,0,.394.079.749.749,0,0,0,.321-.07.886.886,0,0,0,.444-.469.927.927,0,0,0,.065-.349.854.854,0,0,0-.2-.608.7.7,0,0,0-.538-.214.993.993,0,0,0-.251.033c-.085.022-.169.045-.251.07s-.163.048-.242.07a.878.878,0,0,1-.234.033q-.517,0-.518-.576c0-.038,0-.095.012-.172s.018-.17.029-.28Z" fill="#f4d7c1"/>
        <path id="Path_5789" data-name="Path 5789" d="M3418.189,903.787a1.6,1.6,0,0,1,.97,1.5,1.819,1.819,0,0,1-.152.739,1.753,1.753,0,0,1-.432.6,2.07,2.07,0,0,1-.661.4,2.312,2.312,0,0,1-.843.148,2.122,2.122,0,0,1-1.314-.449,2.013,2.013,0,0,1-.534-.58,1.164,1.164,0,0,1-.181-.582.648.648,0,0,1,.16-.46.551.551,0,0,1,.423-.173.531.531,0,0,1,.325.095,1.438,1.438,0,0,1,.267.275l.177.243a1.226,1.226,0,0,0,.184.205.855.855,0,0,0,.222.14.716.716,0,0,0,.288.053.67.67,0,0,0,.5-.213.743.743,0,0,0,.206-.535.536.536,0,0,0-.214-.489,1.71,1.71,0,0,0-.633-.2.794.794,0,0,1-.427-.177.556.556,0,0,1-.131-.415.52.52,0,0,1,.131-.39.884.884,0,0,1,.427-.193q.616-.148.616-.6a.5.5,0,0,0-.131-.366.471.471,0,0,0-.353-.136.566.566,0,0,0-.333.1,2.527,2.527,0,0,0-.275.226c-.126.115-.236.212-.329.292a.565.565,0,0,1-.378.119.537.537,0,0,1-.382-.16.526.526,0,0,1-.169-.4.962.962,0,0,1,.148-.495,1.633,1.633,0,0,1,.407-.451,2.242,2.242,0,0,1,.6-.331,2.07,2.07,0,0,1,.731-.128,1.9,1.9,0,0,1,.7.127,1.749,1.749,0,0,1,.555.341,1.551,1.551,0,0,1,.361.506,1.483,1.483,0,0,1,.132.62,1.336,1.336,0,0,1-.161.666A1.663,1.663,0,0,1,3418.189,903.787Z" fill="#f4d7c1"/>
      </g>
      <g id="Group_411" data-name="Group 411" opacity="0.8">
        <path id="Path_5790" data-name="Path 5790" d="M3580.016,885.409h-.148q-1.076,0-1.075-.739t1.134-.74h.8a.827.827,0,0,1,.7.271,1.458,1.458,0,0,1,.2.863v4.813q0,1.134-.808,1.134t-.809-1.134Z" fill="#3f3a36"/>
        <path id="Path_5791" data-name="Path 5791" d="M3584.336,884.778a1.529,1.529,0,0,1,.1-.443.6.6,0,0,1,.2-.257.742.742,0,0,1,.311-.118,2.685,2.685,0,0,1,.429-.03h1.943q1.026,0,1.026.745a.655.655,0,0,1-.242.541,1.144,1.144,0,0,1-.725.193h-1.647l-.108.839a2.9,2.9,0,0,1,.68-.089,2.055,2.055,0,0,1,.834.172,1.988,1.988,0,0,1,.67.484,2.3,2.3,0,0,1,.444.735,2.583,2.583,0,0,1,.163.936,2.83,2.83,0,0,1-.193,1.051,2.544,2.544,0,0,1-.542.848,2.48,2.48,0,0,1-.838.562,2.793,2.793,0,0,1-1.08.2,3.113,3.113,0,0,1-.878-.118,2.687,2.687,0,0,1-.71-.316,1.657,1.657,0,0,1-.478-.448.908.908,0,0,1-.173-.518.714.714,0,0,1,.188-.513.62.62,0,0,1,.473-.2.7.7,0,0,1,.345.093c.112.063.228.132.35.208a3.34,3.34,0,0,0,.39.206,1.129,1.129,0,0,0,.473.094.893.893,0,0,0,.385-.084,1.063,1.063,0,0,0,.315-.226,1.034,1.034,0,0,0,.217-.336,1.086,1.086,0,0,0,.079-.419,1.03,1.03,0,0,0-.241-.73.849.849,0,0,0-.646-.256,1.215,1.215,0,0,0-.3.039c-.1.027-.2.055-.3.084s-.195.058-.291.084a1.063,1.063,0,0,1-.281.039q-.621,0-.621-.69a1.824,1.824,0,0,1,.015-.207c.01-.092.021-.2.034-.335Z" fill="#3f3a36"/>
        <path id="Path_5792" data-name="Path 5792" d="M3593.7,887.086a1.923,1.923,0,0,1,1.163,1.795,2.189,2.189,0,0,1-.182.888,2.123,2.123,0,0,1-.518.719,2.519,2.519,0,0,1-.794.484,2.787,2.787,0,0,1-1.011.177,2.547,2.547,0,0,1-1.578-.539,2.412,2.412,0,0,1-.641-.7,1.4,1.4,0,0,1-.217-.7.775.775,0,0,1,.193-.552.658.658,0,0,1,.507-.207.642.642,0,0,1,.39.113,1.7,1.7,0,0,1,.32.331c.073.1.144.2.212.29a1.53,1.53,0,0,0,.222.247,1.022,1.022,0,0,0,.267.168.853.853,0,0,0,.345.064.8.8,0,0,0,.6-.256.889.889,0,0,0,.247-.641.642.642,0,0,0-.256-.587,2.038,2.038,0,0,0-.76-.242.954.954,0,0,1-.513-.212.671.671,0,0,1-.157-.5.628.628,0,0,1,.157-.469,1.073,1.073,0,0,1,.513-.231c.493-.119.74-.358.74-.72a.6.6,0,0,0-.158-.439.561.561,0,0,0-.424-.163.676.676,0,0,0-.4.114,2.86,2.86,0,0,0-.331.271c-.151.138-.283.255-.394.35a.679.679,0,0,1-.454.143.646.646,0,0,1-.458-.192.635.635,0,0,1-.2-.479,1.159,1.159,0,0,1,.178-.594,1.96,1.96,0,0,1,.488-.541,2.7,2.7,0,0,1,.725-.4,2.487,2.487,0,0,1,.877-.154,2.29,2.29,0,0,1,.844.153,2.075,2.075,0,0,1,.665.409,1.86,1.86,0,0,1,.435.607,1.806,1.806,0,0,1,.157.744,1.616,1.616,0,0,1-.192.8A2.009,2.009,0,0,1,3593.7,887.086Z" fill="#3f3a36"/>
      </g>
      <path id="Path_5793" data-name="Path 5793" d="M3483.23,901.02a2.583,2.583,0,1,1-2.584-2.583A2.583,2.583,0,0,1,3483.23,901.02Z" fill="#bf2e36"/>
      <g id="Group_414" data-name="Group 414">
        <path id="Path_5794" data-name="Path 5794" d="M3685.041,943.181h-12.2L3664.621,841.6h13.022Z" fill="#525b6d"/>
        <path id="Path_5795" data-name="Path 5795" d="M3690.343,943.181h-8.913l-4.11-101.577h13.022Z" fill="#6a7389"/>
        <rect id="Rectangle_417" data-name="Rectangle 417" width="13.022" height="101.577" transform="translate(3342.905 841.604)" fill="#9ba3ba"/>
        <path id="Path_5796" data-name="Path 5796" d="M3360.407,943.181h-9.735L3355.6,841.6h13.022Z" fill="#525b6d"/>
        <path id="Path_5797" data-name="Path 5797" d="M3540.4,943.181h-8.913L3525.73,841.6H3540.4Z" fill="#aeb7ce"/>
        <path id="Path_5798" data-name="Path 5798" d="M3548.986,943.181h-8.913V841.6h14.666Z" fill="#6a7389"/>
        <g id="Group_413" data-name="Group 413">
          <g id="Group_412" data-name="Group 412">
            <path id="Path_5799" data-name="Path 5799" d="M3543.272,849.823H3342.9V833.9h272.141Z" fill="#aeb7ce"/>
          </g>
          <rect id="Rectangle_418" data-name="Rectangle 418" width="150.27" height="15.921" transform="translate(3540.073 833.901)" fill="#6a7389"/>
        </g>
      </g>
      <g id="Group_416" data-name="Group 416">
        <g id="Group_415" data-name="Group 415">
          <path id="Path_5800" data-name="Path 5800" d="M3690.343,836.672H3337.152V820.751H3696.1Z" fill="#4189e0"/>
        </g>
        <rect id="Rectangle_419" data-name="Rectangle 419" width="156.023" height="15.921" transform="translate(3540.073 820.751)" fill="#1a5aa4"/>
      </g>
      <g id="Group_418" data-name="Group 418">
        <g id="Group_417" data-name="Group 417">
          <path id="Path_5801" data-name="Path 5801" d="M3546.285,723.26H3340.439V708.982h211.6Z" fill="#4189e0"/>
        </g>
        <rect id="Rectangle_420" data-name="Rectangle 420" width="153.557" height="14.277" transform="translate(3540.073 708.982)" fill="#1a5aa4"/>
      </g>
      <g id="Group_419" data-name="Group 419">
        <rect id="Rectangle_421" data-name="Rectangle 421" width="12.632" height="556.205" transform="translate(3527.569 267.069)" fill="#4189e0"/>
      </g>
      <g id="Group_420" data-name="Group 420">
        <rect id="Rectangle_422" data-name="Rectangle 422" width="12.634" height="556.198" transform="translate(3539.893 267.072)" fill="#1a5aa4"/>
      </g>
      <g id="Group_421" data-name="Group 421">
        <rect id="Rectangle_423" data-name="Rectangle 423" width="12.634" height="556.198" transform="translate(3683.462 267.072)" fill="#1a5aa4"/>
      </g>
      <g id="Group_422" data-name="Group 422">
        <rect id="Rectangle_424" data-name="Rectangle 424" width="12.632" height="556.205" transform="translate(3337.151 267.069)" fill="#4189e0"/>
      </g>
      <g id="Group_424" data-name="Group 424">
        <g id="Group_423" data-name="Group 423">
          <path id="Path_5802" data-name="Path 5802" d="M3543.82,609.847H3340.439l-.822-15.1h204.2Z" fill="#4189e0"/>
        </g>
        <rect id="Rectangle_425" data-name="Rectangle 425" width="153.557" height="15.099" transform="translate(3540.073 594.747)" fill="#1a5aa4"/>
      </g>
      <g id="Group_426" data-name="Group 426">
        <g id="Group_425" data-name="Group 425">
          <rect id="Rectangle_426" data-name="Rectangle 426" width="201.737" height="14.277" transform="translate(3339.617 481.335)" fill="#4189e0"/>
        </g>
        <rect id="Rectangle_427" data-name="Rectangle 427" width="153.557" height="14.277" transform="translate(3540.073 481.335)" fill="#1a5aa4"/>
      </g>
      <g id="Group_428" data-name="Group 428">
        <g id="Group_427" data-name="Group 427">
          <rect id="Rectangle_428" data-name="Rectangle 428" width="201.737" height="14.277" transform="translate(3339.617 367.922)" fill="#4189e0"/>
        </g>
        <rect id="Rectangle_429" data-name="Rectangle 429" width="153.557" height="14.277" transform="translate(3540.073 367.922)" fill="#1a5aa4"/>
      </g>
      <rect id="Rectangle_430" data-name="Rectangle 430" width="24.396" height="12.166" transform="translate(3364.77 458.77)" fill="#fff"/>
      <rect id="Rectangle_431" data-name="Rectangle 431" width="24.396" height="12.166" transform="translate(3418.6 458.77)" fill="#fff"/>
      <rect id="Rectangle_432" data-name="Rectangle 432" width="27.188" height="5.547" transform="translate(3384.681 677.706)" fill="#fff"/>
      <rect id="Rectangle_433" data-name="Rectangle 433" width="9.918" height="5.547" transform="translate(3384.681 687.601)" fill="#fff"/>
      <rect id="Rectangle_434" data-name="Rectangle 434" width="5.9" height="5.547" transform="translate(3375.55 687.601)" fill="#fed500"/>
      <rect id="Rectangle_435" data-name="Rectangle 435" width="5.9" height="5.547" transform="translate(3375.55 677.706)" fill="#fed500"/>
      <rect id="Rectangle_436" data-name="Rectangle 436" width="27.848" height="3.031" transform="translate(3370.508 282.705)" fill="#fcc490" opacity="0.5"/>
      <rect id="Rectangle_437" data-name="Rectangle 437" width="18.26" height="3.031" transform="translate(3459.266 354.753)" fill="#767687" opacity="0.7"/>
      <rect id="Rectangle_438" data-name="Rectangle 438" width="10.041" height="3.031" transform="translate(3463.376 361.053)" fill="#767687" opacity="0.7"/>
      <rect id="Rectangle_439" data-name="Rectangle 439" width="18.26" height="3.031" transform="translate(3497.345 354.753)" fill="#767687" opacity="0.7"/>
      <rect id="Rectangle_440" data-name="Rectangle 440" width="10.041" height="3.031" transform="translate(3501.454 361.053)" fill="#767687" opacity="0.7"/>
      <rect id="Rectangle_441" data-name="Rectangle 441" width="11.232" height="7.14" transform="translate(3422.463 278.595)" fill="#f9dec1" opacity="0.5"/>
      <rect id="Rectangle_442" data-name="Rectangle 442" width="11.232" height="7.14" transform="translate(3422.463 316.948)" fill="#f9dec1" opacity="0.5"/>
      <rect id="Rectangle_443" data-name="Rectangle 443" width="11.232" height="7.14" transform="translate(3422.463 355.574)" fill="#f9dec1" opacity="0.5"/>
      <rect id="Rectangle_444" data-name="Rectangle 444" width="16.163" height="10.428" transform="translate(3642.304 352.287)" fill="#f9dec1" opacity="0.5"/>
      <rect id="Rectangle_445" data-name="Rectangle 445" width="27.848" height="3.031" transform="translate(3370.508 321.057)" fill="#fcc490" opacity="0.5"/>
      <rect id="Rectangle_446" data-name="Rectangle 446" width="27.848" height="3.031" transform="translate(3370.508 359.684)" fill="#fcc490" opacity="0.5"/>
      <rect id="Rectangle_447" data-name="Rectangle 447" width="8.527" height="8.487" transform="translate(3487.215 624.7)" fill="#f9dec1" opacity="0.8"/>
      <rect id="Rectangle_448" data-name="Rectangle 448" width="15.754" height="8.523" transform="translate(3491.22 696.443)" fill="#505862" opacity="0.4"/>
      <rect id="Rectangle_449" data-name="Rectangle 449" width="15.755" height="4.957" rx="2.466" transform="translate(3482.728 636.723)" fill="#505862"/>
      <line id="Line_24" data-name="Line 24" y1="84.648" transform="translate(3400.824 736.47)" fill="none" stroke="#998265" stroke-miterlimit="10" stroke-width="2.578" opacity="0.5"/>
      <rect id="Rectangle_450" data-name="Rectangle 450" width="16.746" height="14.738" transform="translate(3392.175 736.47)" fill="#bc7762"/>
      <rect id="Rectangle_451" data-name="Rectangle 451" width="16.746" height="8.487" transform="translate(3418.473 808.381)" fill="#505862" opacity="0.4"/>
      <rect id="Rectangle_452" data-name="Rectangle 452" width="13.386" height="73.415" transform="translate(3475.764 730.852)" fill="#f9dec1" opacity="0.4"/>
      <path id="Path_5803" data-name="Path 5803" d="M3400.656,751.209h-5.971l5.233-14.738h5.97Z" fill="#d38a79"/>
      <path id="Path_5804" data-name="Path 5804" d="M3489.15,769.873l-13.386-6.4V748.259l13.386,6.4Z" fill="#f9dec1" opacity="0.4"/>
    </g>
    <g id="Group_430" data-name="Group 430" transform="translate(-2020)" opacity="0.6">
      <path id="Path_5805" data-name="Path 5805" d="M3366.125,849.822c-.142-5.382-.535-29.044-.535-29.044l14.874.009s-1.758-59.776-2.486-84.316H3362.2v84.28h-12.41V723.26h19.851l-.5-20.475c14.074-1.452,32.5-1.143,32.5-1.143a75.955,75.955,0,0,1,5.391-15.825q.522-1.18,1.094-2.406c4.852.98,7.751.12,10.36-4.229.887-1.478,1.847-2.66,1.81-5.061a1.3,1.3,0,0,0-.047-.331,2.2,2.2,0,0,0-3.107-1.867l5.1-6.129h-57.568v43.188h-14.876V609.847h27.86c-.378-1.451-.781-2.966-1.217-4.561-2.677-9.815-8.426-18.517-17.623-21.537v11h-9.02v-12.2h-.363a28.526,28.526,0,0,0-5.361-.016l-.114.016h-.115V573.1c.121-1.328,1.334-2.079,3.394-2.811a22.944,22.944,0,0,0,2.559-.52V495.612h11.061a26.156,26.156,0,0,0-13.481-11.122,6.819,6.819,0,0,0-.645-.24,31.126,31.126,0,0,0-9.568-1.594V836.673h5.753v82.045h.293q-.174.672-.293,1.1v23.362h17.5l7.554-93.359Z" fill="#8a8aa8"/>
      <path id="Path_5806" data-name="Path 5806" d="M3391.9,932.8a50.242,50.242,0,0,1-7.771-.495s-1.019-1.007-2.412-2.443v2.112h-3.963v10.967h15.44a14.475,14.475,0,0,0,3.251,2.661,7.191,7.191,0,0,0,1.086-2.816l.015-.014a2.178,2.178,0,0,0,.262-.295c.034-.06.067-.089.1-.148a1.435,1.435,0,0,0,.165-.208l.1-.18c.034-.059.067-.119.1-.18a3.086,3.086,0,0,0,.238-.449c0-.031.034-.06.037-.121a1.085,1.085,0,0,1,.138-.271,1.435,1.435,0,0,0,.038-.152c.036-.09.072-.181.107-.272,0-.03.036-.09.037-.121.076-.274.152-.547.23-.851a12.89,12.89,0,0,0,.219-1.838v-.031a1.447,1.447,0,0,1-.012-.37C3399.235,934.077,3395.638,932.719,3391.9,932.8Z" fill="#8a8aa8"/>
      <path id="Path_5807" data-name="Path 5807" d="M3364.661,665.791h57.571l10.625-12.778c.344-.414.4-.781.229-1.032l-.8-2.447c-.052-.328-.38-.544-.955-.544h-.842c.659-2.858-1.38-5.126-4.477-5.126h-41.669c.092,0,.178.009.267.013a5.021,5.021,0,0,0-.961.128l-.746-.03a5.627,5.627,0,0,1,.675.043,6.2,6.2,0,0,0-2.7,1.478,5.328,5.328,0,0,0-.574.626l-.268-2.319,4.593-.878-2.28-12.206c-.775-4.15-1.838-9.445-3.639-16.7h-14.046Z" fill="#8a8aa8"/>
    </g>
    <g id="Group_444" data-name="Group 444" transform="translate(-2020)">
      <g id="Group_432" data-name="Group 432">
        <path id="Path_5808" data-name="Path 5808" d="M3273.45,918.083a4.2,4.2,0,0,0,.59,3.621c1.735,8.382,24.594,6.743,25.553,5.929s2.712-23.4,2.394-24.488-15.331-2.207-17.486-2.419-7.631-3.389-6.625-2.632C3278.3,898.41,3274.12,915.971,3273.45,918.083Z" fill="#403023"/>
        <g id="Group_431" data-name="Group 431">
          <path id="Path_5809" data-name="Path 5809" d="M3273.085,921.552s-.882,4.68,7.518,4.441c8.019-.229,12.4-9.6,12.4-9.6l12.976-.77s.9,5.894,1.931,7.306c2.8,3.855,10.054,11.324,10.054,11.324l14.931.267s1.17,11.97-3.412,12.1-13.645.313-17.463.422-23.969-4.522-23.969-4.522-17.172.7-17.173.481C3270.853,926.791,3273.085,921.552,3273.085,921.552Z" fill="#4f3a2a"/>
        </g>
        <path id="Path_5810" data-name="Path 5810" d="M3270.59,946.185l26.039.029.125-3.944-11.559-2.549-14.917.142Z" fill="#4f3a2a"/>
        <path id="Path_5811" data-name="Path 5811" d="M3334.575,936.9l0,.032a13.808,13.808,0,0,1-.236,1.987c-.084.329-.166.624-.248.92,0,.033-.039.1-.04.132l-.116.294a1.316,1.316,0,0,1-.042.163,1.207,1.207,0,0,0-.148.293c0,.066-.039.1-.04.131a3.46,3.46,0,0,1-.258.486c-.038.065-.074.13-.11.2l-.11.194a1.432,1.432,0,0,1-.179.224c-.037.064-.072.1-.108.16a2.287,2.287,0,0,1-.284.319l-.1.1a1.429,1.429,0,0,1-.211.222c-.035.031-.1.061-.139.092a1.834,1.834,0,0,1-.276.186c-.033,0-.035.032-.068.03a.78.78,0,0,1-.376.18c-.035.032-.068.03-.1.062l-.3.084c-.034,0-.069.029-.135.026a1.635,1.635,0,0,1-.4.045c-2.036.061-4.938.144-7.841.226-2.869.085-5.806.165-7.907.222-.5.008-.968.017-1.334.031a1.639,1.639,0,0,1-.4.013l-.466-.025a.932.932,0,0,1-.3-.048l-.631-.033a.549.549,0,0,0-.231-.045c-.166-.009-.3-.049-.463-.058l-.233-.012c-.164-.042-.331-.051-.528-.094l-.167-.009a3.714,3.714,0,0,0-.627-.1.261.261,0,0,1-.132-.04,5.978,5.978,0,0,1-.727-.1c-3.8-.6-8.879-1.594-13-2.441s-7.315-1.546-7.315-1.546-17.858.638-17.88.437c-.016-2.266.057-4.329.154-6.189l.038-.732c.663-10.825,2.718-14.484,2.718-14.484s.813,6.173,9.97,4.983c6.406-.833,8.695-7.044,9.322-9.51a6.721,6.721,0,0,0,.253-1.02l3.1-.106,7.473-.211,2.77-.089s.123.839.331,1.949v.034c.025.168.085.3.109.471a.24.24,0,0,0,.027.135,2.619,2.619,0,0,0,.106.505.124.124,0,0,0,.028.1,2.807,2.807,0,0,0,.107.506l0,.066a3.668,3.668,0,0,1,.137.573.124.124,0,0,1,.028.1,4.679,4.679,0,0,1,.138.54.032.032,0,0,1,.032.035,7.686,7.686,0,0,0,1.74,3.689c3.191,4,9.213,9.94,9.213,9.94a54.142,54.142,0,0,0,8.4.536c4.036-.089,7.925,1.378,8.011,4.848A1.591,1.591,0,0,0,3334.575,936.9Z" fill="#683e3a"/>
        <path id="Path_5812" data-name="Path 5812" d="M3307.259,918.22s-8.646,1.823-16.073,4.1-10.781,12.938-10.781,12.938l-9.857-2.354c.663-10.825,2.718-14.484,2.718-14.484s.737,4.671,9.894,3.481c6.407-.834,8.057-6.878,8.685-9.344l14.435-.359Z" fill="#403023"/>
      </g>
      <g id="Group_433" data-name="Group 433">
        <path id="Path_5813" data-name="Path 5813" d="M3302.726,916.426h-32.3s-8.136-160.807-11.327-217.233c-.23-3.977-3.738-7.676-2.578-6.679l2.175-14.988,39.56,3.057s1.341,12.64,1.916,31.624C3302.078,776.243,3303.675,916.426,3302.726,916.426Z" fill="#16569b"/>
      </g>
      <g id="Group_443" data-name="Group 443">
        <g id="Group_435" data-name="Group 435">
          <path id="Path_5814" data-name="Path 5814" d="M3224.576,918.083a4.2,4.2,0,0,0,.589,3.621c1.735,8.382,24.594,6.743,25.553,5.929s2.712-23.4,2.4-24.488-15.331-2.207-17.486-2.419-7.632-3.389-6.625-2.632C3229.421,898.41,3225.246,915.971,3224.576,918.083Z" fill="#403023"/>
          <g id="Group_434" data-name="Group 434">
            <path id="Path_5815" data-name="Path 5815" d="M3224.211,921.552s-.882,4.68,7.518,4.441c8.019-.229,12.4-9.6,12.4-9.6l12.976-.77s.9,5.894,1.93,7.306c2.8,3.855,10.055,11.324,10.055,11.324l14.931.267s1.169,11.97-3.413,12.1-13.644.313-17.462.422-23.969-4.522-23.969-4.522-17.173.7-17.173.481C3221.978,926.791,3224.211,921.552,3224.211,921.552Z" fill="#4f3a2a"/>
          </g>
          <path id="Path_5816" data-name="Path 5816" d="M3221.715,946.185l26.039.029.125-3.944-11.559-2.549-14.917.142Z" fill="#4f3a2a"/>
          <path id="Path_5817" data-name="Path 5817" d="M3285.7,936.9l0,.032a13.856,13.856,0,0,1-.237,1.987c-.084.329-.166.624-.248.92,0,.033-.038.1-.04.132l-.115.294a1.519,1.519,0,0,1-.042.163,1.212,1.212,0,0,0-.149.293c0,.066-.038.1-.04.131a3.361,3.361,0,0,1-.258.486l-.11.2-.11.194a1.446,1.446,0,0,1-.178.224c-.037.064-.072.1-.109.16a2.216,2.216,0,0,1-.283.319l-.1.1a1.478,1.478,0,0,1-.212.222c-.035.031-.1.061-.138.092a1.786,1.786,0,0,1-.277.186c-.033,0-.034.032-.068.03a.777.777,0,0,1-.375.18c-.035.032-.068.03-.1.062l-.3.084c-.033,0-.068.029-.135.026a1.621,1.621,0,0,1-.4.045c-2.036.061-4.939.144-7.842.226-2.869.085-5.805.165-7.907.222-.5.008-.967.017-1.334.031a1.639,1.639,0,0,1-.4.013l-.465-.025a.928.928,0,0,1-.3-.048l-.631-.033a.555.555,0,0,0-.231-.045c-.166-.009-.3-.049-.463-.058l-.233-.012c-.165-.042-.331-.051-.529-.094l-.166-.009a3.726,3.726,0,0,0-.628-.1.26.26,0,0,1-.131-.04,5.984,5.984,0,0,1-.727-.1c-3.8-.6-8.88-1.594-13-2.441s-7.316-1.546-7.316-1.546-17.858.638-17.88.437c-.015-2.266.058-4.329.154-6.189l.038-.732c.664-10.825,2.719-14.484,2.719-14.484s.812,6.173,9.969,4.983c6.407-.833,8.695-7.044,9.323-9.51a6.721,6.721,0,0,0,.253-1.02l3.1-.106,7.473-.211,2.771-.089s.123.839.331,1.949l0,.034c.026.168.085.3.109.471a.249.249,0,0,0,.027.135,2.7,2.7,0,0,0,.107.505.12.12,0,0,0,.028.1,2.725,2.725,0,0,0,.107.506l0,.066a3.668,3.668,0,0,1,.137.573.12.12,0,0,1,.028.1,4.679,4.679,0,0,1,.138.54.033.033,0,0,1,.033.035,7.677,7.677,0,0,0,1.74,3.689c3.19,4,9.212,9.94,9.212,9.94a54.148,54.148,0,0,0,8.4.536c4.035-.089,7.925,1.378,8.01,4.848A1.548,1.548,0,0,0,3285.7,936.9Z" fill="#7c4a45"/>
          <path id="Path_5818" data-name="Path 5818" d="M3258.385,918.22s-12.12,2.782-19.188,5.3-17.524,9.386-17.524,9.386c.664-10.825,2.719-14.484,2.719-14.484s.737,4.671,9.894,3.481c6.406-.834,8.057-6.878,8.684-9.344l14.435-.359Z" fill="#403023"/>
        </g>
        <g id="Group_442" data-name="Group 442">
          <g id="Group_441" data-name="Group 441">
            <g id="Group_436" data-name="Group 436">
              <path id="Path_5819" data-name="Path 5819" d="M3259.367,916.429c1.236,0,7.329-235.306,7.329-235.306l-38.986-3.6-3.025,14.989c-1.1-1-3.551,6.676-3.551,6.676l.959,217.239Z" fill="#177fbf"/>
            </g>
            <path id="Path_5820" data-name="Path 5820" d="M3301.713,588.536l8.53,73.765,22.511-17.9" fill="none" stroke="#f28f7c" stroke-linecap="round" stroke-linejoin="round" stroke-width="16.796"/>
            <g id="Group_437" data-name="Group 437">
              <path id="Path_5821" data-name="Path 5821" d="M3318.681,618.31l-17.867,3.419-7.893,1.515-2.471-13.2c-2.383-12.791-5.634-26.885-7.7-35.061l-3.278-13.022a13.326,13.326,0,0,1-2.923-4.42c-.682-2.215.168-4.421,6.343-4.421.106,0,.221,0,.327.009a23.868,23.868,0,0,1,13.669,4.27.156.156,0,0,1,.044.036c.31.2.611.434.912.655a.293.293,0,0,1,.063.044c5.873,4.545,9.788,11.694,11.914,19.489,3.534,12.977,5.253,21.375,6.4,27.5Z" fill="#ffe536"/>
              <path id="Path_5822" data-name="Path 5822" d="M3307.449,620.49l-8.713-42.446-16.842,47.01Z" fill="#c67560" opacity="0.6"/>
            </g>
            <path id="Path_5823" data-name="Path 5823" d="M3301.794,677.179l-75.842,35.2-2.749,32.333c.385,8.925,7.126,3.074,15.961,1.75l46.668-14.33c8.834-1.325,17.043-2.593,17.028-11.526Z" fill="#177fbf"/>
            <path id="Path_5824" data-name="Path 5824" d="M3298.263,694.527s.177-.31.372-.727A.856.856,0,0,1,3298.263,694.527Z" fill="#ffe536"/>
            <path id="Path_5825" data-name="Path 5825" d="M3301.762,576.667s-.434,20.967-.948,45.062c-.655,30.393-1.417,65.765-1.577,70.3a5.5,5.5,0,0,1-.6,1.771c-.133-1.115-3.508-3.073-25.99-2.9-36.656.293-51.308,27.806-51.308,27.806V576c0-12.7,11.6-23.058,23.519-22.96h36.771c.54.009,1.072.035,1.594.088a18.193,18.193,0,0,1,8.442,2.941C3297.909,560.164,3301.762,567.977,3301.762,576.667Z" fill="#ffe536"/>
            <path id="Path_5826" data-name="Path 5826" d="M3242.737,584.59l-3.386-.832h-.907l-19.8,39.929,5.659,11.226,5.45,12.685,25.534-9.773,1.248-34.1Z" fill="#c67560" opacity="0.6"/>
            <path id="Path_5827" data-name="Path 5827" d="M3301.487,695.4s-2.6,1.417-6.865,3.641c-19.249,10.018-72.364,36.328-73.285,21.977-.071-.965-.106-2.064-.168-3.33-.036-.6-.036-1.2-.036-1.763-.8-25.388.532-95.954.532-95.954l7.45,3.26,2.79,3.6-9.567,1.524s.018,7.22,6.272,7.22c1.072,0,15.351-1.391,16.3-1.391,4.651,0,5.847-16.928,6.139-30.844.133-6.618.062-3.7.062-6.812h45.248c0,46.214.461,37.355,4.775,37.355,0,0,.035,1.081.089,3.118C3301.416,644.752,3301.85,666.411,3301.487,695.4Z" fill="#177fbf"/>
            <path id="Path_5828" data-name="Path 5828" d="M3302.355,701.419s-38.631-11.233-50.271-17.053c-16.83-8.415-16.83-37.647-18.381-46.727,0,0-.921-5.412-1.8-10.808l1.187,1.524s.018,7.22,6.272,7.22c1.072,0,4.6-1.391,5.545-1.391,4.651,0,5.847-16.928,6.139-30.844l6.794,48.472,43.38-7.308C3301.416,652.255,3301.47,670.193,3302.355,701.419Z" fill="#16569b"/>
            <g id="Group_439" data-name="Group 439">
              <path id="Path_5829" data-name="Path 5829" d="M3231.143,496.714c1.3,18.046,5.756,22.921,12.809,22.921,5.786,0,10.579-7.986,10.372-9.853s-2.282-12.861-3.941-13.483S3231.143,496.714,3231.143,496.714Z" fill="#8e3925"/>
              <path id="Path_5830" data-name="Path 5830" d="M3247.655,515.793c-1.146-2.3-1.851,5.011-1.868,4.137-.294-15.363-13.451-3.925-14.488-20.935-.885-14.5-1.009-14.63-1.4-21.676-.778-14,7.356-28.857,37.282-28.628,16.66.128,20.933,6.6,24.69,15.082,7,15.8,1.348,36.1,1.348,36.1Z" fill="#8e3925"/>
              <path id="Path_5831" data-name="Path 5831" d="M3274.589,554.115s.228,5.91-9.4,5.91a23.728,23.728,0,0,1-15.627-5.91v-29.33l25.03-1.386Z" fill="#ffb287"/>
              <path id="Path_5832" data-name="Path 5832" d="M3274.589,547.839c-6.559.8-24.853-1.548-24.853-5.856s-.177-23.425-.177-23.425l25.03.169Z" fill="#e5785c"/>
              <path id="Path_5833" data-name="Path 5833" d="M3296.212,509.169c0,5.764-5.023,19.05-8.14,23.024-1.33,1.7-3.166,5.547-7.387,6.827-3.841,1.164-6.113,1.984-6.113,4.058,0,2.252-4.727-2.112-6.341-2.112-19.185,0-28.668-20.666-28.668-34.745l5.912-18.468c0-15.413,10.23-26.492,25.118-26.378s26.875,10.265,26.875,25.677Z" fill="#e5785c"/>
              <path id="Path_5834" data-name="Path 5834" d="M3297.855,486.454l-.2,6.121-.115,3.481-.416,13.128c-.567,16.167-4.2,31.1-23.829,30.942-19.595-.133-24.848-23.855-24.316-39.233l.93-13.376c0-.558,0-1.125.036-1.657.4-20.064,8.548-27.416,22.951-27.416,17.992,0,24.4,10.55,24.945,24.147C3297.9,483.858,3297.9,485.143,3297.855,486.454Z" fill="#ffb287"/>
              <g id="Group_438" data-name="Group 438">
                <path id="Path_5835" data-name="Path 5835" d="M3280.4,512.9c2.795,0,5.172-1.575,5.048-3.185-.045-.586-.629-1.293-1.725-.777a9.386,9.386,0,0,1-3.3.5,9.163,9.163,0,0,1-3.042-.544c-1.778-.534-2.338.166-2.383.751C3274.865,511.254,3277.6,512.864,3280.4,512.9Z" fill="#e5785c"/>
              </g>
              <path id="Path_5836" data-name="Path 5836" d="M3249.274,499.486c.407,5.744-2.513,10.678-6.523,11.021s-7.59-4.037-8-9.781,1.828-10.216,5.8-10.925S3248.867,493.742,3249.274,499.486Z" fill="#e5785c"/>
              <path id="Path_5837" data-name="Path 5837" d="M3266.247,498.217a2.5,2.5,0,0,0,2.491,2.49,2.458,2.458,0,0,0,2.491-2.452,2.5,2.5,0,0,0-2.491-2.49A2.458,2.458,0,0,0,3266.247,498.217Z" fill="#422b27"/>
              <path id="Path_5838" data-name="Path 5838" d="M3288.245,498.6a2.505,2.505,0,0,0,2.491,2.491,2.459,2.459,0,0,0,2.491-2.452,2.5,2.5,0,0,0-2.491-2.491A2.46,2.46,0,0,0,3288.245,498.6Z" fill="#422b27"/>
              <path id="Path_5839" data-name="Path 5839" d="M3246.929,488.388" fill="#8e3925"/>
              <path id="Path_5840" data-name="Path 5840" d="M3256.27,486.591" fill="#8e3925"/>
              <line id="Line_25" data-name="Line 25" y1="0.226" x2="11.209" transform="translate(3261.92 487.848)" fill="none" stroke="#8e3925" stroke-linecap="round" stroke-miterlimit="10" stroke-width="3.114"/>
              <line id="Line_26" data-name="Line 26" x2="9.652" y2="0.697" transform="translate(3287.043 488.266)" fill="none" stroke="#8e3925" stroke-linecap="round" stroke-miterlimit="10" stroke-width="3.114"/>
              <path id="Path_5841" data-name="Path 5841" d="M3243.237,485.424a28.144,28.144,0,0,1,10-21.628c-2.938-3.649-4-9.1-3.377-9.606,1.037-.83,14.484-10.825,30.352-1.646,10.867,6.286,15.84,10.505,13.98,14.966.023.052.049.1.072.152l-.094-.1c-1.682,3.965-5.416,6.538-8.735,6.538-13.9,0-13.6-8.16-23.959-7.364-4.045.311-9.617,1.338-9.617,11.45a145.178,145.178,0,0,1-2.437,23.951c-3.253.211-3.3-1.9-3.3-1.9,0-5.808-.869-9.058-4.563-10.787Z" fill="#8e3925"/>
            </g>
            <path id="Path_5842" data-name="Path 5842" d="M3284.264,522.451c-1.619,1.143-4.087,1.326-6.226,1.325s-5.594-.187-7.219-1.331" fill="none" stroke="#e5785c" stroke-linecap="round" stroke-miterlimit="10" stroke-width="3.399"/>
            <g id="Group_440" data-name="Group 440">
              <path id="Path_5843" data-name="Path 5843" d="M3283.841,737.328c0-.042,0-.084-.005-.126C3283.838,737.244,3283.839,737.286,3283.841,737.328Z" fill="#602c34"/>
              <path id="Path_5844" data-name="Path 5844" d="M3283.809,736.064v0Z" fill="#602c34"/>
              <path id="Path_5845" data-name="Path 5845" d="M3283.828,734.872l0,.07Z" fill="#602c34"/>
              <path id="Path_5846" data-name="Path 5846" d="M3284.289,741.252c-.016-.086-.031-.172-.046-.257C3284.258,741.081,3284.273,741.166,3284.289,741.252Z" fill="#602c34"/>
              <path id="Path_5847" data-name="Path 5847" d="M3284.063,739.839c0-.04-.009-.079-.014-.118C3284.054,739.76,3284.058,739.8,3284.063,739.839Z" fill="#602c34"/>
              <path id="Path_5848" data-name="Path 5848" d="M3283.932,738.646c-.006-.063-.012-.126-.018-.188C3283.92,738.52,3283.926,738.583,3283.932,738.646Z" fill="#602c34"/>
            </g>
            <path id="Path_5849" data-name="Path 5849" d="M3233.064,594.16l10.478,68.434,48.483-11" fill="none" stroke="#ffb287" stroke-linecap="round" stroke-linejoin="round" stroke-width="16.796"/>
            <path id="Path_5850" data-name="Path 5850" d="M3246.265,624.76l.479,2.755-15.635,9.4-1.376-9.042Z" fill="#e5785c" opacity="0.6"/>
            <path id="Path_5851" data-name="Path 5851" d="M3245.458,553.045c-27.328,0-33.252,16.257-33,29.92.251,13.449,5.772,47.845,5.772,47.845l29.78-6-5.275-41.264Z" fill="#ffe536"/>
          </g>
          <path id="Path_5852" data-name="Path 5852" d="M3244.852,553.046c13.047,0,16.09,30.629,15.917,44.358l-4.5.237-5.149-.237c.173-13.729-3.066-43.913-17.6-43.095,0,0,3.249-.61,5.531-.935A52.708,52.708,0,0,1,3244.852,553.046Z" fill="#177fbf"/>
          <path id="Path_5853" data-name="Path 5853" d="M3280.631,553.045a30.883,30.883,0,0,0-5.8-.017l-.247.036v1.05a3.862,3.862,0,0,1-.119.936c10.147,3.735,12.581,31.321,12.43,43.241l5.6-.433,3.87.433C3296.537,584.56,3293.678,553.045,3280.631,553.045Z" fill="#177fbf"/>
        </g>
        <path id="Path_5854" data-name="Path 5854" d="M3280.221,646.2c4.159-2.218,9.4-8.288,11.673-10.476s15.237-.549,15.783,1.332-3.041,4.684-3.188,5.25a11.31,11.31,0,0,1-2.024,3.062c-.618.554-1.405-.273-2.836.832s-7.457,2.079-8.095,2.495a47.133,47.133,0,0,1-6.021,2.08C3284.795,650.916,3280.221,646.2,3280.221,646.2Z" fill="#ffb287"/>
        <path id="Path_5855" data-name="Path 5855" d="M3296.89,557.4a11.716,11.716,0,0,0-5.227-1.329c-4.482-.31-10.3.532-15.112,1.471-1.789.354-3.428.717-4.819,1.045a5.316,5.316,0,0,0,2.853-4.473v-1.072h7.042c.54.009,1.072.035,1.594.088A23.868,23.868,0,0,1,3296.89,557.4Z" fill="#c67560" opacity="0.6"/>
      </g>
      <path id="Path_5856" data-name="Path 5856" d="M3322.691,621.885c-1.144-3.049-5.189-3.426-8.062-.794-5.834,5.346,6.385,13.652,7.343,16.766l-12.218,6.708s9.184-6.229,9.1-5.989,7.187-14.454,7.187-14.454Z" fill="#9fb9d1"/>
      <path id="Path_5857" data-name="Path 5857" d="M3371.073,628.121l-.872-2.665c-.056-.355-.41-.589-1.031-.589h-53.647a4.654,4.654,0,0,0-3.142,1.473l-41.417,49.807c-.35.42-.429.8-.282,1.067l.933,2.755,2.853-2.349H3325.3a4.655,4.655,0,0,0,3.142-1.473l40.012-48.116-.165.636Z" fill="#d64556"/>
      <path id="Path_5858" data-name="Path 5858" d="M3317.944,624.865l1.587,2.875h4.282l-.629-2.875Z" fill="#7a1b38"/>
      <path id="Path_5859" data-name="Path 5859" d="M3328.177,680.5H3270.7l43.867-52.753h57.48Z" fill="#962643"/>
      <path id="Path_5860" data-name="Path 5860" d="M3366.644,625.244a6.741,6.741,0,0,1-.709,1.629c-1.293,2.2-4.715,4.888-6.871,7.753-14.451,19.243-26.91,38.17-28.347,46.316,0,0-28.511-.479-43.365,2.4,0,0,1.036-18.046,28.2-50.475,2.568-3.067,4.7-4.466,5.587-7.581.862-3.047-.786-5.836-4.313-5.836l44.482,1.76C3364.744,621.206,3367.545,622.034,3366.644,625.244Z" fill="#9fb9d1"/>
      <path id="Path_5861" data-name="Path 5861" d="M3368.2,625.124a6.806,6.806,0,0,1-.709,1.63c-1.294,2.194-4.715,4.887-6.872,7.752a156.632,156.632,0,0,0-12.305,19.186c-2.108,3.862-3.909,7.561-5.424,10.982a82.128,82.128,0,0,0-5.826,17.106s-28.51-.479-43.364,2.4c0,0-3.757-19,23.4-51.433,2.568-3.067,4.705-4.466,5.587-7.58.815-2.885-.613-5.539-3.766-5.817l43.939,1.744C3366.3,621.09,3369.1,621.914,3368.2,625.124Z" fill="#c2d8ef"/>
      <path id="Path_5862" data-name="Path 5862" d="M3348.316,653.692c-2.108,3.862-3.909,7.561-5.424,10.982a8.353,8.353,0,0,1-1.111-.7c-2.875-2.157.795-8.146.795-8.146a17.016,17.016,0,0,1-.719-3.68c-.076-1.677,1.994-.393,4,.719C3345.854,652.868,3346.9,653.213,3348.316,653.692Z" fill="#9fb9d1"/>
      <path id="Path_5863" data-name="Path 5863" d="M3354.795,651.833c-1.757.958-6.549,1.038-10.542,0" fill="none" stroke="#ffa68a" stroke-linecap="round" stroke-linejoin="round" stroke-width="4.792"/>
      <path id="Path_5864" data-name="Path 5864" d="M3352.718,651.434c-2.386-.208-6.708-.719-7.986.878s-5.84,8.662-.958,9.7c5.431,1.158,8.625.28,11.5-4.512.959-1.6,2-2.875,1.957-5.471C3357.2,650.3,3355.167,651.646,3352.718,651.434Z" fill="#ffa68a"/>
      <path id="Path_5865" data-name="Path 5865" d="M3368.2,625.124c-3.172.231-43.709.115-45.511.039.862-3.047-.786-5.836-4.313-5.836h45.042C3366.86,619.327,3369.1,621.914,3368.2,625.124Z" fill="#def1ff"/>
      <path id="Path_5866" data-name="Path 5866" d="M3307.693,916.426h-16.128l-6.557-.336-12.789-179.685,30.453-23.987C3304.579,776.453,3308.642,916.426,3307.693,916.426Z" fill="#177fbf"/>
      <path id="Path_5867" data-name="Path 5867" d="M3270.244,749.032l8.858-15.945-13.73,5.536Z" fill="#16569b"/>
      <path id="Path_5868" data-name="Path 5868" d="M3297.886,484.586c0-.063,0-.125,0-.187-.051-14.453-6.2-25.957-24.981-25.957-14.406,0-20.586,10.009-21.705,30.82.244-2.951,5.4-4.018,12.18-5.094,3.006,3.415,18.528,12.033,34.166,8.342l.115.065.113-3.543.084-2.576C3297.879,485.827,3297.886,485.2,3297.886,484.586Z" fill="#c67560" opacity="0.6"/>
      <path id="Path_5869" data-name="Path 5869" d="M3260.943,609.292v17.274h27.018V609.292" fill="#27a3e0" opacity="0.5"/>
    </g>
    <g id="Group_445" data-name="Group 445" transform="translate(-2020)">
      <path id="Path_5870" data-name="Path 5870" d="M3230.6,493.913a2.657,2.657,0,0,1-1.927-4.487c.538-.568,13.593-13.894,48.876-13.894,15.424,0,20.013,1.438,21.482,6.2,1.457,4.728-1.458,8.748-1.329,7.973.221-1.329.443-4.319-.775-5.869-.021-.025-1.509-2.989-19.378-2.989-33.024,0-44.905,12.115-45.022,12.238A2.65,2.65,0,0,1,3230.6,493.913Z" fill="#632c42"/>
    </g>
    <path id="Path_5871" data-name="Path 5871" d="M3299.158,477.082c-1.267-.966-2.552-1.152-5.174-1.116-.956.008-2.1.053-3.481.1-1.851.062-4.146.124-7.025.124a125.046,125.046,0,0,0-35.034,4.872c-10.241,3.092-17.956,8.309-20.614,12.854-.8.584-1.7-5.112-2.17-11.029-.151-1.949-.257-3.924-.292-5.714-.027-.4-.027-.78-.027-1.16a33.478,33.478,0,0,1,1.054-8.362c2.64-9.993,10.223-18.736,23.563-22.891q2.272-.717,4.757-1.24c.922-.194,1.869-.372,2.844-.522.071,0,.142-.045.186-.045,1.913-.292,3.906-.5,6.024-.655.115-.009.23-.018.354-.026.8-.045,1.559-.071,2.33-.071a36.913,36.913,0,0,1,12.5,1.878,7.588,7.588,0,0,1,.753.283,31.037,31.037,0,0,1,17.8,16.866C3301.106,469.339,3300.814,476.949,3299.158,477.082Z" transform="translate(-2020)" fill="#ffdc2b"/>
    <path id="Path_5872" data-name="Path 5872" d="M3293.984,475.966c-.212.691-.5,1.089-.877,1.116a5.007,5.007,0,0,0-2.6-1.019c-2.224-.292-5.723.124-13.075.124l-7.14-.2c1.772-.141,2.082-8.247-1.763-16.893a33.4,33.4,0,0,0-13.81-15.573c.922-.194,1.869-.372,2.844-.522.071,0,.142-.045.186-.045,1.913-.292,3.906-.5,6.024-.655a35.319,35.319,0,0,1,9.124,1.781,7.842,7.842,0,0,1,.761.283,31.063,31.063,0,0,1,17.8,16.866C3294.259,467.541,3294.7,473.547,3293.984,475.966Z" transform="translate(-2020)" fill="#fff" opacity="0.6"/>
    <path id="Path_5873" data-name="Path 5873" d="M3293.958,461.226a31.031,31.031,0,0,0-17.8-16.871c-.244-.11-.5-.2-.756-.281a37,37,0,0,0-12.5-1.875c-.768,0-1.536.025-2.327.073-1.664.108-3.241.274-4.781.473,6.619,1.192,12.651,9.8,15.33,15.882,3.841,8.643,3.436,17.216,1.671,17.359l7.136.2c10.878,0,13.326-.9,15.677.9C3297.271,476.952,3297.563,469.339,3293.958,461.226Z" transform="translate(-2020)" fill="#ffdc2b"/>
    <path id="Path_5874" data-name="Path 5874" d="M3227.281,494.872c2.266-5.055,10.919-10.719,21.164-13.813a125.148,125.148,0,0,1,35.033-4.873c10.878,0,13.327-.9,15.678.9,1.656-.134,1.949-7.748-1.657-15.861a31.026,31.026,0,0,0-17.8-16.87c7.869,4.86,11.286,20.258,11.47,24.309.074,1.624-8.968.222-35.655,6.755C3234.257,480.625,3222.852,488.524,3227.281,494.872Z" transform="translate(-2020)" fill="#f7c52c"/>
    <path id="Path_5875" data-name="Path 5875" d="M3316.75,473.025s-13.766,3.118-18.159,4.278a12.3,12.3,0,0,0-4.208-1.488,63.325,63.325,0,0,0-13.509-1.169c-3.791,0-9.54.983-14.838,2.1-6.954,1.453-13.137,3.145-13.137,3.145l-.522-3.544s3.9-2.684,13.659-5a137.071,137.071,0,0,1,28.347-3.278c1.639-.044,3.34-.062,5.093-.062,11.552,0,16.3.771,17.168,1.887C3317.034,470.385,3316.75,473.025,3316.75,473.025Z" transform="translate(-2020)" fill="#ffe536"/>
    <path id="Path_5876" data-name="Path 5876" d="M3294.383,468.064v7.751a63.325,63.325,0,0,0-13.509-1.169c-3.791,0-9.54.983-14.838,2.1v-5.4A137.071,137.071,0,0,1,3294.383,468.064Z" transform="translate(-2020)" fill="#fff" opacity="0.5"/>
    <path id="Path_5877" data-name="Path 5877" d="M3299.476,470.66c-34.99,0-46.949,9.3-46.949,9.3a176.322,176.322,0,0,1,28.347-2.658c14.173,0,17.717,2.658,17.717,2.658C3307.006,477.746,3334.467,470.66,3299.476,470.66Z" transform="translate(-2020)" fill="#db9314"/>
    <rect id="Rectangle_453" data-name="Rectangle 453" width="27.018" height="5.386" transform="translate(1240.943 605.749)" fill="#16569b"/>
    <rect id="Rectangle_454" data-name="Rectangle 454" width="11.516" height="8.93" rx="1.772" transform="translate(1230.092 585.707)" fill="#473f3c"/>
    <rect id="Rectangle_455" data-name="Rectangle 455" width="11.516" height="8.93" rx="1.772" transform="translate(1265.968 585.707)" fill="#473f3c"/>
    <rect id="Rectangle_456" data-name="Rectangle 456" width="7.086" height="3.206" rx="1.199" transform="translate(1233.635 588.126)" fill="#177fbf"/>
    <rect id="Rectangle_457" data-name="Rectangle 457" width="7.086" height="3.206" rx="1.199" transform="translate(1269.4 588.126)" fill="#177fbf"/>
    <path id="Path_5878" data-name="Path 5878" d="M3349.783,319.022v33.658l-12.632,1.471V320.493Z" transform="translate(-2020)" fill="#75d9f1" opacity="0.5"/>
    <path id="Path_5879" data-name="Path 5879" d="M3540.2,296.939V330.6l-12.632,1.461V298.4Z" transform="translate(-2020)" fill="#75d9f1" opacity="0.5"/>
  </g>
</svg>
