<svg xmlns="http://www.w3.org/2000/svg" width="79.595" height="125.196" viewBox="0 0 79.595 125.196">
  <g id="Group_311" data-name="Group 311" transform="translate(-717.779 -1500.877)">
    <g id="Group_309" data-name="Group 309" transform="translate(720.193 1503.286)">
      <path id="Path_2763" data-name="Path 2763" d="M-1032.8-10.36a1.175,1.175,0,0,1,.141-.1A1.211,1.211,0,0,0-1032.8-10.36Z" transform="translate(1079.215 10.617)" fill="#ed2939"/>
      <path id="Path_2764" data-name="Path 2764" d="M-1033.594-9.784a1.344,1.344,0,0,1,.175-.187A1.361,1.361,0,0,0-1033.594-9.784Z" transform="translate(1079.769 10.277)" fill="#ed2939"/>
      <path id="Path_2765" data-name="Path 2765" d="M-1101.762,385.319a1.221,1.221,0,0,1-.021-.181A1.277,1.277,0,0,0-1101.762,385.319Z" transform="translate(1127.437 -265.926)" fill="#ed2939"/>
      <path id="Path_2766" data-name="Path 2766" d="M-1032.1-10.729a1.153,1.153,0,0,1,.161-.065A1.19,1.19,0,0,0-1032.1-10.729Z" transform="translate(1078.728 10.852)" fill="#ed2939"/>
      <path id="Path_2767" data-name="Path 2767" d="M-1101.6,386.11a1.139,1.139,0,0,1-.063-.181A1.152,1.152,0,0,0-1101.6,386.11Z" transform="translate(1127.351 -266.479)" fill="#ed2939"/>
      <path id="Path_2768" data-name="Path 2768" d="M-1101.8,384.283a1.377,1.377,0,0,1,.025-.266A1.394,1.394,0,0,0-1101.8,384.283Z" transform="translate(1127.451 -265.142)" fill="#ed2939"/>
      <path id="Path_2769" data-name="Path 2769" d="M-1058.166,25.051l-30.885,4.2,7.379-38.742a1.261,1.261,0,0,0-1.571-1.452,1.3,1.3,0,0,1,1.125.246L-1105.4,39.824a1.041,1.041,0,0,0,.966,1.589l23.769-2.28c2.966-.237,4.222.089,3.325,2.927l-26.076,67.281a1.289,1.289,0,0,1-.9-.675,1.262,1.262,0,0,0,2.23.089l46.432-79.949A2.515,2.515,0,0,0-1058.166,25.051Z" transform="translate(1130.079 10.988)" fill="#ed2939"/>
      <path id="Path_2770" data-name="Path 2770" d="M-1184.244,195.948a2.521,2.521,0,0,1-2.783-2.619,2.52,2.52,0,0,0,2.783,2.619l34.051-3.584h0Z" transform="translate(1187.029 -131.166)" fill="#ed2939"/>
      <path id="Path_2771" data-name="Path 2771" d="M-1101.7,385.8c-.005-.019-.012-.037-.016-.057C-1101.708,385.76-1101.7,385.778-1101.7,385.8Z" transform="translate(1127.387 -266.347)" fill="#ed2939"/>
      <path id="Path_2772" data-name="Path 2772" d="M-1101.439,386.554l-.011-.023Z" transform="translate(1127.204 -266.9)" fill="#ed2939"/>
      <path id="Path_2773" data-name="Path 2773" d="M-1101.8,384.973c0-.024-.006-.046-.006-.071C-1101.8,384.927-1101.8,384.949-1101.8,384.973Z" transform="translate(1127.451 -265.761)" fill="#ed2939"/>
      <path id="Path_2774" data-name="Path 2774" d="M-1033.012-10.086c.021-.018.042-.033.063-.049C-1032.97-10.118-1032.991-10.1-1033.012-10.086Z" transform="translate(1079.362 10.392)" fill="#ed2939"/>
      <path id="Path_2775" data-name="Path 2775" d="M-1032.334-10.541c.023-.013.046-.025.069-.036C-1032.288-10.566-1032.311-10.554-1032.334-10.541Z" transform="translate(1078.888 10.701)" fill="#ed2939"/>
      <path id="Path_2776" data-name="Path 2776" d="M-1031.569-10.832l.052-.016Z" transform="translate(1078.354 10.89)" fill="#ed2939"/>
      <path id="Path_2777" data-name="Path 2777" d="M-1140.854-9.342l.006-.006-.005.006-45.653,60.262a2.483,2.483,0,0,0-.515,1.4,2.483,2.483,0,0,1,.515-1.4Z" transform="translate(1187.023 9.842)" fill="#ed2939"/>
      <path id="Path_2778" data-name="Path 2778" d="M-1090.558,192.364h0l-11.163,57.675v0Z" transform="translate(1127.394 -131.166)" fill="#ed2939"/>
    </g>
    <path id="Path_2780" data-name="Path 2780" d="M-1165.692,106.2a3.761,3.761,0,0,1-1.322-.243,3.612,3.612,0,0,1-2.312-4.128l10.545-54.483-30.817,3.244a4.854,4.854,0,0,1-4.8-2.477,4.858,4.858,0,0,1,.364-5.392l45.653-60.262a3.651,3.651,0,0,1,4.41-1.136,3.65,3.65,0,0,1,2.112,4.035l-6.753,35.456,27.57-3.747a4.89,4.89,0,0,1,4.754,2.139,4.889,4.889,0,0,1,.166,5.211l-46.432,79.949A3.606,3.606,0,0,1-1165.692,106.2Zm12.874-64.324-10.488,54.19L-1120.29,22a.085.085,0,0,0,0-.114.085.085,0,0,0-.1-.047l-34.2,4.649,7.087-37.205L-1190.2,45.631c-.029.039-.043.056-.008.118s.057.059.1.054Z" transform="translate(1912.828 1519.87)"/>
  </g>
</svg>
